<svg xmlns="http://www.w3.org/2000/svg" width="78.263" height="87.061" viewBox="0 0 78.263 87.061">
    <defs>
        <style>
            .cls-3{fill:#081f3b}.cls-4{fill:#e34}
        </style>
    </defs>
    <g id="Group_14" transform="translate(-509.256 -1623.183)">
        <g id="Group_8">
            <g id="Group_7">
                <g id="Group_6">
                    <path id="Path_13" fill="#f6fbfe" d="M535.291 1709.145c16.077-6.388 30.427-2.444 38.175-5.52s22.25-14 8.092-49.64-38.125-32.178-46.648-28.79c-39.907 15.85-28.095 95.264.381 83.95zm0 0"/>
                </g>
            </g>
            <path id="Path_14" fill="#a4aec0" d="M543.441 1633a3.752 3.752 0 1 1 3.558 3.937 3.756 3.756 0 0 1-3.558-3.937zm5 .253a1.251 1.251 0 1 0-1.312 1.186 1.253 1.253 0 0 0 1.312-1.186zm0 0"/>
        </g>
        <g id="Group_13">
            <g id="Group_10">
                <g id="Group_9"/>
            </g>
            <g id="Group_12">
                <g id="Group_11">
                    <path id="Path_16" d="M528.928 1654.625a1.02 1.02 0 0 0 .723-.3l.006-.006a1.023 1.023 0 0 0-1.431-1.462l-.022.022a1.022 1.022 0 0 0 .724 1.745zm0 0" class="cls-3"/>
                    <path id="Path_17" d="M572.685 1667.988a26.329 26.329 0 0 0-7.437-15.108 26.2 26.2 0 0 0-33.66-2.859 1.023 1.023 0 1 0 1.184 1.668q.5-.351 1-.675l2.544 4.406a19.129 19.129 0 0 0-5.567 5.577l-4.406-2.544a23.906 23.906 0 0 1 1.494-2.1 1.023 1.023 0 1 0-1.6-1.275 26.209 26.209 0 0 0-2.189 29.4 4.571 4.571 0 1 0 7.926-4.557 17.03 17.03 0 1 1 31.506-5.43l-10.566-4a6.249 6.249 0 1 0-1.765 5.328 6.463 6.463 0 0 0 .485-.546l11.147 1.822a17.2 17.2 0 0 1-1.309 2.824 4.572 4.572 0 0 0 7.926 4.558 26.3 26.3 0 0 0 3.284-16.5zm-42.48 12.958a2.526 2.526 0 1 1-4.382 2.515 23.913 23.913 0 0 1-3.216-11.037h5.073a19.19 19.19 0 0 0 2.525 8.522zm-2.392-12.039c-.065.489-.109.98-.135 1.471h-5.067q.047-1.059.185-2.123a24.259 24.259 0 0 1 2.529-8.029l4.4 2.542a19.014 19.014 0 0 0-1.915 6.139zm15.938 5.473a4.21 4.21 0 1 1 6.78-4.784l-2.917-1.1a2.727 2.727 0 0 0-2.231.145 3.135 3.135 0 0 0-1.2 4.488 2.725 2.725 0 0 0 1.859 1.241l3.077.5a4.219 4.219 0 0 1-5.366-.489zm7.587-1.221h-.009l-4.959-.81a.706.706 0 0 1-.471-.332 1.088 1.088 0 0 1 .417-1.558.8.8 0 0 1 .355-.092.623.623 0 0 1 .219.04l4.687 1.773.029.011 4.716 1.784zm-3.589-20.8v-5.087a23.961 23.961 0 0 1 10.16 2.711l-2.545 4.407a18.941 18.941 0 0 0-7.615-2.031zm-12.2-2.375a23.969 23.969 0 0 1 10.159-2.714v5.089a18.941 18.941 0 0 0-7.615 2.031zm21.589 5.432l2.545-4.408a24.394 24.394 0 0 1 7.434 7.438L562.7 1661a19.148 19.148 0 0 0-5.568-5.577zm6.591 7.348l4.412-2.547a24.153 24.153 0 0 1 2.52 8.034q.14 1.063.186 2.123h-5.068c-.026-.491-.07-.982-.135-1.471a18.99 18.99 0 0 0-1.915-6.139zm3.9 20.7a2.526 2.526 0 0 1-4.381-2.515 18.992 18.992 0 0 0 1.574-3.513l1.246.2a1.04 1.04 0 0 0 .166.014 1.023 1.023 0 0 0 .361-1.98l-1.184-.447a19.273 19.273 0 0 0 .362-2.8h5.074a23.93 23.93 0 0 1-3.218 11.039zm0 0" class="cls-3"/>
                </g>
                <path id="Path_18" d="M552.863 1681.458H540.59a1.022 1.022 0 0 0-1.022 1.023v3.273a1.021 1.021 0 0 0 1.022 1.022h12.273a1.022 1.022 0 0 0 1.023-1.022v-3.273a1.023 1.023 0 0 0-1.023-1.023zm-1.023 3.273h-10.227v-1.231h10.227zm0 0" class="cls-4"/>
                <path id="Path_19" d="M531.61 1670.378a1.022 1.022 0 1 0 0 2.045h.024a1.022 1.022 0 1 0 0-2.045zm0 0" class="cls-3"/>
                <path id="Path_20" d="M540.068 1657.82l-.012-.021a1.023 1.023 0 0 0-1.772 1.023l.012.021a1.023 1.023 0 0 0 1.772-1.023zm0 0" class="cls-3"/>
                <path id="Path_21" d="M554.274 1659.356a1.021 1.021 0 0 0 .886-.511l.012-.022a1.023 1.023 0 0 0-1.771-1.023l-.012.022a1.022 1.022 0 0 0 .885 1.534zm0 0" class="cls-3"/>
                <path id="Path_22" d="M561.843 1672.427a1.023 1.023 0 1 0 0-2.046h-.024a1.023 1.023 0 0 0 0 2.046zm0 0" class="cls-3"/>
                <path id="Path_23" d="M543.171 1687.8h-.024a1.023 1.023 0 0 0 0 2.046h.024a1.023 1.023 0 0 0 0-2.046zm0 0" class="cls-4"/>
                <path id="Path_24" d="M550.307 1687.8h-4.2a1.023 1.023 0 0 0 0 2.046h4.2a1.023 1.023 0 0 0 0-2.046zm0 0" class="cls-4"/>
            </g>
        </g>
    </g>
</svg>
