<svg xmlns="http://www.w3.org/2000/svg" width="84.956" height="77.586" viewBox="0 0 84.956 77.586">
    <defs>
        <style>
            .cls-3{fill:#081f3b}
        </style>
    </defs>
    <g id="Group_5" transform="translate(-1332.244 -1627.92)">
        <g id="Group_2">
            <g id="Group_1">
                <path id="Path_1" fill="#f6fbfe" d="M1332.8 1650.016c4.513 16.7-1.042 30.507 1.131 38.556s11.368 23.7 48.393 13.7 36.316-34.207 33.922-43.06c-11.194-41.454-91.438-38.777-83.446-9.2zm0 0"/>
            </g>
            <path id="Path_2" fill="#a4aec0" d="M1406.282 1664.793a3.751 3.751 0 1 1-4.316 3.085 3.755 3.755 0 0 1 4.316-3.085zm-.821 4.934a1.251 1.251 0 1 0-1.029-1.439 1.253 1.253 0 0 0 1.029 1.439zm0 0"/>
        </g>
        <g id="Group_4">
            <path id="Path_3" d="M1396.41 1641.611h-9.377a1.037 1.037 0 0 0 0 2.074h8.34v33.415h-48.691v-33.419h32.132a1.037 1.037 0 0 0 0-2.074h-33.169a1.037 1.037 0 0 0-1.037 1.037v35.492a1.037 1.037 0 0 0 1.037 1.038h20.468c-.1 1.592-.495 4.71-2.125 6.62h-8.8a1.037 1.037 0 1 0 0 2.074h31.258a1.037 1.037 0 0 0 0-2.074h-8.246c-1.631-1.91-2.029-5.028-2.125-6.62h20.33a1.037 1.037 0 0 0 1.037-1.038v-35.492a1.037 1.037 0 0 0-1.037-1.037zm-20.71 44.189h-9.2a15.894 15.894 0 0 0 1.7-6.62h5.8a15.924 15.924 0 0 0 1.7 6.62zm0 0" class="cls-3"/>
            <path id="Path_4" d="M1393.854 1671.338v-24.877a1.037 1.037 0 0 0-1.037-1.037h-43.441a1.037 1.037 0 0 0-1.037 1.037v24.877a1.037 1.037 0 0 0 1.037 1.037h43.441a1.037 1.037 0 0 0 1.037-1.037zm-2.074-1.037h-41.367v-22.8h41.367zm0 0" class="cls-3"/>
            <path id="Path_5" d="M1348.982 1673.725a1.036 1.036 0 0 0-.573 1.349l.01.026a1.037 1.037 0 0 0 1.924-.776l-.01-.026a1.038 1.038 0 0 0-1.351-.573zm0 0" class="cls-3"/>
            <path id="Path_6" d="M1351.677 1673.725a1.035 1.035 0 0 0-.574 1.349l.01.026a1.037 1.037 0 1 0 1.924-.776l-.011-.026a1.037 1.037 0 0 0-1.349-.573zm0 0" class="cls-3"/>
            <path id="Path_7" d="M1354.369 1673.725a1.038 1.038 0 0 0-.572 1.351l.011.026a1.037 1.037 0 0 0 1.922-.78l-.01-.025a1.038 1.038 0 0 0-1.351-.572zm0 0" class="cls-3"/>
            <path id="Path_8" d="M1369.012 1673.662a1.037 1.037 0 0 0 0 2.074h3.879a1.037 1.037 0 0 0 0-2.074zm0 0" class="cls-3"/>
            <path id="Path_9" d="M1358.714 1663.477a25.959 25.959 0 0 0 10.54 3.786 8.485 8.485 0 0 0 2.525.1 25.061 25.061 0 0 0 11.952-3.881 30.65 30.65 0 0 0 5.145-3.885 1.037 1.037 0 0 0 0-1.477 30.65 30.65 0 0 0-5.145-3.885 22.051 22.051 0 0 0-25.017 0 30.741 30.741 0 0 0-5.146 3.885 1.039 1.039 0 0 0 0 1.477 30.741 30.741 0 0 0 5.146 3.885zm27.881-4.623a29.848 29.848 0 0 1-9.058 5.3 8.5 8.5 0 0 0-.058-10.622 29.971 29.971 0 0 1 9.116 5.32zm-22.679-4.93a1.036 1.036 0 0 0 1.747 1.1 6.455 6.455 0 1 1 5.957 10.26c-.132 0-.265.006-.4.006-.556 0-1.105-.029-1.648-.082a6.435 6.435 0 0 1-4.48-3.388 1.037 1.037 0 0 0-1.845.947 8.588 8.588 0 0 0 .586.976 30.591 30.591 0 0 1-7.985-4.895 30.409 30.409 0 0 1 8.066-4.928zm0 0" class="cls-3"/>
            <path id="Path_10" fill="#e34" d="M1370.993 1664.078h.016a5.129 5.129 0 0 0 4.87-6.691 1.037 1.037 0 0 0-1.723-.416l-.658.663a.85.85 0 0 1-1.452-.6.842.842 0 0 1 .247-.6l.658-.663a1.037 1.037 0 0 0-.427-1.721 5.129 5.129 0 1 0-1.531 10.025zm-2.166-7.283a3.05 3.05 0 0 1 1.329-.786 2.925 2.925 0 0 0 3.783 3.756 3.055 3.055 0 1 1-5.112-2.97zm0 0"/>
            <g id="Group_3">
                <path id="Path_11" d="M1363.8 1659.29a1.037 1.037 0 0 0 .572-1.35l-.01-.025a1.037 1.037 0 0 0-1.922.78l.01.024a1.037 1.037 0 0 0 .961.648 1.025 1.025 0 0 0 .389-.077zm0 0" class="cls-3"/>
                <path id="Path_12" d="M1381.949 1643.049a1.037 1.037 0 0 0 1.923-.778l-.009-.024a1.037 1.037 0 1 0-1.923.778zm0 0" class="cls-3"/>
            </g>
        </g>
    </g>
</svg>
