<svg xmlns="http://www.w3.org/2000/svg" width="88.669" height="79.481" viewBox="0 0 88.669 79.481">
    <defs>
        <style>
            .cls-2{fill:#081f3b}
        </style>
    </defs>
    <g id="Group_20" transform="translate(-915.8 -1626.973)">
        <g id="Group_19">
            <g id="Group_16">
                <g id="Group_15">
                    <path id="Path_25" fill="#f6fbfe" d="M917.633 1657.816c8.275 15.194 6.084 29.913 10.07 37.235s16.571 20.406 50.253 2.066 27.361-41.717 22.973-49.771c-20.532-37.712-97.95-16.439-83.3 10.47zm0 0"/>
                </g>
            </g>
            <g id="Group_18">
                <g id="Group_17">
                    <path id="Path_26" d="M982.794 1686.689l-7.351-12.732a6.577 6.577 0 0 0 2.287-4.142 4.275 4.275 0 0 1 1.629-2.822 6.594 6.594 0 0 0 2.06-7.687 4.278 4.278 0 0 1 0-3.259 6.592 6.592 0 0 0-2.06-7.686 4.278 4.278 0 0 1-1.629-2.823 6.591 6.591 0 0 0-5.628-5.626 4.278 4.278 0 0 1-2.821-1.63 6.593 6.593 0 0 0-7.687-2.06 4.279 4.279 0 0 1-3.259 0 6.591 6.591 0 0 0-7.687 2.06 4.28 4.28 0 0 1-2.822 1.63 6.589 6.589 0 0 0-5.627 5.626 4.275 4.275 0 0 1-1.629 2.823 6.589 6.589 0 0 0-2.06 7.686 4.278 4.278 0 0 1 0 3.259 6.591 6.591 0 0 0 2.06 7.687 4.275 4.275 0 0 1 1.629 2.822 6.577 6.577 0 0 0 2.335 4.182l-7.328 12.692a1.136 1.136 0 0 0 1.277 1.664l6.388-1.712 1.7 6.359a1.134 1.134 0 0 0 .948.832 1.23 1.23 0 0 0 .148.01 1.133 1.133 0 0 0 .983-.568l7.907-13.7a6.559 6.559 0 0 0 1.774-.448 4.279 4.279 0 0 1 3.259 0 6.5 6.5 0 0 0 1.85.457l7.9 13.686a1.133 1.133 0 0 0 .983.568 1.23 1.23 0 0 0 .148-.01 1.134 1.134 0 0 0 .948-.832l1.705-6.359 6.387 1.712a1.136 1.136 0 0 0 1.277-1.664zm-34.736 3.077l-1.289-4.809a1.133 1.133 0 0 0-1.39-.8l-4.837 1.295 5.965-10.33a6.5 6.5 0 0 0 1.319.322 4.276 4.276 0 0 1 2.822 1.63 6.561 6.561 0 0 0 3.413 2.3zm9.417-12.736a4.314 4.314 0 0 1-5.032-1.348 6.535 6.535 0 0 0-4.312-2.489 4.316 4.316 0 0 1-3.683-3.684 6.532 6.532 0 0 0-2.489-4.311 4.316 4.316 0 0 1-1.349-5.032 6.523 6.523 0 0 0 0-4.978 4.316 4.316 0 0 1 1.349-5.032 6.535 6.535 0 0 0 2.489-4.312 4.314 4.314 0 0 1 3.683-3.683 6.539 6.539 0 0 0 4.312-2.489 4.314 4.314 0 0 1 5.032-1.349 6.535 6.535 0 0 0 4.979 0 4.313 4.313 0 0 1 5.031 1.349 6.537 6.537 0 0 0 4.311 2.489 4.313 4.313 0 0 1 3.684 3.683 6.536 6.536 0 0 0 2.49 4.312 4.315 4.315 0 0 1 1.347 5.032 6.542 6.542 0 0 0 0 4.978 4.315 4.315 0 0 1-1.347 5.032 6.534 6.534 0 0 0-2.49 4.311 4.315 4.315 0 0 1-3.683 3.684 6.533 6.533 0 0 0-4.312 2.489 4.313 4.313 0 0 1-5.031 1.348 6.544 6.544 0 0 0-4.979 0zm17.146 7.125a1.133 1.133 0 0 0-1.39.8l-1.289 4.809-6.013-10.416a6.571 6.571 0 0 0 3.352-2.278 4.274 4.274 0 0 1 2.821-1.63 6.45 6.45 0 0 0 1.378-.344l5.977 10.352zm0 0" class="cls-2"/>
                </g>
                <path id="Path_27" fill="#e34" d="M954.806 1653.478l-3.532 3.531a1.137 1.137 0 0 0 0 1.606l6.624 6.624a1.136 1.136 0 0 0 1.6 0l9.223-9.223a1.135 1.135 0 0 0 0-1.6l-3.532-3.532a1.136 1.136 0 0 0-1.6 0l-4.888 4.889-2.29-2.29a1.136 1.136 0 0 0-1.6 0zm3.092 4.7a1.136 1.136 0 0 0 1.6 0l4.888-4.889 1.927 1.926-7.618 7.618-5.018-5.019 1.927-1.926zm0 0"/>
                <path id="Path_28" d="M974.756 1658.059a14.761 14.761 0 0 0-9.319-13.722 1.135 1.135 0 0 0-.837 2.111 12.485 12.485 0 1 1-9.2 0 1.135 1.135 0 1 0-.837-2.11 14.758 14.758 0 1 0 20.193 13.722zm0 0" class="cls-2"/>
                <path id="Path_29" d="M960 1645.572a1.134 1.134 0 1 0-.8-.332 1.137 1.137 0 0 0 .8.332zm0 0" class="cls-2"/>
            </g>
        </g>
        <path id="Path_30" fill="#a4aec0" d="M997.363 1654.725a3.752 3.752 0 1 1-3.48 4.005 3.756 3.756 0 0 1 3.48-4.005zm.35 4.99a1.251 1.251 0 1 0-1.336-1.16 1.253 1.253 0 0 0 1.336 1.16zm0 0"/>
    </g>
</svg>
