<svg xmlns="http://www.w3.org/2000/svg" width="204" height="205" viewBox="0 0 204 205">
    <path fill="#BCA16E" d="M37 141.523c1.054 0 1.918.816 1.995 1.851l.005.15v53c0 1.054-.816 1.918-1.85 1.994l-.15.005H12c-1.054 0-1.918-.815-1.995-1.85l-.005-.15v-53c0-1.054.816-1.918 1.85-1.994l.15-.006h25zm120-26c1.054 0 1.918.816 1.995 1.851l.005.15v79c0 1.054-.816 1.918-1.85 1.994l-.15.005h-25c-1.054 0-1.918-.815-1.995-1.85l-.005-.15v-79c0-1.054.816-1.918 1.85-1.994l.15-.006h25zm40 40c1.054 0 1.918.816 1.995 1.851l.005.15v39c0 1.054-.816 1.918-1.85 1.994l-.15.005h-25c-1.054 0-1.918-.815-1.995-1.85l-.005-.15v-39c0-1.054.816-1.918 1.85-1.994l.15-.006h25zm-120-70c1.054 0 1.918.816 1.995 1.851l.005.15v109c0 1.054-.816 1.918-1.85 1.994l-.15.005H52c-1.054 0-1.918-.815-1.995-1.85l-.005-.15v-109c0-1.054.816-1.918 1.85-1.994l.15-.006h25zm40 40c1.054 0 1.918.816 1.995 1.851l.005.15v69c0 1.054-.816 1.918-1.85 1.994l-.15.005H92c-1.054 0-1.918-.815-1.995-1.85l-.005-.15v-69c0-1.054.816-1.918 1.85-1.994l.15-.006h25zm-80 18H12v53h25v-53zm120-26h-25v79h25v-79zm40 40h-25v39h25v-39zm-120-70H52v109h25v-109zm40 40H92v69h25v-69zM61.344 5.463l.06.11 43.194 91.32 39.041-66.058c.36-.609 1.207-.653 1.635-.125l.076.106 26.206 42.207h14.658l-7.573-8.196c-.375-.405-.35-1.038.056-1.413.374-.346.942-.351 1.322-.031l.091.087 9.124 9.875.062.074.029.039c.014.02.027.041.04.063l.024.044.024.05c.01.021.018.041.025.062l.015.042.018.064c.006.023.01.047.015.071l.005.038.002.015.007.116-.002.062c.014.22-.044.443-.176.633l-.088.11-9.124 9.874-.09.087c-.38.32-.949.315-1.323-.031-.375-.346-.425-.912-.135-1.316l.079-.097 7.688-8.322H171c-.303 0-.586-.136-.775-.367l-.075-.105-25.63-41.278-39.16 66.26c-.384.651-1.31.646-1.7.033l-.064-.115-42.944-90.79-36.705 108.184c-.124.365-.445.623-.82.67l-.127.008H11c-.552 0-1-.447-1-1 0-.512.386-.935.883-.993l.117-.007h11.283L59.553 5.68c.275-.81 1.356-.91 1.79-.217z"/>
</svg>
