<svg xmlns="http://www.w3.org/2000/svg" width="204" height="204" viewBox="0 0 204 204">
    <g fill="none" fill-rule="evenodd">
        <path fill="#BCA16E" fill-rule="nonzero" d="M102 152c.552 0 1 .448 1 1v21l-.001.033C110.817 174.547 117 181.05 117 189c0 8.284-6.716 15-15 15-8.284 0-15-6.716-15-15 0-7.949 6.183-14.454 14.002-14.967L101 174v-21c0-.552.448-1 1-1zm0 24c-7.18 0-13 5.82-13 13s5.82 13 13 13 13-5.82 13-13-5.82-13-13-13zm-43.935-28.468c.392-.305.96-.277 1.32.083.39.39.39 1.024 0 1.414l-14.85 14.85-.024.021.234.274c4.923 5.894 4.618 14.676-.917 20.21-5.857 5.859-15.355 5.859-21.213 0-5.858-5.857-5.858-15.355 0-21.212 5.62-5.621 14.592-5.849 20.484-.684l.01-.012 14.862-14.86zm86.55.083c.39-.39 1.024-.39 1.414 0l14.861 14.861.011.012c5.892-5.165 14.863-4.937 20.484.684 5.858 5.857 5.858 15.355 0 21.213-5.858 5.858-15.356 5.858-21.213 0-5.621-5.621-5.849-14.593-.683-20.485l-.025-.021-14.849-14.85c-.39-.39-.39-1.023 0-1.414zm-102.2 16.97c-5.078-5.076-13.309-5.076-18.386 0-5.076 5.078-5.076 13.309 0 18.386 5.077 5.076 13.308 5.076 18.385 0 5.077-5.077 5.077-13.308 0-18.385zm137.556 0c-5.077-5.076-13.308-5.076-18.385 0-5.077 5.078-5.077 13.309 0 18.386 5.077 5.076 13.308 5.076 18.385 0 5.076-5.077 5.076-13.308 0-18.385zm-63.948-64.233l.22.079 12.913 5.017c6.425 2.495 10.695 8.617 10.84 15.484l.004.362V137c0 4.882-3.887 8.856-8.735 8.996L131 146H75c-4.882 0-8.856-3.887-8.996-8.735L66 137v-16.16c0-6.65 3.876-12.677 9.898-15.445l.331-.148 10.699-4.646c1.226-.532 2.631-.415 3.748.3l.194.132 10.499 7.618c.324.236.754.252 1.093.053l.11-.074 9.76-7.624c1.05-.819 2.433-1.06 3.69-.654zM87.69 102.45l-10.664 4.632c-5.377 2.334-8.892 7.581-9.022 13.42l-.004.338V137c0 3.785 3.005 6.87 6.76 6.996L75 144h3v-16c0-.552.448-1 1-1s1 .448 1 1v16h44v-16c0-.552.448-1 1-1s1 .448 1 1v16h5c3.785 0 6.87-3.005 6.996-6.76L138 137v-15.706c0-6.076-3.663-11.54-9.255-13.857l-.313-.125-12.09-4.698 1.346 6.728c.248 1.239-.308 2.493-1.374 3.146l-.164.093-4.547 2.408c-.134.07-.249.17-.338.29l-.061.095-6.59 11.462c-.268.465-.655.85-1.122 1.115-1.388.786-3.138.346-3.995-.975l-.094-.156-6.48-11.436c-.077-.135-.183-.25-.31-.336l-.1-.059-4.64-2.409c-1.129-.586-1.759-1.816-1.59-3.063l.031-.187 1.376-6.88zm26.538-.21c-.178.053-.35.131-.509.233l-.155.11-9.762 7.623c-1.001.782-2.38.845-3.443.175l-.165-.111-10.498-7.618-.005-.004-1.416 7.074c-.079.397.089.798.417 1.022l.103.061 4.64 2.41c.45.233.833.577 1.114.998l.113.185 6.48 11.436c.273.48.883.649 1.364.377.116-.067.218-.155.3-.26l.074-.112 6.59-11.462c.247-.43.595-.79 1.014-1.05l.183-.106 4.547-2.407c.356-.188.56-.568.53-.962l-.017-.118-1.499-7.493zM189 87c8.284 0 15 6.716 15 15 0 8.284-6.716 15-15 15-7.949 0-14.453-6.183-14.967-14.001h-.016L153 103l-.117-.007c-.497-.057-.883-.48-.883-.993 0-.552.448-1 1-1h21l.033.002.024-.32C174.725 93.015 181.16 87 189 87zM15 87c7.949 0 14.454 6.183 14.967 14.002L30 101h21c.552 0 1 .448 1 1s-.448 1-1 1H29.983l-.016-.001C29.453 110.817 22.95 117 15 117c-8.284 0-15-6.716-15-15 0-8.284 6.716-15 15-15zm174 2c-7.18 0-13 5.82-13 13s5.82 13 13 13 13-5.82 13-13-5.82-13-13-13zM15 89c-7.18 0-13 5.82-13 13s5.82 13 13 13 13-5.82 13-13-5.82-13-13-13zm87-32c10.506 0 19 8.966 19 20s-8.494 20-19 20-19-8.966-19-20 8.494-20 19-20zm0 2c-9.376 0-17 8.047-17 18s7.624 18 17 18c9.376 0 17-8.047 17-18s-7.624-18-17-18zm51.172-29.385c5.857-5.858 15.355-5.858 21.213 0 5.858 5.858 5.858 15.356 0 21.213-5.62 5.621-14.592 5.849-20.484.684l-.01.012-14.862 14.86-.094.084c-.392.305-.96.277-1.32-.083-.39-.39-.39-1.024 0-1.414l14.85-14.85.024-.021-.234-.274c-4.923-5.894-4.618-14.676.917-20.21zm-123.557 0c5.858-5.858 15.356-5.858 21.213 0 5.621 5.621 5.849 14.593.683 20.485l.025.021 14.849 14.85c.39.39.39 1.023 0 1.414-.39.39-1.024.39-1.414 0L50.11 51.524l-.011-.012c-5.892 5.165-14.863 4.937-20.484-.684-5.858-5.857-5.858-15.355 0-21.213zm143.356 1.414c-5.077-5.076-13.308-5.076-18.385 0-5.077 5.077-5.077 13.308 0 18.385 5.077 5.077 13.308 5.077 18.385 0 5.076-5.077 5.076-13.308 0-18.385zm-123.557 0c-5.077-5.076-13.308-5.076-18.385 0-5.076 5.077-5.076 13.308 0 18.385 5.077 5.077 13.308 5.077 18.385 0 5.077-5.077 5.077-13.308 0-18.385zM102 0c8.284 0 15 6.716 15 15 0 7.949-6.183 14.453-14.001 14.967L103 30v21l-.007.117c-.057.497-.48.883-.993.883-.552 0-1-.448-1-1V30l.002-.033-.32-.024C93.015 29.275 87 22.84 87 15c0-8.284 6.716-15 15-15zm0 2c-7.18 0-13 5.82-13 13s5.82 13 13 13 13-5.82 13-13-5.82-13-13-13z"/>
    </g>
</svg>
