<svg xmlns="http://www.w3.org/2000/svg" width="141" height="60.997" viewBox="0 0 141 60.997"><defs><style>.a{fill:#c8242b;}.a,.b,.c{fill-rule:evenodd;}.b{fill:#fffffe;}.c{fill:#fff;}</style></defs><g transform="translate(0 -0.003)"><g transform="translate(0 0.003)"><path class="a" d="M80.968,61h59.244V0H80.968Z" transform="translate(0.788 -0.003)"/><path class="b" d="M8.152,12.023H0V5.19H23.347v6.833H15.2V55.88H8.152V12.023M32.329,43.7c0,3.436,2.114,5.051,4.554,5.051s4.561-1.614,4.561-5.051V17.326c0-3.439-2.113-5.053-4.561-5.053s-4.554,1.614-4.554,5.054ZM25.588,17.326c0-8.141,5.814-12.208,11.3-12.208s11.3,4.068,11.3,12.209V43.7c0,8.138-5.814,12.207-11.3,12.207s-11.3-4.068-11.3-12.207V17.326ZM60.424,29.231h3.385c5.736,0,5.8-3.487,5.8-8.543,0-4.768,0-8.685-5.524-8.685H60.424V29.231ZM53.38,5.171H63.947c3.869,0,6.7.924,9.123,3.56s3.173,5.835,3.173,11.886c0,4.415-.347,7.4-2,10.181-1.931,3.275-5.04,5.268-10.222,5.268H60.424V55.859H53.38V5.172Zm82.559-.028h-7.8l-6.22,15.59-6.222-15.59H86.634V55.859h7.113v-22.2h9.826v-6.3H93.747V11.526h16.7l7.572,18.986L107.9,55.88h7.8l6.222-15.591,6.22,15.591h7.8L125.817,30.512,135.939,5.143" transform="translate(0 -0.003)"/><path class="a" d="M80.968,61h59.244V0H80.968Z" transform="translate(0.788 -0.003)"/><path class="c" d="M8.1,12.023H0V5.19H23.212v6.833h-8.1V55.88h-7V12.023M32.142,43.7c0,3.436,2.1,5.051,4.528,5.051S41.2,47.142,41.2,43.7V17.326c0-3.439-2.1-5.053-4.535-5.053s-4.528,1.614-4.528,5.054Zm-6.7-26.379c0-8.141,5.78-12.208,11.23-12.208S47.9,9.186,47.9,17.327V43.7c0,8.138-5.78,12.207-11.235,12.207S25.44,51.843,25.44,43.7V17.326ZM60.074,29.231h3.365c5.7,0,5.77-3.487,5.77-8.543,0-4.768,0-8.685-5.492-8.685H60.074V29.231Zm-7-24.06H63.576c3.847,0,6.661.924,9.07,3.56S75.8,14.566,75.8,20.617c0,4.415-.345,7.4-1.992,10.181-1.92,3.275-5.011,5.268-10.163,5.268H60.074V55.859h-7V5.172Z" transform="translate(0 -0.003)"/><path class="b" d="M135.151,5.142h-7.757L121.21,20.733,115.024,5.142H86.132V55.86H93.2v-22.2h9.769v-6.3H93.2V11.526h16.6l7.528,18.986L107.274,55.881h7.75l6.186-15.592,6.184,15.592h7.757L125.088,30.512l10.063-25.37" transform="translate(0.788 -0.003)"/></g></g></svg>