<svg xmlns="http://www.w3.org/2000/svg" width="32" height="32" viewBox="0 0 32 32">
    <path fill="#BCA16E" fill-rule="evenodd" d="M15.68 3c-.76 0-1.452.437-1.771 1.119l-3.389 7.24H3.953c-.79 0-1.502.47-1.804 1.19-.302.721-.136 1.55.423 2.102l5.108 5.041-1.74 7.973c-.167.771.157 1.565.82 2.005.662.44 1.53.438 2.19-.005l6.724-4.501 6.711 4.5c.64.431 1.476.448 2.134.045.657-.404 1.01-1.152.902-1.909l-1.16-8.05 5.174-5.105c.553-.552.717-1.376.417-2.093-.3-.717-1.006-1.187-1.792-1.193h-7.22l-3.387-7.24C17.133 3.437 16.442 3 15.68 3z"/>
</svg>
