<svg xmlns="http://www.w3.org/2000/svg" width="96" height="103" viewBox="0 0 96 103">
    <path fill="#1B1B1B" fill-rule="evenodd" d="M85.103 0l.29.113 2.943 2.771.12.272-.001 29.913h6.237L96 34.301v23.248l-1.308 1.232-6.237-.001v41.064l-.119.272-2.944 2.771-.289.113H9.873l-.289-.113-2.944-2.771-.12-.272V58.78H1.308L0 57.55V34.3l1.308-1.232H6.52V3.156l.12-.272L9.584.113 9.874 0h75.23zm2.042 58.78H7.992v40.597l2.377 2.237h74.4l2.377-2.237-.001-40.597zm-37.1 28.022c.49 0 .98.154 1.308.462.464.437.489 1.151.49 2.665v.532c-.001 1.49-.027 2.08-.49 2.807-.287.27-.698.421-1.125.455l-.184.007H48.41v-6.928h1.635zm-10.304-.154c.49 0 .981.154 1.308.462.491.616.491 1.385.491 3.079 0 1.693 0 2.463-.49 3.08-.328.307-.818.461-1.309.461-.49 0-.981-.154-1.308-.462-.436-.547-.485-1.216-.49-2.548v-1.068c.005-1.356.054-2.132.49-2.542.327-.308.817-.462 1.308-.462zm18.644 0l.818 2.463.817-2.463h.982l-1.309 3.387 1.472 3.541h-.981l-.981-2.771-.982 2.771h-.98l1.471-3.541-1.308-3.387h.981zm-2.29 0v.77h-1.962v2.309h1.635v.77h-1.635v2.31h1.962v.769h-2.78v-6.928h2.78zm-12.265 0l1.962 4.773v-4.773h.818v6.928h-.818l-1.962-4.773v4.773h-.818v-6.928h.818zm-7.033 0v.77h-1.962v2.309h1.635v.77h-1.635v3.079h-.818v-6.928h2.78zm13.084.924h-.818v5.388h.818c.327 0 .49-.154.654-.308.327-.308.327-.923.327-2.463 0-1.694 0-2.156-.327-2.31-.164-.153-.49-.307-.654-.307zm-10.794.154c-.309.29-.326.856-.327 2.215v.496c0 1.359.018 1.924.327 2.215.117.11.15.142.16.15.33.158.821.158 1.148-.15.296-.278.324-.683.327-2.012v-.451c0-1.694-.163-2.31-.327-2.463-.117-.11-.15-.142-.16-.15l-.003-.004c-.327-.154-.818-.154-1.145.154zm20.77-24.634c.981 0 1.962.308 2.617.924.817.77 1.308 2.001 1.144 3.079.164.77 0 1.54-.327 2.155-.163.308-.49.616-.817.924.49.308.817.616.98 1.078.164.77.328 1.54.328 2.31.163 1.23-.327 2.462-1.308 3.386-1.472 1.232-3.762 1.232-5.397 0-.982-.924-1.309-2.155-1.145-3.387-.164-.77 0-1.54.327-2.31.327-.461.654-.77.981-1.077-.327-.308-.654-.616-.818-.924-.163-.77-.327-1.385-.327-2.155 0-1.078.327-2.31 1.145-3.08.654-.615 1.636-.923 2.617-.923zm-12.593.924c.61.718 1.079 1.57 1.005 2.432l-.024.185v7.698c.164 1.078-.163 2.001-.98 2.617-1.473 1.232-3.762 1.232-5.398 0-.61-.718-1.079-1.57-1.005-2.432l.024-.185v-7.698c-.164-1.078.163-2.002.981-2.617 1.472-1.232 3.762-1.232 5.397 0zm7.523-.616v14.318h-2.78V66.633l-2.29 1.54v-3.08l2.29-1.693h2.78zm-18.153-.308c1.799.154 3.27 1.693 3.107 3.54 0 .98-.27 1.96-.688 2.824l-.13.256-3.434 5.543h4.252v2.463h-7.523v-2.31l3.925-6.466c.49-.77.654-1.54.654-2.31 0-.769-.163-1.077-.817-1.077-.608 0-.933.266-.977.797l-.005.127v.924h-2.78v-.77c-.163-1.078.164-2.002.981-2.617.75-.565 1.637-.87 2.535-.918l.246-.006h.654zm23.223 8.468c-.164 0-.49.154-.654.308-.327.461-.327 1.077-.327 1.693 0 .616.163 1.232.327 1.694.163.154.327.308.654.308.163 0 .49-.154.654-.308.327-.462.327-1.078.327-1.694.164-.616 0-1.232-.327-1.693-.163-.154-.327-.308-.654-.308zm-15.21-5.85c-.453 0-.766.261-.812.786l-.005.137v7.852c0 .616.327.924.817.924.453 0 .767-.263.812-.787l.006-.137v-7.852c0-.616-.327-.924-.818-.924zm14.556.153c-.14.396-.16.905-.163 1.333v.331c.001.487.026 1.287.326 1.57.164.153.327.153.49.153.164 0 .328 0 .492-.154.49-.462.327-1.385.327-1.693 0-.286.14-.97-.232-1.437l-.095-.103-.093-.076c-.322-.23-.755-.204-1.052.076zm.852-18.457h-1.8v6.928h1.146V51.41h.654l.981 2.771h1.145l-1.145-3.079.138-.032c.698-.195.843-.792.843-1.661 0-1.386-.49-2.002-1.962-2.002zm-19.462 0h-1.799v6.928h1.145V51.41h.654l.981 2.771h1.145l-1.145-3.079.138-.032c.699-.195.844-.792.844-1.661 0-1.386-.491-2.002-1.963-2.002zm9.322 0H48.77v6.928h1.145v-1.847l.49-1.078 1.146 2.925h1.308l-1.636-4.003 1.472-2.925h-1.144l-1.636 3.233v-3.233zm7.196 0h-3.107v6.928h3.107v-1.077h-1.963v-2.002h1.636v-.924h-1.636V48.33h1.963v-.924zm-11.448-.154c-.49 0-1.145.154-1.472.616-.49.616-.49 1.54-.49 2.925v.271c.002 1.237.032 2.08.49 2.655.654.77 1.963.77 2.78.154l.164-.154c.49-.616.49-1.54.49-2.926v-.27c-.002-1.237-.032-2.08-.49-2.655-.327-.462-.981-.616-1.472-.616zm-10.14 0h-1.799v6.928h1.8l.183-.007c.43-.033.859-.185 1.288-.454.327-.462.49-1.078.49-1.694 0-.462-.163-.924-.326-1.386-.164.154-.164.154-.327 0 .163 0 .327-.154.327-.308.327-.307.49-.77.327-1.231 0-.462-.164-1.078-.49-1.386-.328-.308-.982-.462-1.473-.462zm10.14.924c.164 0 .49.154.49.308.328 1.54.328 3.08 0 4.619-.163.154-.326.308-.49.308-.164 0-.49-.154-.49-.308-.328-1.54-.328-3.08 0-4.62.163-.153.326-.307.49-.307zm-10.14 2.925c.654 0 .818.308.818 1.078 0 .924-.164 1.078-.818 1.078h-.49V51.1zm5.234-2.771c.654 0 .654.462.654 1.078 0 .616-.164 1.077-.654 1.077h-.655V48.33zm19.298 0c.613 0 .651.406.654.964v.227c-.003.558-.04.964-.654.964H59.4V48.33zm-24.532 0c.654 0 .818.308.818.924 0 .616-.327.923-.818.923h-.49V48.33zm-3.761-10.623h-1.8v6.928h1.146V41.71h.654l.981 2.77h1.145l-.981-2.924.124-.066c.55-.326.693-.92.693-1.782 0-1.386-.49-2.001-1.962-2.001zM28 38.015c-.817-.616-1.962-.616-2.78.154-.49.615-.49 1.54-.49 2.925v.27c.002 1.237.032 2.08.49 2.655.327.462.818.616 1.472.616.49 0 .981-.154 1.308-.462.327-.462.654-.924.654-1.54H27.51l.053.116c.108.267.09.52-.053.654-.164.308-.655.308-.982.154l-.163-.154c-.327-1.54-.327-3.079 0-4.619.163-.154.327-.308.49-.308.164 0 .491.154.491.308.164.154.164.462.164.616h1.144l-.004-.164c-.028-.534-.204-.942-.65-1.221zm42.358-.308h-1.799v6.928h1.145V41.71h.654l.981 2.77h1.145l-1.145-3.078.155-.066c.684-.325.827-.91.827-1.628 0-1.386-.491-2.001-1.963-2.001zm-5.07 0H63.49v6.928h1.145V41.71h.654l.981 2.77h1.145l-1.145-3.078.155-.066c.684-.325.827-.91.827-1.628 0-1.386-.49-2.001-1.963-2.001zm-49.88-.154c-.491 0-.982.154-1.309.462-.49.461-.654.923-.654 1.54 0 1.077.327 1.385.981 1.693l.818.308.107.038c.408.165.547.47.547 1.04 0 .307 0 .615-.163.77-.164.153-.328.153-.491.153-.164 0-.327 0-.49-.154-.164-.154-.164-.462-.164-.77h-1.145l.008.18c.035.434.196.956.483 1.36.327.308.98.462 1.471.462.491 0 .982-.154 1.472-.462.327-.462.49-.924.49-1.54 0-1.231-.163-1.54-1.144-2.001l-.818-.308-.107-.036c-.407-.144-.547-.32-.547-.888 0-.308 0-.462.164-.616.163-.154.327-.154.49-.154.164 0 .328 0 .491.154.164.154.164.462.164.77h1.144l-.007-.224c-.036-.507-.197-.911-.483-1.315-.327-.308-.818-.462-1.309-.462zm41.049.462c-.818-.616-1.963-.616-2.78.154-.458.574-.489 1.417-.49 2.654l-.001.27c0 1.386 0 2.31.49 2.926.328.462.818.616 1.472.616.491 0 .982-.154 1.309-.462.327-.462.654-.924.654-1.54h-1.145l.054.116c.107.267.09.52-.054.654-.163.308-.654.308-.981.154l-.164-.154c-.327-1.54-.327-3.079 0-4.619.164-.154.327-.308.491-.308.164 0 .49.154.49.308.164.154.164.462.164.616h1.145l-.004-.164c-.028-.534-.204-.942-.65-1.221zm29.601 0c-.818-.616-1.962-.616-2.78.154-.458.574-.488 1.417-.49 2.654v.542c.002 1.236.032 2.08.49 2.654.327.462.818.616 1.472.616.49 0 .981-.154 1.308-.462.327-.462.654-.924.654-1.54h-1.144l.053.116c.108.267.09.52-.053.654-.164.308-.655.308-.982.154l-.163-.154c-.327-1.54-.327-3.079 0-4.619.163-.154.327-.308.49-.308.164 0 .491.154.491.308.164.154.164.462.164.616h1.144l-.004-.164c-.028-.534-.204-.942-.65-1.221zm-73.43-.308H9.52v6.928h3.107v-1.078h-1.962v-2.001H12.3v-.924h-1.635V38.63h1.962v-.923zm64.272 0h-3.108v6.928H76.9v-1.078h-1.963v-2.001h1.636v-.924h-1.636V38.63H76.9v-.923zm-29.111 0h-3.598v.923h1.145v6.005h1.145V38.63h1.308v-.923zm-25.84 0h-3.598v.923h1.145v6.005h1.145V38.63h1.308v-.923zm29.929.462c-.655-.77-1.963-.77-2.78-.154l-.164.154c-.458.574-.489 1.417-.49 2.654v.542c.001 1.236.032 2.08.49 2.654.49.462.981.616 1.472.616.49 0 1.145-.154 1.472-.616.458-.575.488-1.418.49-2.654v-.542c-.002-1.237-.032-2.08-.49-2.654zm7.686-.462H58.42v5.234l.008.173c.036.402.197.79.483 1.059.327.308.818.462 1.472.462.49 0 .981-.154 1.308-.462.327-.308.49-.77.49-1.232v-5.234h-1.144v5.234l-.004.084c-.028.279-.204.546-.65.686h-.164l-.089-.007c-.295-.049-.565-.329-.565-.609v-5.388zm19.298-.154h-.981v6.928h1.145v-4.003l1.799 4.157h.981v-6.928h-1.145v4.003l-1.799-4.157zm-72.777 0H4.286v6.928h1.8l.183-.007c.43-.034.859-.186 1.288-.455.327-.462.491-1.078.491-1.694 0-.461-.164-.923-.327-1.385 0 .154-.164 0-.327 0 .163 0 .327-.154.327-.308.327-.308.49-.77.327-1.232 0-.462-.164-1.078-.49-1.385-.328-.308-.982-.462-1.473-.462zm29.602 0h-1.309l1.472 4.157v2.77h1.145v-2.616l1.472-4.157H37.16l-.818 2.617-.654-2.771zm5.56 0h-1.799v6.928h1.145v-2.617h.654l.18-.004c1.332-.062 1.783-.824 1.783-2.152-.164-1.386-.654-2.155-1.963-2.155zm47.755 0h-1.308l1.472 4.157v2.77h1.144v-2.616l1.472-4.157H90.31v-.154l-.654 2.771-.654-2.771zm-38.596.923c.163 0 .49.154.49.308.327 1.54.327 3.08 0 4.62-.163.153-.327.307-.49.307-.164 0-.49-.154-.49-.308-.328-1.54-.328-3.079 0-4.619.163-.154.326-.308.49-.308zM6.249 41.402c.654 0 .818.308.818 1.077 0 .77-.164 1.078-.818 1.078h-.49v-2.155zm34.998-2.772c.614 0 .652.406.654.965v.228c-.002.576-.04 1.117-.654 1.117h-.654v-2.31zm-9.485 0c.613 0 .651.406.654.965v.227c-.003.558-.04.964-.654.964h-.654V38.63zm33.69 0c.654 0 .654.462.654 1.078 0 .616-.164 1.078-.654 1.078h-.654V38.63zm5.07 0c.613 0 .651.406.654.965v.227c-.003.558-.041.964-.654.964h-.655V38.63zm-64.437 0c.655 0 .818.308.818.924 0 .616-.327.924-.818.924h-.49V38.63zM84.77 1.23h-74.4L7.992 3.467V33.07h79.153V3.467L84.77 1.23zM66.016 19.667l.22.008c1.894 0 3.026 1.148 3.25.257l.02-.103h.327l.164 3.079h-.327c-.328-1.54-1.8-2.617-3.435-2.617-2.617 0-3.761 2.001-3.761 4.156 0 2.772 1.471 4.465 3.761 4.465 1.39 0 2.634-.686 3.457-1.67l.141-.177.164.154c-.777 1.316-2.144 2.077-3.681 2.15l-.244.005h-.491c-2.542-.15-4.62-2.042-4.738-4.55l-.005-.223v-.307c.155-2.48 2.365-4.545 4.961-4.625l.217-.002zm-37.887.316v.308c-1.092 0-1.44.14-1.47 1.09l-.001.141v6.005c0 1.028.298 1.215 1.32 1.23l.151.001v.308H23.55v-.308c1.093 0 1.44-.14 1.47-1.09l.002-.141v-6.005c0-1.029-.298-1.216-1.32-1.23l-.152-.001v-.308h4.58zm51.353-.308l.164 2.001h-.327c-.155-1.02-.75-1.35-1.786-1.383l-.177-.002h-2.617c-.615 0-.652.136-.654.794v2.747h2.944c.927 0 1.124-.275 1.28-1.084l.028-.148h.327v3.08h-.327c0-.725-.29-1.177-1.142-1.228l-.166-.005h-2.944v3.065c.003.623.036.9.54.935l.114.003h2.944c1.085 0 2.022-.69 2.396-1.68l.057-.167.327.154-.817 2.31h-8.668v-.617c1.093 0 1.44-.14 1.47-1.09l.002-.141v-6.005c0-1.028-.298-1.215-1.321-1.23l-.151-.001v-.308h8.504zm-34.671 0l3.925 8.006c.305.574.61 1.015 1.315 1.071l.157.006v.308h-4.252v-.308h.163c.818 0 .982-.308.982-.615-.144-.674-.412-1.348-.805-1.918l-.177-.238h-4.252c-.327.616-.654 1.386-.818 2.156 0 .287.143.574.827.611l.155.004h.163v.308h-3.27v-.308c.763-.143.956-.421 1.377-1.083l.094-.148 4.089-7.852h.327zm8.668.154l5.887 6.62v-4.465c0-1.328-.15-1.807-1.314-1.845l-.158-.002v-.308h3.271v.308c-1.415 0-1.47.427-1.472 1.691v7.238h-.163l-6.705-7.39v5.235c0 1.328.15 1.807 1.314 1.845l.157.002v.308h-3.434v-.308c1.359 0 1.463-.393 1.471-1.544v-6c-.152-.574-.732-1.015-1.34-1.071l-.131-.006.164-.308h2.453zm-30.583 0l.164 2.155h-.327c-.155-.875-.457-1.474-1.462-1.534l-.174-.006h-2.78c-.61 0-.651.269-.654.805v2.737h2.29c.926 0 1.27-.275 1.305-1.084l.003-.148h.327v3.233h-.327c0-.872-.292-1.333-1.151-1.381l-.158-.005h-2.29v2.926c0 1.028.299 1.215 1.321 1.23l.152.001v.308h-4.58l.164-.462c1.093 0 1.44-.14 1.47-1.09l.002-.141v-6.005c0-1.028-.298-1.216-1.321-1.23l-.151-.001v-.308h8.177zm8.668 0l5.887 6.62v-4.465c0-1.328-.15-1.807-1.314-1.845l-.157-.002v-.308h3.434v.308c-1.359 0-1.463.393-1.471 1.544v7.385h-.164l-6.706-7.39v5.235c0 1.328.15 1.807 1.314 1.845l.158.002v.308h-3.434v-.308c1.415 0 1.47-.427 1.472-1.691v-5.853c-.153-.574-.733-1.015-1.342-1.071l-.13-.006v-.308h2.453zm12.43 1.847l-1.963 3.85h3.761l-1.799-3.85zM37.287 6.742c3.27.154 5.887 2.925 5.724 6.004-.164 3.08-2.78 5.697-6.215 5.697-3.434 0-6.214-2.617-6.214-5.85 0-3.16 2.655-5.732 5.981-5.847l.233-.004h.49zm-18.153 0v.308c-.982.154-1.145.308-1.145.616 0 .132 0 .377.103.541l.06.075 2.617 6.62 1.963-4.927-.328-.924c-.47-1.475-.64-1.82-1.804-1.981l-.158-.02v-.308h4.906v.308c-1.145 0-1.308.308-1.308.616 0 .132 0 .377.103.541l.06.075 2.617 6.62 2.453-6.62c.164-.154.164-.308.164-.616 0-.286-.282-.44-.977-.583l-.168-.033v-.308H31.4v.308c-.923.145-1.122.835-1.415 1.686l-.057.161-3.598 9.238h-.327l-2.78-7.082-2.78 7.082h-.327L16.518 9.36c-.466-1.17-.785-2.062-1.797-2.148l-.166-.007v-.462h4.58zm42.848.462v.308c-1.254 0-1.757.141-1.796 1.373l-.003.166v7.083c0 .875 0 1.335.834 1.381l.147.004h2.126c1.565 0 2.83-.845 3.366-2.131l.069-.178h.49l-.98 2.925h-9.814l.164-.154c1.251 0 1.755-.282 1.796-1.384l.003-.155v-7.39c0-1.179-.449-1.512-1.633-1.538l-.166-.002v-.308h5.397zm11.612-.308c3.434 0 6.868 1.232 6.868 5.696 0 4.378-4.401 5.5-6.885 5.542l-.147.001h-5.888v-.462c1.254 0 1.757-.141 1.797-1.373l.002-.166v-7.39c0-1.179-.448-1.512-1.633-1.538l-.166-.002v-.308h6.052zm-25.186 0c2.126 0 4.743.154 4.743 2.771 0 1.78-1.214 2.702-2.91 3.043l-.198.036 3.762 4.157c.29.411.71.7 1.26.867l.212.057v.154h-2.78l-4.416-4.927h-1.636v3.08c0 1.178.45 1.51 1.633 1.537l.166.002v.308h-5.56v-.308c1.254 0 1.757-.141 1.796-1.373l.003-.166v-7.39c0-1.179-.45-1.512-1.633-1.538l-.166-.002v-.308h5.724zm-11.612.462c-2.944 0-4.252 2.463-4.252 5.08 0 2.618.981 5.39 4.252 5.39s4.089-2.772 4.089-5.39c0-2.617-1.145-5.08-4.089-5.08zm36.368.146l-.225.008c-.817 0-1.308 0-1.472.308-.14.528-.16.942-.163 1.438v.255l-.164 6.775c0 .923 0 1.231 1.309 1.231 3.51 0 5.775-1.612 5.883-4.836l.004-.244v-.616c-.154-2.476-2.358-4.263-4.949-4.319h-.223zm-25.41.008c-1.09 0-1.29 0-1.307.665l-.002.105v4.157h.982c1.799 0 3.598-.616 3.598-2.618 0-1.847-1.636-2.31-3.271-2.31z" opacity=".7"/>
</svg>
