<svg xmlns="http://www.w3.org/2000/svg" width="110" height="103" viewBox="0 0 110 103">
    <g fill="none" fill-rule="evenodd" opacity=".7">
        <path fill="#1B1B1B" d="M108.046 1.448c.48 0 .639.15.639.597v98.82c0 .448-.16.597-.64.597H2.228c-.48 0-.64-.149-.64-.597V2.045c0-.448.16-.597.64-.597h105.819zm-5.735 4.927H7.82c-.959 0-1.119.148-1.119 1.044v88.819c0 .448.16.746.8.746h94.63c1.543 0 1.596 0 1.598-1.343V7.867c0-1.39 0-1.486-1.42-1.492zM74.318 60.71c1.438-3.88 5.435-6.12 9.75-5.821 4.316 0 8.153 2.836 9.112 6.866.799 3.732 0 8.36-6.714 10.897 2.877.896 5.115 2.687 6.394 5.225 1.279 2.388 1.439 5.225.32 7.912-1.439 3.88-5.595 6.12-10.71 5.821-4.476-.149-8.152-3.134-9.111-7.165-.64-2.388-.16-4.926 1.119-7.165 1.438-2.09 3.516-3.732 6.074-4.628-2.877-.746-5.275-2.985-6.394-5.672-.64-1.94-.64-4.18.16-6.27zm-41.175-1.167c4.156-4.926 9.43-5.523 16.304-4.926 4.156.448 7.993 2.09 10.87 4.926l-4.636 5.374s-.32-.747-6.234-3.284c-6.873-1.642-9.111.895-9.111.895l-.008.009c-.186.202-3.618 4.061 4.164 5.515 7.992 1.492 9.75 2.537 9.75 2.537s9.911 3.583 6.714 12.092c-3.037 8.083-11.989 8.352-12.876 8.36H14.76V54.467h8.312V84.62h7.673l3.677-4.926s4.475 4.478 10.07 4.926c5.595.448 7.353-1.493 7.353-1.493.959-.895 1.438-2.09 1.279-3.284-.16-2.388-5.915-3.731-11.83-4.776-3.516-.598-6.553-2.24-8.63-4.777 0 0-3.677-5.822.479-10.748zm34.301-4.057c1.489 0 1.591 0 1.598 1.204v33.428c0 .853 0 .893-.828.895h-.13c-1.599 0-1.599 0-1.599-1.493V59.815h-.32c-1.118 1.492-2.397 2.836-3.516 4.329-.32.447-.64 1.343-1.119 1.343-.48 0-.8-.896-1.279-1.194-.48-.448-.32-.597 0-1.045l5.755-7.165c.32-.448.799-.747 1.438-.597zm19.022 19.256c-1.758-1.045-3.836-1.045-5.594 0-.64.448-1.28.747-1.919 1.194-2.717 1.941-3.836 5.225-2.717 8.21 1.119 2.837 4.156 4.777 7.353 4.628.64 0 1.279-.15 1.918-.298 3.996-.747 6.554-4.479 5.755-8.21-.64-2.389-2.398-4.479-4.796-5.524zm2.398-15.226c-2.078-1.94-5.275-2.538-8.152-1.493-2.718.896-4.476 3.434-4.316 6.12-.64 3.583 5.435 8.957 9.91 6.12.48-.298.96-.447 1.439-.745.32-.15.48-.448.8-.598 2.876-2.537 3.036-6.717.319-9.404zm-47.25-48.338v7.016H24.032l-.16 8.658h17.584v7.165H23.872v16.57H14.76v-39.41h26.855zm17.584 0l10.07 24.033 10.39-24.033h12.468v38.96h-8.951V22.225L71.506 50.288H67.51L55.52 22.075v28.213H46.73v-39.11h12.468z"/>
    </g>
</svg>
