<svg xmlns="http://www.w3.org/2000/svg" xmlns:xlink="http://www.w3.org/1999/xlink" width="111" height="102" viewBox="0 0 111 102">
    <defs>
        <path id="a9oltrywxa" d="M1.427 0H107.50800000000001V98.896H1.427z"/>
    </defs>
    <g fill="none" fill-rule="evenodd" opacity=".7" transform="translate(.298 .186)">
        <mask id="hfzf7adbib" fill="#fff">
            <use xlink:href="#a9oltrywxa"/>
        </mask>
        <g fill="#1B1B1B" mask="url(#hfzf7adbib)">
            <path d="M90.394 0l3.16 2.946v28.777h5.886l1.269 1.183V55.08l-1.269 1.183-5.887-.001.001 39.392-3.16 2.946H17.431l-3.16-2.946-.001-39.392H9.374L8.106 55.08V32.906l1.268-1.183h4.897V2.946L17.431 0h72.963zm1.573 56.262H15.854l.001 38.778 2.233 2.082h71.648l2.233-2.082-.002-38.778zM56.31 83.019c.476 0 .952.148 1.269.444.449.418.474 1.101.475 2.545v.526c-.001 1.445-.026 2.135-.475 2.694-.278.259-.677.404-1.09.436l-.179.007h-1.586V83.02h1.586zm-9.831-.148c.476 0 .951.148 1.269.444.449.558.474 1.249.475 2.693v.526c-.001 1.445-.026 2.135-.475 2.694-.318.295-.793.443-1.269.443-.476 0-.951-.148-1.269-.443-.449-.559-.474-1.249-.475-2.694v-.527c.001-1.459.026-2.273.475-2.692.318-.296.793-.444 1.269-.444zm17.918 0l.793 2.366.793-2.366h.951l-1.268 3.252 1.427 3.4h-.952l-.951-2.66-.952 2.66h-.95l1.426-3.4-1.268-3.252h.951zm-2.061 0v.74h-1.903v2.217h1.586v.739h-1.586v2.217h1.903v.74H59.64V82.87h2.696zm-11.893 0l1.903 4.583V82.87h.793v6.652h-.793l-1.903-4.582v4.582h-.793v-6.652h.793zm-6.977 0v.74h-1.903v2.217h1.586v.739h-1.586v2.956h-.792v-6.652h2.695zm12.844.887h-.793v5.174h.793c.317 0 .476-.148.634-.295.282-.263.314-.76.317-1.905v-.46c0-1.627-.158-2.07-.317-2.218-.158-.148-.475-.296-.634-.296zm-10.624.148c-.282.263-.313.76-.317 1.905v.921c.004 1.145.035 1.642.317 1.905l.159.147c.317.148.793.148 1.11-.147.285-.267.314-.652.317-1.912v-.911c-.003-1.283-.032-1.775-.317-1.908l-.159-.148-.1-.04c-.31-.105-.724-.078-1.01.188zm20.138-23.504c.952 0 1.903.295 2.537.887.793.739 1.269 1.921 1.11 2.956.159.74 0 1.478-.317 2.07-.159.295-.476.591-.793.887.476.295.793.591.952 1.035.158.739.317 1.478.317 2.217.158 1.183-.317 2.365-1.269 3.252-1.585 1.183-3.647 1.183-5.232 0-.952-.887-1.269-2.07-1.11-3.252-.159-.74 0-1.478.317-2.217.317-.444.634-.74.951-1.035-.317-.296-.634-.592-.793-.887-.158-.74-.317-1.33-.317-2.07 0-1.035.317-2.217 1.11-2.956.793-.592 1.586-.887 2.537-.887zm-12.05 1.035c.591.69 1.045 1.508.974 2.335l-.024.178v7.243c0 .887-.317 1.774-.95 2.513-1.587 1.183-3.648 1.183-5.234 0-.592-.69-1.045-1.508-.974-2.336l.023-.177V63.95c-.159-1.035.159-1.922.951-2.513 1.586-1.183 3.647-1.183 5.233 0zm7.135-.592v13.6h-2.696V63.802l-2.22 1.478v-2.809l2.22-1.626h2.696zm-17.443-.295c1.744.147 3.172 1.626 3.013 3.4 0 .798-.257 1.716-.655 2.538l-.138.27-3.33 5.322h4.123v2.365h-7.135v-2.217l3.805-6.209c.317-.739.476-1.478.476-2.217 0-.592-.159-.887-.793-.887-.589 0-.904.255-.947.765l-.004.122v.887h-2.696v-.74c-.159-1.034.159-1.921.951-2.512.721-.538 1.573-.831 2.437-.88l.259-.007h.634zm22.358 7.834c-.158 0-.476.148-.634.296-.317.443-.317 1.035-.317 1.626s.158 1.183.317 1.626c.158.148.317.296.634.296.159 0 .476-.148.634-.296.318-.591.318-1.035.318-1.626.158-.591 0-1.035-.318-1.626-.158-.148-.317-.296-.634-.296zm-14.588-5.47c-.44 0-.743.253-.787.757l-.006.13v7.54c0 .591.317.887.793.887.44 0 .743-.252.787-.756l.006-.131V63.8c0-.59-.317-.886-.793-.886zm14.112.149c-.158.443-.158 1.034-.158 1.478 0 .443 0 1.33.317 1.626.132.123.264.144.396.147h.159c.132-.003.264-.024.396-.147.476-.444.318-1.33.318-1.626 0-.266 0-.892-.232-1.337l-.086-.141-.09-.074c-.312-.22-.731-.195-1.02.074zm6.185-21.73c-.476.59-.476 1.477-.476 2.808 0 1.33 0 2.217.476 2.809.317.443.792.59 1.427.59.475 0 .951-.147 1.268-.443.317-.443.634-1.034.634-1.478h-1.11c0 .296 0 .444-.158.591-.159.148-.317.296-.476.296-.158 0-.476-.148-.476-.296-.317-1.478-.317-2.956 0-4.434 0-.148.16-.148.318-.148s.475.148.475.295c.159.148.159.444.159.592h1.11c0-.444-.159-1.035-.634-1.33-.793-.592-1.903-.592-2.537.147zm21.723-.592h-.951v6.652h1.11v-3.991l1.744 3.991h.951v-6.652H95v3.991l-1.744-3.991zm-32.03 0h-2.854v6.652h2.854v-.887h-1.903v-1.922h1.586v-.887h-1.586v-2.07h1.903v-.886zm-40.593 0H17.62v6.652h3.013v-.887H18.73v-1.922h1.586v-.887H18.73v-2.07h1.903v-.886zm65.488 0h-1.11v6.652h1.11v-6.652zm-22.517 0h-1.268l1.268 3.252-1.427 3.4h1.269l.792-2.365.793 2.365H66.3l-1.427-3.4 1.268-3.252h-1.268l-.635 2.217-.634-2.217zm-19.186 0h-1.11l-1.745 6.652h1.11l.318-1.33h1.585l.317 1.33h1.269l-1.744-6.652zm25.846 0h-3.013v6.652h3.013v-.887h-1.903v-1.922h1.586v-.887H68.36v-2.07h1.903v-.886zm-31.555 0h-1.744v6.652h1.11v-2.809h.634l.952 2.661 1.11.148-1.11-2.956c.634-.296.792-.887.792-1.774 0-1.33-.475-1.922-1.744-1.922zm16.174 0h-2.854v6.652h2.854v-.887H52.98v-1.922h1.586v-.887H52.98v-2.07h1.903v-.886zm22.04 0h-1.11v5.026c0 .443.16.887.477 1.183.317.295.792.443 1.268.443s.951-.148 1.269-.443c.475-.296.634-.74.634-1.183v-5.026h-1.11v5.026c0 .296-.159.591-.634.74h-.159c-.285 0-.57-.24-.625-.504l-.01-.089v-5.173zm11.078.202l-.136.094-.159.147c-.444.552-.473 1.362-.475 2.549v.26c0 1.33 0 2.217.475 2.809.6.698 1.764.737 2.56.24l.136-.092.159-.148c.445-.416.473-1.351.475-2.563v-.246c0-1.33 0-2.217-.475-2.809-.6-.698-1.764-.737-2.56-.24zm-64.514-.35c-.476 0-.952.148-1.269.444-.475.295-.634.886-.634 1.33 0 1.035.317 1.33.951 1.626l.793.296c.476.148.635.443.635 1.034 0 .296 0 .592-.159.74-.159.147-.317.147-.476.147-.158 0-.317 0-.475-.147-.159-.148-.159-.444-.159-.74h-1.11c0 .444.159 1.035.476 1.479.317.295.951.443 1.427.443.476 0 .951-.148 1.427-.443.317-.148.476-.74.317-1.33 0-1.183-.158-1.479-1.11-1.922l-.793-.296c-.475-.148-.634-.296-.634-.887 0-.296 0-.444.159-.591.158-.148.317-.148.634-.148.158 0 .317 0 .476.148.158.147.158.443.158.739h1.11c0-.592-.158-1.035-.476-1.478-.317-.296-.792-.444-1.268-.444zm60.414.148h-3.489v.887h1.11v5.617h1.11v-5.617h1.269v-.887zm-54.23 0h-3.488v.887h1.11v5.617h1.11v-5.617h1.268v-.887zm6.184 0h-3.488v.887h1.11v5.617h1.11v-5.617h1.268v-.887zm13.003-.148h-1.745v6.652h1.745c.475 0 1.11-.148 1.427-.591.444-.414.473-1.214.475-2.4v-.261c0-1.33 0-2.217-.475-2.809-.318-.443-.793-.591-1.427-.591zm-34.25 0h-1.745v6.652h1.744c.476 0 .952-.148 1.427-.443.317-.296.476-.887.476-1.33 0-.444-.159-.888-.317-1.331l-.317-.296c.158 0 .317-.148.317-.295.317-.296.476-.74.317-1.183 0-.444-.159-1.035-.476-1.33-.317-.296-.951-.444-1.427-.444zm74.525.887c.159 0 .476.148.476.296.317.739.476 1.478.317 2.217.159.74 0 1.478-.317 2.217-.158.148-.317.296-.476.296-.158 0-.475-.148-.475-.296-.317-1.478-.317-2.956 0-4.434.158-.148.317-.296.475-.296zm-40.434.148c.159 0 .476.148.634.295.317.74.476 1.479.317 2.07.159.74 0 1.478-.317 2.07-.158.147-.317.295-.634.295h-.634v-4.73h.634zm-34.25 2.66c.634 0 .951.296.951 1.035 0 .74-.317 1.035-.793 1.035h-.634v-2.07h.476zm29.334-1.92l.635 2.808h-1.269l.634-2.808zm-5.074-.74c.635 0 .635.591.635 1.035 0 .59-.159 1.034-.635 1.034h-.634v-2.07h.634zm-24.26 0c.634 0 .792.295.792.887 0 .591-.317.887-.792.887h-.476v-1.774h.476zm75.289-40.15H18.086l-2.23 2.08-.001 28.165h76.113V3.558l-2.23-2.08zM71.796 18.856l.212.007c1.835 0 2.933 1.1 3.15.25l.022-.103h.317l.158 2.957h-.317c-.158-1.478-1.586-2.513-3.171-2.513-2.537 0-3.647 1.922-3.647 3.991 0 2.661 1.427 4.287 3.647 4.287 1.343 0 2.546-.655 3.343-1.594l.145-.18.159.148c-.753 1.264-2.079 1.994-3.57 2.064l-.236.006h-.475c-2.463-.144-4.477-1.958-4.594-4.363l-.005-.22v-.296c0-2.38 2.135-4.363 4.652-4.44l.21-.001zm-33.245.302l5.708 6.209v-4.14c0-1.274-.146-1.735-1.274-1.77l-.153-.003v-.296h3.33v.296c-1.37 0-1.425.409-1.427 1.618v6.956h-.159l-6.501-7.096v5.188c.015 1.152.195 1.575 1.274 1.61l.153.002v.296h-3.33v-.296c1.37 0 1.425-.409 1.427-1.618v-5.625c-.147-.55-.704-.971-1.291-1.028l-.136-.007v-.296h2.379zm20.93 0l5.709 6.209-.001-4.3c-.014-1.153-.194-1.576-1.273-1.61l-.153-.003v-.296h3.33v.296c-1.37 0-1.425.409-1.427 1.618v6.956h-.159l-6.501-7.096v5.026c0 1.275.145 1.736 1.274 1.772l.153.002v.296h-3.33v-.296c1.37 0 1.425-.409 1.427-1.618v-5.625c-.147-.55-.705-.971-1.291-1.028l-.136-.007v-.296h2.378zm-8.245-.148l3.806 7.54c.294.549.589.97 1.264 1.028l.163.006v.296h-3.964v-.296h.158c.793 0 .952-.295.952-.591-.14-.647-.4-1.293-.78-1.841l-.172-.229H48.54c-.317.592-.634 1.33-.792 2.07 0 .276.138.552.8.587l.15.004h.16v.296h-3.172v-.296c.74 0 .928-.257 1.336-.892l.091-.142 3.806-7.54h.317zm33.458-.147l.158 1.921h-.317c-.15-.977-.724-1.295-1.722-1.327l-.18-.003h-2.538c-.595 0-.632.13-.634.755v2.645h2.854c.899 0 1.09-.264 1.242-1.04l.027-.143h.317v2.957h-.317c0-.696-.281-1.13-1.108-1.178l-.161-.005h-2.854v2.809c0 .693 0 .996.522 1.031l.112.004h2.854c1.049 0 1.955-.66 2.32-1.605l.059-.17.317.149-.793 2.217h-8.404v-.296c1.057 0 1.395-.134 1.425-1.04l.002-.142v-5.765c0-.986-.287-1.167-1.274-1.182l-.153-.001v-.591h8.246zm-49.473.295v.296c-1.057 0-1.395.134-1.425 1.04l-.002.143v5.765c0 .985.287 1.166 1.274 1.181l.153.001v.296h-4.44v-.296c1.057 0 1.395-.134 1.425-1.04l.002-.142v-5.765c0-.986-.288-1.167-1.274-1.182l-.153-.001v-.296h4.44zm-5.074-.148l.158 2.07h-.317c-.15-.838-.44-1.412-1.408-1.473l-.178-.005h-2.695c-.592 0-.632.257-.634.772v2.628h2.378c.899 0 1.231-.264 1.266-1.04l.003-.143h.317v3.104h-.317c0-.834-.281-1.276-1.108-1.325l-.161-.005h-2.22v2.809c0 .985.288 1.166 1.274 1.181l.153.001v.296h-4.44v-.296c1.057 0 1.395-.134 1.425-1.04l.002-.142v-5.765c0-.986-.287-1.167-1.273-1.182l-.154-.001v-.444h7.929zm20.455 1.774l-1.903 3.696h3.647l-1.744-3.696zM44.1 6.593c3.17.148 5.708 2.66 5.55 5.617 0 2.957-2.696 5.47-5.868 5.47-3.33.148-6.025-2.365-6.025-5.47-.155-3.033 2.416-5.502 5.64-5.613l.227-.004h.476zM26.5 6.741v.296c-.952.147-1.11.295-1.11.59 0 .128 0 .363.1.52l.058.072 2.537 6.357 1.903-4.73-.317-.888c-.455-1.414-.62-1.746-1.744-1.901l-.159-.02V6.74h4.757v.296c-1.11 0-1.268.295-1.268.59 0 .128 0 .363.1.52l.058.072 2.537 6.357 2.379-6.357c.158-.148.158-.296.158-.591 0-.275-.273-.422-.947-.56l-.163-.031V6.74h3.013v.296c-.895.139-1.088.802-1.372 1.619l-.055.154-3.33 8.722h-.317l-2.696-6.8-2.695 6.8h-.317L24.12 9.106c-.45-1.117-.898-1.97-1.748-2.061l-.155-.008-.158-.296h4.44zm52.485 0c3.33 0 6.66 1.035 6.66 5.322 0 4.2-4.108 5.278-6.512 5.32l-.148.001h-5.867v-.295c1.216 0 1.703-.136 1.742-1.318l.002-.16V8.514c0-1.131-.435-1.451-1.583-1.477l-.16-.001V6.74h5.866zm-11.258.148v.295c-1.216 0-1.703.136-1.742 1.318l-.002.16V15.6c.002.75.044 1.146.8 1.19l.151.004h2.379c1.516 0 2.743-.811 3.263-2.046l.066-.171h.476l-.951 2.808h-9.514l-.159-.147c1.214 0 1.702-.271 1.742-1.33l.002-.149V8.663c0-1.132-.435-1.451-1.583-1.477l-.16-.002V6.89h5.232zm-12.83-.296c2.028.01 4.426.218 4.426 2.66 0 1.71-1.176 2.595-2.821 2.922l-.192.035 3.647 3.992c.282.394.69.671 1.222.832l.205.055.159.148h-2.696l-4.281-4.73H52.98v2.956c0 1.13.435 1.45 1.583 1.476l.161.002v.296h-5.39v-.296c1.215 0 1.702-.136 1.74-1.318l.003-.16V8.367c0-1.131-.435-1.45-1.583-1.477l-.16-.001v-.296h5.563zm-11.272.444c-2.696 0-3.964 2.217-3.964 4.878 0 2.66.951 5.174 3.964 5.174s3.964-2.661 3.964-5.174c0-2.513-1.269-4.878-3.964-4.878zm35.108.287l-.224.008c-.792 0-1.268 0-1.427.296-.136.507-.155.905-.158 1.38V15.872c.002.8.055 1.07 1.268 1.07 3.247 0 5.438-1.546 5.546-4.638l.004-.24v-.592c-.15-2.373-2.28-4.087-4.787-4.146h-.222zm-24.484.008h-.305c-.789.007-.947.067-.962.634l-.002.105v3.844h.952c1.744 0 3.488-.444 3.488-2.365 0-1.774-1.586-2.218-3.171-2.218z"/>
        </g>
    </g>
</svg>
