<svg xmlns="http://www.w3.org/2000/svg" width="106" height="101" viewBox="0 0 106 101">
    <path fill="#1B1B1B" fill-rule="evenodd" d="M85.872-.001c10.656 0 19.118 8.04 19.118 18.016v63.581c0 10.125-8.462 18.166-18.961 18.166H18.96C8.46 99.762 0 91.722 0 81.745v-63.73C0 8.04 8.462 0 18.96 0h66.912zm.157 1.489H18.96c-9.559 0-17.394 7.445-17.394 16.527v63.581c0 9.232 7.835 16.677 17.394 16.677h66.911c9.716 0 17.55-7.445 17.55-16.528v-63.73c0-9.082-7.834-16.527-17.393-16.527zM20.214 86.51c.314 0 .627.149.94.149.292.138.583.533.372.946l-.058.096c0 .149-.157.149-.313.149-.13-.124-.262-.145-.392-.148l-.705-.001c-.157 0-.314.149-.314.447 0 .149 0 .149.157.297.157.15.313.15.47.298.314.15.47.298.784.447.783.447.94 1.34.47 2.085l-.47.446c-.784.447-1.724.447-2.508 0-.313-.298-.47-.595-.313-1.042 0-.128.115-.146.247-.149h.066c.157 0 .157.149.314.149.313.149.627.149.94.149.157 0 .47-.15.47-.298 0-.149 0-.447-.313-.447l-.94-.446c-.784-.298-1.097-1.192-.627-1.936.156-.447.627-.596.94-.745.313-.446.47-.446.783-.446zm5.328.149c1.036 0 1.653.664 1.85 1.49l.03.148v.893c-.134.255-.153.401-.156.625v.12l-.025.147c-.226 1.068-1.335 1.86-2.482 1.801l-.157-.013h-.47c-.784-.149-1.567-.744-1.724-1.489-.156-.744-.156-1.34 0-2.084.293-.834.995-1.409 1.851-1.603l.186-.035h1.097zm12.066.297v.298c0 .298-.156.298-.313.298-.627.149-.94.149-1.254.149v3.574c0 .446-.156.446-.47.595h-.157c-.47 0-.47-.149-.626-.595V87.7h-.94c-.157 0-.314 0-.47-.298-.157-.298 0-.447.156-.744.157 0 .157-.15.313-.15h3.291c.314 0 .47 0 .47.447zm12.536-.297c.627 0 1.097.446 1.254 1.042.157.596-.157 1.191-.627 1.489l-.157.149c.314.595.784 1.34.94 1.936.14.264.032.411-.104.545l-.052.05h-.313c-.47 0-.627-.149-.784-.595-.157-.447-.313-.894-.47-1.192-.141-.268-.282-.294-.652-.297h-.132v1.34c0 .744-.156.744-.783.744-.431-.136-.599-.148-.624-.493l-.003-.102v-4.02c0-.41.132-.57.516-.593l.11-.003h1.881zm6.582 0c.134 0 .153.218.156.28v4.038c0 .595-.156.744-.783.744-.47 0-.94-.149-1.097-.595-.47-.894-.94-1.638-1.41-2.383v2.532c0 .148 0 .446-.157.446-.313.15-.627.15-.783 0-.135-.127-.154-.146-.157-.242v-4.225c0-.446.157-.595.627-.595h.313c.47 0 .784.149.94.595.314.745.627 1.49 1.254 2.234v-2.383c0-.149 0-.446.157-.446.313-.15.626-.15.94 0zm23.975-.15c.627 0 1.097.15 1.724.15s1.097.595 1.253 1.19c.314.894-.156 1.639-.94 1.937-.261.124-.522.248-.783.286l-.157.011h-.47v1.043c0 .558 0 .593-.517.595h-.423c-.137-.13-.275-.146-.307-.348l-.007-.098v-4.17c0-.446.157-.595.627-.595zm-9.089.15c.157.149.47.149.627.149.47.148.94.446 1.097 1.042.157.447-.157 1.191-.627 1.489l-.156.149c.47.446.783 1.19.94 1.787.143.273.024.42-.239.328l-.075-.03h-.313c-.47 0-.784-.15-.784-.447-.117-.335-.235-.587-.352-.88l-.118-.312-.051-.084c-.15-.214-.389-.322-.638-.25l-.094.037v1.489c0 .412 0 .57-.37.593l-.1.002h-.314c-.278 0-.433-.117-.464-.353l-.006-.093v-4.02c0-.41.132-.57.516-.593l.111-.003h1.41zm-30.086-.15c.585 0 .624.13.626.51v4.107c0 .446-.156.595-.626.595h-.314c-.313 0-.47-.149-.47-.446v-1.638h-1.567v1.638c0 .297-.156.446-.47.446h-.313c-.431 0-.467-.125-.47-.375v-4.24c0-.415 0-.445.376-.447h.407c.47 0 .627.149.627.595v1.191h1.567v-1.489c0-.124.109-.248.236-.372l.077-.074h.314zM29.616 87v2.934c0 .447.47.745 1.097.745.47 0 .784-.447.784-.893v-2.83c0-.297 0-.446.47-.446h.157c.587 0 .624 0 .626.49v2.637c.157 1.042-.783 1.935-1.88 2.084h-.94c-.94-.149-1.567-.893-1.567-1.638-.157-.446 0-1.042 0-1.638v-1.489c0-.297 0-.446.47-.446h.157c.587 0 .624 0 .626.49zm38.549-.64c.313 0 .47.15.47.448-.14.661-.155 1.088-.156 1.488v1.34c.156 1.043-.627 1.936-1.724 2.085h-1.097c-.784-.149-1.41-.744-1.41-1.489v-3.127c0-.446.156-.595.626-.595h.314c.313 0 .47.149.47.446v2.83c0 .406.259.689.659.849l.124.044c.434 0 .868-.254.932-.644l.008-.101v-3.126c0-.415 0-.445.377-.447h.407zm9.089.15c.885.14 1.63.808 1.846 1.63l.034.157v.595c-.134.255-.153.401-.156.625v.12l-.007.141c-.09 1.071-1.195 1.866-2.344 1.808l-.157-.014h-.627c-.783 0-1.41-.595-1.567-1.34-.156-.595-.156-1.34 0-2.084.148-.841.99-1.418 1.872-1.607l.165-.031h.94zm-31.027 0c.313 0 .313.149.313.298v.297c0 .268-.127.295-.38.298h-1.187l-.313.298v.893h1.097c.313 0 .627.15.627.447 0 .149 0 .298-.157.298-.157.149-.157.149-.314.149h-1.41v1.042h1.567c.157 0 .47 0 .47.149v.744s-.156.15-.313.15h-2.35c-.314 0-.47-.15-.47-.447v-4.17c0-.297.156-.446.47-.446h2.35zm41.212-.15c.314 0 .47.15.47.448 0 .297-.156.446-.47.446-.627.447-1.097.447-1.567.447v.893h1.41c.157 0 .314 0 .314.15v.744c0 .13-.24.146-.405.148h-1.162v1.043h1.567c.313 0 .313.149.313.447 0 .297-.156.446-.313.446h-2.507c-.314 0-.47-.149-.47-.446v-4.17c0-.446.156-.595.626-.595h2.194zm-24.445.15c.313 0 .47.149.47.446 0 .298-.157.447-.47.447-.784.298-1.254.298-1.724.298v.893h1.41c.157 0 .314 0 .314.15v.744c0 .13-.24.146-.405.148h-1.162v1.043h1.567c.313 0 .313.149.313.447 0 .297-.156.446-.313.446h-2.35c-.314 0-.47-.149-.47-.446v-4.02c0-.447.156-.596.626-.596h2.194zM23.85 88.295l-.032.15v1.34c0 .447.47.894.94.894.627.149 1.097-.149 1.253-.745 0-.148.157-.446.157-.744s-.157-.596-.157-.893c0-.447-.313-.596-.626-.745-.738-.14-1.336-.016-1.535.743zm51.711 0l-.032.15v1.34c0 .447.47.894.94.894.627.149 1.097-.149 1.254-.745 0-.297.156-.595.156-.893 0-.298-.156-.596-.156-.893 0-.298-.314-.447-.627-.596-.738-.14-1.336-.016-1.535.743zm5.855-.597l-.09.003v1.34c.314 0 .628 0 .941-.298.157-.298.157-.595 0-.893-.142-.27-.544-.172-.851-.152zm-32.585 0l-.098.003v1.042c.627 0 .94 0 1.097-.298.157-.148.157-.446 0-.595-.282-.268-.691-.174-.999-.153zm22.78-.146h-.626v1.191h.626c.285 0 .44-.246.467-.626l.003-.118-.005-.055c-.031-.157-.186-.392-.465-.392zm-15.826-6.998c.47.744.783 1.34 1.096 2.084 0 .13.12.147.15.348l.007.093v-2.227c0-.596.157-.745.784-.596.313 0 .47.149.47.447v4.318c0 .149-.157.298-.314.298-.626.148-1.253 0-1.41-.596-.313-1.042-.783-1.787-1.254-2.68v2.68c0 .298-.156.447-.47.447h-.313c-.313 0-.47-.15-.47-.447v-4.318c0-.15.157-.298.157-.298.626-.298 1.253-.149 1.567.447zm10.655-.447c.627 0 1.097.447 1.254 1.042.157.596-.157 1.192-.627 1.49l-.157.148c.314.596.784 1.191.94 1.936.145.275.023.423-.367.327l-.103-.03h-.424c-.385-.002-.529-.037-.672-.446-.118-.223-.236-.53-.353-.796l-.118-.246-.051-.085c-.15-.213-.389-.322-.638-.249l-.094.036v1.34c0 .298.157.447-.157.596-.313.149-.627.149-.94 0-.137 0-.154-.228-.156-.385v-4.082c0-.41.131-.57.515-.593l.111-.003h2.037zm-26.639.149c.157.893.47 1.638.627 2.531 0 .15 0 .298.157.447 0-.149.156-.298.156-.447.157-.893.47-1.787.627-2.531.145-.412.156-.444.526-.447h.414c.47 0 .47.15.627.447.157.893.47 1.787.627 2.68-.157.298-.157.298 0 .447.157-.894.47-1.936.627-2.83 0-.148 0-.446.313-.446h.94s.157.149.157.298v.298c-.313 1.34-.784 2.68-1.097 3.871-.145.415-.156.573-.658.593l-.125.003c-.784 0-.784 0-1.097-.745-.135-.638-.269-1.167-.502-1.774l-.125-.31-.012.073c-.036.12-.145.224-.145.224-.157.596-.313 1.34-.47 1.936-.157.447-.157.447-.627.596-.94 0-.94 0-1.253-.894-.314-1.191-.627-2.382-.94-3.722-.157-.596 0-.745.626-.745h.157c.313 0 .47 0 .47.447zm10.812.298c.314.893.784 1.638 1.254 2.233v-2.382c0-.41.132-.444.395-.447h.389c.313 0 .47.149.47.447v4.02c0 .447-.157.596-.627.596-.47.149-.94-.15-1.254-.596-.47-.893-.94-1.638-1.41-2.531v2.68c0 .149 0 .447-.313.447-.314.149-.627 0-.784-.15 0-.148-.157-.148-.157-.297v-4.17c0-.446.157-.595.627-.595h.157c.47-.149 1.097.15 1.253.745zm-3.76-.745c.47 0 .626.15.626.596v4.02c0 .447-.156.596-.626.596h-.157c-.47 0-.47-.15-.47-.447v-4.17c0-.446 0-.446.47-.595h.157zm15.67 0c.156 0 .313 0 .47.15.157.297 0 .446 0 .744-.157 0-.157.149-.314.149h-1.41v1.042h1.097c.47 0 .627.149.627.595 0 .298-.157.447-.47.447h-1.567v1.042h1.41c.47 0 .627.15.627.596 0 .298-.157.447-.47.447H60.33c-.47 0-.627-.15-.627-.596v-4.02c0-.447.157-.596.627-.596h2.194zm2.762 1.304l-.098.036v1.043c.47 0 .783 0 1.097-.298 0-.15 0-.447-.157-.596-.141-.134-.536-.268-.842-.185zm-2.762-3.835c3.917 0 7.991 0 11.909.149 2.006 0 4.037.024 6.072.052l.68.01-.954.012c-2.664.037-5.328.075-7.992.075-3.447 0-6.895 0-10.499.149h-7.992c-3.76 0-7.521 0-11.282-.15h-4.544l-21.312-.148h.784l16.297-.15h28.833zm28.474.15c-.406.002-.828.02-1.365.148-2.006 0-4.037-.024-6.072-.053l-2.375-.034 3.04-.039 3.997-.023h2.775zm-35.37-9.233h2.351c.262.004.523.025.784.149.627.149 1.097.744 1.253 1.34.157.744-.156 1.489-.783 1.936-.157 0-.157 0-.313.149.626.893 1.096 1.786 1.41 2.68.145.275.022.423-.49.678l-.137.066h-.94c-.137 0-.394-.114-.456-.242l-.014-.056-.47-1.34c-.157-.149-.157-.446-.314-.595-.143-.41-.55-.569-.859-.478l-.08.031v1.936c0 .556-.137.722-.665.742l-.12.002h-.268c-.498-.002-.652-.04-.67-.613l-.002-.131v-5.51c0-.555.137-.722.665-.742l.119-.002zm-16.923-.149c.314 0 .627.149.627.447.627 1.935 1.41 3.871 2.037 5.807.157.447 0 .595-.627.744-1.097 0-1.097 0-1.41-.893 0-.12-.1-.334-.14-.49l-.017-.106h-2.35c-.157.298-.157.745-.314 1.043 0 .268-.254.415-.533.442l-.093.004h-.94c-.157 0-.157-.297-.157-.446 0-.15.156-.298.156-.447.784-1.936 1.41-3.723 2.037-5.51.147-.555.293-.592.821-.595h.903zm26.17.149c.47.298.626.893.47 1.34 0 .149-.157.149-.314.149s-.313-.149-.313-.149c-.314-.149-.784-.298-1.097-.298-.314 0-.47.15-.627.447 0 .298 0 .447.313.596.157.148.47.297.627.297.313.15.627.298.94.447.94.596 1.254 1.936.627 2.83-.157.297-.313.446-.627.595-.627.446-1.253.595-1.88.595-.47 0-.94-.149-1.41-.297-.47-.15-.627-.447-.627-.894 0-.744.156-.893.783-.447.47.298.94.298 1.41.298s.627-.149.784-.446c.157-.298 0-.447-.47-.745-.157-.149-.47-.149-.627-.298-.313-.149-.47-.298-.783-.446-.784-.447-1.097-1.34-.94-2.085.156-.745.783-1.489 1.566-1.638.784-.149 1.41-.149 2.194.149zm10.498-.149c.314 0 .47.149.47.447v5.956c0 .298-.156.446-.47.595h-.783c-.314 0-.47-.149-.47-.595v-2.085c-.131-.248-.153-.496-.156-.744l-.001-2.978c0-.447.157-.596.627-.596h.783zm4.858 0c.94.149 1.88.893 1.88 1.936.157 1.042-.47 2.084-1.567 2.531-.235 0-.47.084-.705.126l-.235.023h-.783v1.736c-.003.34-.031.475-.37.495l-.1.002h-.784c-.279 0-.433-.117-.464-.352l-.006-.094v-5.956l.059-.105c.14-.228.293-.342.568-.342.783-.149 1.723 0 2.507 0zm-46.697 0c.47 0 .627.149.627.596v.297c0 .447-.157.596-.627.596h-1.41l-.627-.149v1.34h1.41c.784 0 .94.15.784.894 0 .297-.157.446-.47.446h-1.567c-.157.447-.157 1.043 0 1.49h2.037c.313 0 .47.148.47.446v.298c0 .556-.137.593-.537.595h-3.067c-.627 0-.784-.148-.784-.744v-5.36c0-.596.157-.745.784-.745h2.977zm34.474-.149c.314 0 .47.15.47.447v2.084h2.194v-1.935c0-.447.157-.596.47-.596h.627c.434 0 .467.127.47.498v5.756c0 .447-.157.596-.627.596h-.626c-.314 0-.47-.15-.47-.596v-2.234l-2.038.15v1.935c0 .745-.156.893-.94.893h-.313c-.434 0-.468-.126-.47-.497v-5.905c0-.447.156-.447.47-.596h.783zm-25.229.15c.94 0 2.037 0 2.978.148 1.41.149 2.35 1.191 2.507 2.382 0 .745 0 1.34-.157 1.936-.3 1.282-1.316 2.155-2.638 2.229l-.182.005h-2.35c-.432 0-.6-.126-.624-.49l-.004-.106v-5.658c0-.298.157-.447.47-.447zm-16.767-.299c.434 0 .468.127.47.498v3.076c.157.893.157 1.489.157 2.084h2.037c.314.15.314.447.314.894 0 .265-.124.412-.372.441l-.1.006h-2.976c-.47 0-.783-.15-.783-.745v-5.658c0-.298.156-.447.47-.596h.783zm27.58.15c.313 0 .47.148.47.297v.298c0 .446-.157.595-.627.595-.94.298-1.724.298-2.35.298v1.34h1.88c.137 0 .394.114.456.243l.014.055v.298c0 .447-.157.595-.627.595h-1.567v1.49h2.037c.314 0 .47.148.627.446v.298c0 .41-.132.444-.395.446h-3.209c-.47 0-.627-.148-.627-.595v-5.51c0-.446.157-.595.627-.595h3.29zm-9.559 1.488v4.17h.94c.627 0 1.254-.596 1.41-1.192.157-.595.157-1.191.157-1.787-.156-.446-.627-.893-1.097-1.042-.47-.149-.94-.149-1.41-.149zm-5.955.745h-.156c-.13.496-.37.992-.537 1.575l-.09.36h1.41l-.627-1.935zm40.86-.779l-.117.034v1.787c.783.149 1.253 0 1.41-.298.157-.298.157-.744-.157-1.191-.287-.41-.706-.444-1.136-.332zm-22.078.128l-.134.055v1.49c.313 0 .627-.15.94-.15.313-.149.627-.447.627-.595 0-.447-.314-.745-.627-.745-.269-.128-.537-.146-.806-.055zM41.84 59.26c.783 0 1.566.597 1.723 1.341.313.745 0 1.638-.784 2.085l-.156.149c.47.744.94 1.637 1.253 2.53.145.276.023.424-.367.913l-.103.13-.156.02c-.942.112-.964-.065-1.41-.913-.158-.447-.47-.894-.628-1.34-.145-.415-.29-.573-.813-.474l-.127.027v2.085c0 .264-.124.411-.371.44l-.099.006h-.94l-.059-.013c-.115-.05-.22-.237-.248-.372l-.007-.061v-6.105c0-.298.157-.447.47-.447.94-.149 1.881 0 2.821 0zm20.057 0c.783.15 1.41.745 1.567 1.49.146.834-.117 1.538-.79 1.991l-.15.094.171.252c.211.32.361.581.612.939.314.446.47.893.627 1.34.147.28.156.56-.627.717l-.156.027h-.158c-.955-.002-1.112-.044-1.41-.893-.156-.447-.47-.893-.626-1.34-.144-.41-.42-.569-.826-.478l-.115.031v2.183c-.002.34-.03.475-.37.495l-.1.002h-.783l-.059-.013c-.115-.05-.22-.237-.247-.371l-.008-.062v-5.807c0-.41.132-.57.516-.593l.111-.003h2.82zm19.588 0c.47 0 .626.15.626.597v.297c0 .447-.156.596-.626.596h-1.41c-.314-.298-.47-.298-.784-.298v1.34h1.723c.314 0 .47.15.47.447v.298c0 .595-.156.744-.626.744H79.29v1.49h2.194c.47 0 .47.148.626.446v.298c0 .446-.156.595-.626.595h-2.978c-.627 0-.783-.149-.783-.744v-5.36c0-.596.156-.745.783-.745h2.978zm-52.652-.148c.157 0 .157 0 .313.149.585.139.897.797.809 1.247l-.025.093c-.157.298-.314.298-.47.149-.157 0-.157-.149-.314-.149-.313-.149-.626-.298-.94-.298-.627-.149-1.097.298-1.41.745-.47.893-.47 1.787 0 2.68.313.596 1.097 1.042 1.88.744.314-.148.627-.148.784-.297.313-.15.627-.15.627.297 0 .745 0 1.043-.784 1.34-.627.15-1.097.15-1.567.298-1.567 0-2.977-1.042-3.134-2.531-.157-.893-.157-1.787.157-2.68.627-1.638 2.507-2.383 4.074-1.787zm24.915-.298c.627 0 1.097 0 1.567.15.94.297 1.88 1.041 2.038 1.935.156.893.156 1.787-.157 2.68-.157 1.34-1.41 2.382-2.82 2.382-.47 0-1.098 0-1.568-.148-1.097-.298-1.88-1.192-2.037-2.234-.134-.383-.153-.656-.156-1.008v-.183c0-.447 0-.745.156-1.191.314-1.34 1.567-2.383 2.977-2.383zm22.409.298c.47 0 .626.149.626.596v.297c0 .413-.133.444-.523.447h-1.357v4.765c0 .596-.157.596-.783.744h-.157c-.784 0-.94-.148-.94-.893v-4.02l.156-.596h-1.253c-.47 0-.627-.149-.627-.447v-.297c0-.447.157-.596.627-.596h4.23zm-42.466-.298c.627 0 1.097 0 1.567.15.94.148 1.88.893 2.037 1.935.157.893.157 1.936.157 2.68-.157 1.34-1.41 2.382-2.821 2.382-.627 0-1.097 0-1.567-.148-1.254-.15-2.037-1.043-2.194-2.234-.134-.383-.153-.656-.156-1.008v-.183c0-.298 0-.745.156-1.191.157-1.34 1.41-2.383 2.82-2.383zm34.63.15c.314 0 .627.148.627.446.627 1.936 1.41 3.871 2.038 5.807.146.556.02.723-.38.621l-.09-.025h-.627c-.314 0-.627-.15-.627-.447 0-.255-.115-.51-.247-.86l-.067-.182h-2.35c-.157.297-.157.744-.313 1.042 0 .268-.254.415-.534.442l-.093.005h-.627c-.47 0-.627-.15-.47-.596.157-.149.157-.149.157-.298.783-1.787 1.41-3.573 2.037-5.36.146-.556.156-.593.666-.596h.9zm-20.527 0c.313 0 .783.148 1.097.297.627.298 1.097.893 1.097 1.638 0 .298 0 .595-.157.893-.296.985-1.151 1.703-2.17 1.78l-.18.007h-.94l-.001 1.59c-.002.48-.04.626-.653.642l-.13.002h-.314c-.285-.136-.44-.148-.466-.485l-.004-.111v-5.51c0-.555.137-.722.665-.742l.119-.002h2.037zm-15.357 2.53c0 .298-.157.745-.157 1.043 0 .298.157.744.157 1.042 0 .447.314.745.627.893.157.15.157.15.313.15.784.297 1.724-.15 2.037-.894.314-.893.314-1.787 0-2.531-.156-.298-.47-.596-.783-.745 0-.149-.157-.149-.313-.149-.94-.149-1.724.447-1.88 1.191zm20.215-.148c0 .297-.157.744-.157 1.042 0 .298.157.744.157 1.042.156.298.313.745.626.894 0 .148 0 .148.157.148.784.447 1.724 0 2.037-.744.314-.893.314-1.787 0-2.68 0-.298-.313-.596-.627-.745 0-.149-.156-.149-.313-.149-.94-.149-1.724.447-1.88 1.192zm15.043-.298h-.157l-.627 1.935h1.41l-.626-1.935zm-20.88-.599l-.118.003v1.787c.47 0 .94.149 1.254-.298.313-.298.313-.744 0-1.191-.288-.41-.707-.319-1.137-.3zm14.612-.146h-.94v1.638c.313 0 .626-.149.94-.149.313 0 .627-.446.627-.893 0-.298-.314-.596-.627-.596zm-20.058 0h-.94v1.49c.313.148.627.148.94 0 .313 0 .47-.447.627-.894 0-.298-.314-.596-.627-.596zm-15.513-9.976c.313 0 .47.149.47.298v.446c0 .447-.157.596-.627.596-.47-.149-.784-.149-1.254-.149v4.914c0 .595-.156.595-.626.744h-.157c-.784 0-.94-.149-.94-.744v-4.616h-1.254c-.627 0-.783-.149-.783-.745v-.446l.235-.224.079-.074h4.857zm18.177-.298c.14 0 .402.118.46.353l.01.094v5.807c0 .596-.157.744-.783.744h-.314c-.627 0-.783-.148-.783-.744v-2.085h-2.194v2.383c0 .446-.157.446-.47.595h-.784c-.434 0-.467-.127-.47-.497v-5.757c0-.446.157-.595.47-.595h.784c.313 0 .47.149.47.447v1.786h2.194v-2.084c0-.298.156-.447.47-.447h.94zm24.445 0c.47 0 1.097 0 1.724.149.784.149 1.41.744 1.724 1.489.47 1.042.47 2.382.156 3.723-.47 1.042-1.567 1.786-2.663 1.786-.627 0-1.254 0-1.88-.149-.784-.148-1.411-.744-1.725-1.489-.156-.595-.313-1.19-.313-1.786 0-.447 0-.745.157-1.192.156-1.489 1.41-2.382 2.82-2.53zm-31.497.149s.157 0 .157.149c.627.298.784.893.47 1.489 0 .134-.254.268-.419.185l-.05-.036c-.158 0-.158-.15-.314-.15-.157-.148-.47-.297-.627-.297-.737-.28-1.475-.033-1.82.618l-.06.127c-.314.744-.314 1.638 0 2.382.292.695.994 1 1.723.917l.157-.024c.313-.148.627-.148.783-.297.47-.15.627-.15.627.297 0 .745 0 1.043-.783 1.34-.784.298-1.724.298-2.664 0-.784-.297-1.254-.744-1.567-1.488-.157-.596-.157-1.192-.157-1.787 0-.596.157-1.191.314-1.787.783-1.49 2.663-2.234 4.23-1.638zm19.275-.149c.47 0 1.097 0 1.567.149.783.149 1.41.744 1.723 1.489.47 1.042.314 2.382.157 3.574-.47 1.042-1.567 1.786-2.664 1.786-.627 0-1.253 0-1.88-.148-.784-.15-1.41-.745-1.724-1.49-.157-.595-.313-1.19-.313-1.786 0-.298 0-.745.156-1.191.314-1.34 1.567-2.383 2.978-2.383zm5.64 0c.784 0 .941.149.941.893v4.02l-.157.596h1.724c.47 0 .627.15.627.596v.447c0 .298-.157.446-.47.446h-2.82c-.47 0-.628-.148-.628-.595v-5.658c0-.596.157-.596.627-.745h.157zm-30.87.149c.432 0 .468.125.47.375v.37c0 .412-.133.444-.523.446h-2.14v1.34H30.4c.313 0 .47 0 .627.298.157.298.157.596 0 .894-.13.124-.261.144-.392.148h-1.802v1.49h2.194c.313 0 .47 0 .47.446v.447c0 .447-.157.595-.627.595h-2.977c-.627 0-.784-.148-.784-.744v-5.36c0-.596.157-.745.784-.745h3.134zm45.287-.447c.784 0 1.41 0 2.194.298.588.14.9.672.679 1.229l-.052.111c-.157.298-.157.298-.47.15-.157 0-.157-.15-.313-.15-.627-.298-1.254-.447-1.88-.298-.628 0-1.098.447-1.411.894-.47.744-.47 1.638 0 2.382.47 1.191 1.567 1.49 2.507 1.043v-1.34h-.784c-.47 0-.626-.15-.626-.596v-.298c0-.298.156-.447.47-.447h2.037c.47 0 .627.15.627.596v2.68c0 .298-.157.447-.47.596-1.097.446-2.194.446-3.291.149-1.254-.298-2.194-1.192-2.35-2.383-.157-.744-.157-1.489 0-2.084.313-1.49 1.723-2.383 3.133-2.532zm-28.52.298c.314 0 .628.298.784.596.47 1.042 1.097 1.935 1.567 2.978 0 .149 0 .298.157.298v-3.127c0-.596.157-.745.784-.745h.313c.47 0 .627.149.627.596v5.509c0 .596-.157.745-.784.745-.783.148-1.41-.298-1.723-.894-.47-1.042-1.254-2.084-1.88-3.276v3.574c0 .447-.158.596-.628.596h-.156c-.627 0-.784-.15-.784-.745v-5.658c0-.298.314-.447.47-.447h1.254zm34.632.745c0 .536.127 1.072.495 1.5l.132.138c.156-.298.313-.745.47-1.043.156-.298.313-.744.47-1.042 0-.149.156-.298.313-.298.47-.149.94-.149 1.41 0 .14 0 .279.118.198.248l-.04.05c0 .149-.158.298-.158.447-.47 1.042-.94 1.935-1.567 2.978-.156.297-.313.595-.156.893v1.638c0 .447-.157.447-.47.596h-.784c-.313 0-.47-.15-.47-.447v-1.787c0-.298 0-.447-.157-.744-.47-1.043-1.097-2.085-1.567-3.127-.313-.596-.156-.745.47-.894.94 0 .94 0 1.41.894zm-27.423 1.638c-.313.744-.313 1.637 0 2.382.157.298.313.596.627.744.157.15.157.15.313.15.784.148 1.567-.298 1.88-1.043.157-.447.157-.744.157-1.191v-.183c-.003-.352-.022-.626-.156-1.008 0-.298-.314-.596-.627-.745-.157-.149-.157-.149-.314-.149-.783-.149-1.723.298-1.88 1.043zm12.38-.15c-.314.894-.157 1.639 0 2.383.156.298.313.596.626.745.157 0 .157.148.314.148.94.298 1.723-.148 2.037-.893 0-.447.156-.744.156-1.191 0-.298 0-.745-.156-1.191-.157-.447-.47-.745-.784-.894-.156-.149-.156-.149-.313-.149-.784-.149-1.724.298-1.88 1.043zm-9.403-10.87c.47.299.784.894.47 1.341-.13.124-.26.145-.391.148h-.079c-.313-.148-.47-.297-.783-.297h-.784c-.156 0-.47.149-.47.447 0 .149 0 .446.157.446.157.15.47.298.627.298.313.15.783.298 1.097.447 1.097.596 1.41 1.936.626 2.83-.156.297-.313.446-.626.595-.47.297-1.097.446-1.724.446-.47 0-.94-.149-1.41-.297-.47-.15-.784-.596-.627-.894 0-.744.157-.893.783-.447.47.298.94.298 1.567.298.314 0 .627-.149.627-.446 0-.298 0-.596-.313-.745-.314-.149-.47-.298-.784-.298l-.94-.446c-.627-.447-1.097-1.192-.783-2.085.156-.745.626-1.34 1.41-1.489.783-.298 1.567-.149 2.35.149zm6.268-.446c.47 0 .627.15.627.596v.298c0 .412-.133.444-.524.446h-1.356v4.765c0 .596-.157.596-.627.745h-.157c-.783 0-.94-.15-.94-.894v-4.02c-.157 0-.157-.149-.157-.447H59.86c-.47 0-.627-.149-.627-.595v-.298c0-.447.157-.596.627-.596h4.387zm-18.804.15c.314 0 .47.148.627.148.314 0 .627.149.94.447.784.595.784 1.786 0 2.382-.156 0-.156.149-.156.149.47.298.783.744.94 1.34.157.745-.314 1.49-.784 1.787-.403.255-.806.401-1.209.437l-.201.01h-2.35c-.431 0-.599-.126-.624-.49l-.003-.106v-5.51c0-.409.131-.568.515-.592l.111-.003h2.194zm7.365-.15c.47 0 .627.15.627.596v.298c0 .297-.157.446-.47.446h-1.567c-.47.15-.627.15-.784.15v1.19h1.88c.314 0 .47.15.47.447v.298c0 .447-.156.595-.626.595h-1.567v1.49h2.037c.47 0 .627.148.627.595v.149c0 .447-.157.596-.627.596h-2.977c-.627 0-.784-.15-.784-.745v-5.36c0-.596.157-.745.784-.745h2.977zm-7.208 4.02h-1.254v1.49h1.097c.314 0 .627-.298.627-.596s-.157-.596-.47-.894zm-1.276-2.586l-.134.055v1.34h.94c.313-.149.47-.446.47-.744s-.157-.596-.47-.596c-.269-.127-.537-.146-.806-.055zm18.513-3.965c3.918 0 7.992 0 11.91.149 2.005 0 4.036.024 6.072.052l.68.01-4.95.063c-1.333.014-2.664.024-3.996.024-3.448 0-6.895 0-10.5.149h-7.991c-3.761 0-7.522 0-11.283-.15h-4.544l-21.311-.148h.783l16.297-.15h28.833zm28.417.15c-.502.002-.905.02-1.308.148-2.005 0-4.036-.024-6.072-.053l-2.374-.034 3.04-.039 3.996-.023h2.718zm-63.048-21.74c1.097.297 2.037.893 2.82 1.786 1.568 1.49 2.038 3.574 1.568 5.51-.47 1.786-2.194 2.977-4.231 2.68-.47 0-1.097-.15-1.567-.298-1.097-.298-1.724-1.34-1.724-2.383v-1.042c.314-1.191 1.41-2.233 2.664-2.233l.627-.298c-.157-.15-.157-.298-.314-.298-1.096-.893-2.35-1.191-3.76-.893-.94.148-1.724.595-2.194 1.34-.627.744-.94 1.638-1.097 2.531-.47 2.234-.47 4.616.157 6.85.156.446.313 1.042.626 1.488.47.894 1.41 1.34 2.508 1.49.47.148 1.097 0 1.567 0 .94-.298 1.723-.894 2.037-1.638.313-.596.47-1.192.627-1.936 1.41-.15 2.82-.15 4.23 0v.149c0 1.638-.626 3.276-1.723 4.467-.94 1.042-2.194 1.787-3.448 2.084-2.82.745-5.954.745-8.618-.297-2.507-.894-4.545-2.83-5.328-5.36-.784-2.383-.94-4.915-.313-7.297.783-2.978 2.977-5.36 5.954-6.403 2.82-1.042 6.112-1.042 8.932 0zm49.518 7.444c.94.447 1.723 1.043 2.194 1.936-.47.298-.784.447-1.254.745-.47.297-.784.446-1.254.595l-.47-.447c-1.567-1.19-3.917-1.19-5.328 0-1.097 1.192-1.41 2.68-.94 4.02.47 1.34 1.724 2.085 3.134 2.085 1.254.15 2.664-.297 3.448-1.19h.156l2.35 1.488c0 .149-.156.149-.156.298-1.097 1.191-2.664 1.936-4.23 2.085-1.254.148-2.351 0-3.605-.298-2.35-.745-4.074-2.68-4.388-5.063-.47-3.276 2.038-6.403 5.642-6.85 1.567-.297 3.29 0 4.7.596zm-13.477 8.339c.94 0 1.724.744 1.724 1.638 0 .893-.783 1.638-1.724 1.638-.94 0-1.723-.745-1.723-1.638 0-.894.783-1.638 1.723-1.638zm23.035-8.934c3.605 0 6.582 2.829 6.425 6.105 0 3.275-2.82 6.105-6.425 6.105-3.447 0-6.424-2.68-6.424-6.105 0-3.276 2.82-6.105 6.424-6.105zM45.443 8.039c.784.149 1.567.447 2.194.894 1.254.744 1.88 2.084 1.724 3.424-.157 1.34-1.097 2.532-2.35 2.83-1.568.446-3.135-.447-3.605-1.936-.157-.298-.157-.745-.157-1.192 0-.744.627-1.34 1.254-1.489h.47c-.627-.148-1.253-.297-1.88-.148-.627 0-1.254.446-1.567 1.19-.157.447-.314.894-.314 1.34v4.021h3.448c.156 1.042.156 2.234 0 3.276h-2.194c-.627 0-1.254.447-1.41 1.042v10.126c0 .595.626 1.042 1.097 1.042h2.193c.157 1.042.157 2.233 0 3.276-.313.149-13.32.149-13.79 0l.157-.15c1.41-1.19 2.35-2.68 2.664-4.466.157-.894.314-1.787.314-2.532v-12.21c0-1.19 0-2.382.313-3.424 0-.149.157-.447.157-.596.627-2.382 2.82-4.318 5.328-4.616 2.193-.297 4.074-.297 5.954.298zm11.91 8.934v14.444c0 .595.47 1.19 1.253 1.19h2.037v3.128H46.54c-.156-1.043-.156-2.234 0-3.276h2.194c.585 0 1.17-.39 1.245-.925l.009-.117V21.44c0-.595-.627-1.191-1.254-1.191H46.54v-3.276c.314-.149 10.186-.149 10.813 0zm27.422 10.572c-.47.596-.783 1.49-.783 2.383 0 .148.156.446.156.744.157 1.34 1.41 2.382 2.821 2.531 1.567.298 2.977-.595 3.447-1.935.314-.745.314-1.34.157-2.085 0-1.191-.94-2.233-2.194-2.531-1.41-.447-2.82-.15-3.604.893zM76 10.422c.783.148 1.567.595 1.88 1.19.275.522.429 1.157.463 1.707l.008.23v1.042c0 .744-.157 1.489-.314 2.233 0 .15 0 .447-.157.596-.313 1.191-1.41 1.936-2.664 1.936-.47 0-.783 0-1.253-.15-.784-.148-1.41-.595-1.724-1.34-.313-.446-.313-.893-.47-1.34-.157-1.34-.157-2.68.157-3.87 0-.299.156-.448.156-.597.314-1.042 1.41-1.786 2.664-1.786.47 0 .784 0 1.254.149zm14.26-.15c1.253.15 2.35.894 2.507 2.085.157.745.313 1.787.157 2.532 0 .595-.157 1.19-.314 1.786-.47 1.787-2.35 2.83-4.23 2.532-.47-.15-.784-.15-1.098-.298-.282 0-.437-.241-.465-.507l-.005-.089v-.744c.157-.298.314-.298.627-.298.157 0 .47.149.627.149.157.149.313.149.47.149 1.254 0 2.037-.447 2.194-1.787-.47.298-1.097.298-1.724.298-1.253.149-2.35-.745-2.507-1.936 0-.596 0-1.191.157-1.787.299-1.137 1.455-2.003 2.65-2.079l.17-.005h.784zm-22.095.298c1.567-.148 2.35.894 2.35 2.085 0 .745-.156 1.49-.783 2.085-.47.595-1.097 1.19-1.567 1.786-.157.298-.47.447-.627.894h2.507c.627 0 .784.149.784.744v.596c0 .412-.134.444-.524.446h-4.96c-.627 0-.784-.148-.784-.744 0-.447.157-1.042.47-1.34.47-.596 1.097-1.042 1.567-1.638.313-.298.627-.744.94-1.191.157-.298.314-.596.314-.893.156-.447-.157-.894-.627-1.043h-.47c-.314 0-.627.15-.94.298-.157 0-.157.149-.314.149-.627.298-.94.298-.94-.447 0-.893.157-1.19.94-1.489.784-.298 1.724-.446 2.664-.298zm15.357-.148c.156 0 .156.148.313.297v6.7h.94c.47 0 .627.15.784.596v.298c0 .596-.157.745-.784.745h-4.23c-.47 0-.627-.15-.627-.596v-.298c0-.595.156-.744.783-.744h.94v-4.914c-.313.15-.627.298-.94.447-.783.447-.94.298-.94-.447 0-.447.157-.744.627-1.042l1.41-.894c.47-.297 1.254-.297 1.724-.148zm-9.089 2.084c-.157.15-.313.447-.313.596 0 .595-.157 1.191-.157 1.638.157.595.157 1.042.157 1.489 0 .297 0 .595.156.893.157.298.47.447.784.447.313 0 .627-.15.783-.447 0-.298.157-.447.157-.744.157-1.043.157-2.085 0-3.127 0-.298 0-.596-.157-.894 0-.149-.156-.149-.313-.298-.47-.148-.94-.148-1.097.447zM53.592 8.188c2.037 0 3.76 1.638 3.76 3.574 0 1.935-1.566 3.573-3.604 3.573h-.156c-2.037 0-3.761-1.638-3.761-3.573 0-1.936 1.724-3.574 3.76-3.574zm36.198 3.723c-.428 0-.855.246-1.047.626l-.05.118v1.042c.156.298.313.596.627.596.47 0 .783 0 1.096-.149.314-.149.314-.149.314-.744-.157-.15-.157-.298-.157-.596-.157 0-.157-.149-.157-.298 0-.298-.313-.595-.626-.595z" opacity=".7"/>
</svg>
