<svg xmlns="http://www.w3.org/2000/svg" xmlns:xlink="http://www.w3.org/1999/xlink" width="119" height="101" viewBox="0 0 119 101">
    <defs>
        <path id="62d0vu7g3a" d="M1.557 0H35.112V3.636H1.557z"/>
        <path id="3hezeejw6c" d="M1.557 0H26.982999999999997V3.788H1.557z"/>
    </defs>
    <g fill="none" fill-rule="evenodd" opacity=".7">
        <g>
            <path fill="#1B1B1B" d="M103.606 75.523v24.394H1.556V75.523h102.05zM67.283 65.302v7.121H39.782v-7.121h27.501zm8.392 1.76v.152h-.173c-.173 0-.346 0-.346.152v3.03c.173 0 .346.151.346.151h.173v.152H73.6c.144 0 .288 0 .432-.088l.087-.064h.173v-2.424c-.173.152-.52.91-1.211 2.273l-.346.606h-.173c-.173-.455-.692-1.364-1.384-2.879V70.7l.173.151c.173 0 .173 0 .346.152h.173v.151h-1.73V70.7c.173 0 .346 0 .52-.152 0 0 .172 0 .172-.151v-2.879l-.173-.151c0 .151-.173.151-.519.151v-.303h1.557c0 .152.173.455.346.606.346.758.692 1.364.865 1.818l.692-1.363c.173-.152.173-.455.346-.606.173-.152.173-.303.173-.606h1.556zm19.718.304v.151h-.173c-.173 0-.346 0-.519.152v3.03c.173 0 .346.151.346.151h.173v.152h-2.075v-.303c.26 0 .421-.085.486-.128l.033-.024h.173V67.67c-.173 0-.346-.152-.52-.152h-.172c-.173.152-.52.606-1.038 1.212-.692.91-1.21 1.515-1.384 1.667h1.73l.173-.152c.173-.151.173-.303.173-.454h.173l-.173.606v.454h-3.114v-.303l1.557-1.97.692-.908h-1.557s-.173 0-.173.151c0 .152-.173.303-.173.303v-.757h5.362zm-43.877-.244h-.173c-.346.757-.692 1.363-.865 1.818-.346.606-.692.909-.692 1.06l-.173.152-.064.056c-.09.076-.122.092-.206.095h-.076l-.086-.09c-.094-.122-.121-.243-.26-.364-.173-.303-.346-.606-.519-.758.173 0 .173-.151.346-.151 0-.152.173-.152.173-.303.148-.13.17-.26.173-.39v-.13c-.003-.13-.025-.26-.173-.39 0-.15-.173-.302-.346-.302-.302-.133-.473-.15-.626-.151h-2.141v.15h.519v2.728c-.144.126-.289.147-.433.15l-.086.001v.303h2.075v-.151c-.307-.135-.478-.15-.512-.151h-.006v-1.061h.345c.303.53.606.944.793 1.344l.072.171h1.384v-.152c-.13 0-.26-.085-.39-.127l-.129-.024h1.21v-.152c-.147-.13-.169-.148-.28-.15l-.065-.001V70l.086-.106c.075-.128.108-.293.189-.416l.07-.084h1.385l.34.596.005.01v.151l-.064.057c-.09.076-.121.092-.206.095h-.075v.152h1.556v.303h1.557v-.152h-.173c-.148-.13-.17-.148-.281-.15l-.065-.001v-2.273l1.557 1.667 1.037 1.06c0-.13.128-.148.164-.15l.01-.001v-3.03c.148-.13.169-.149.28-.151h.238v-.152h-1.383v.151h.519l.172.152v1.666c-.976-1.14-1.647-1.744-1.866-2.064l-.036-.057h-1.384v.152c.173 0 .346 0 0 .151l.173.152v2.424l-.064.056c-.09.076-.121.092-.206.095h-.249l-.086-.015c-.094-.04-.121-.136-.26-.136-.173 0-.173-.152-.173-.152l-.519-.909c-.518-.909-.864-1.666-1.037-1.97zm35.748.092c.173.455.519 1.06 1.038 2.121.346.606.519.91.519 1.06 0 0 0 .152.173.152s.173.152.345.152v.151h-1.73V70.7c.152 0 .304 0 .339-.102l.008-.05v-.303l-.346-.606h-1.384c-.138.243-.166.388-.26.592l-.086.166v.151c.173 0 .346 0 .346.152v.151h-1.384V70.7c.173 0 .173 0 .346-.152 0 0 .173 0 .173-.151 0-.152.346-.455.692-1.212.173-.455.519-1.06 1.038-1.97h.173zm12.972 0v.152h3.114v.909h-.173v-.152c0-.151-.173-.303-.173-.454h-1.384v1.212h1.038c.173-.152.173-.303.173-.455h.173v1.212h-.173c0-.151 0-.303-.173-.454h-1.038v1.363h1.21s.174 0 .174-.151c.173-.152.346-.303.346-.455h.173c-.173.303-.173.606-.346.91H99.89v-.304c.173 0 .346 0 .52-.151 0 0 .126-.111.163-.239l.01-.064v-2.424s0-.152-.174-.152h-.346v-.151c-.173 0-.346 0-.346.151v3.03c-.173 0-.173 0-.173.152l-1.037-1.212-1.557-1.667v2.424c.173 0 .346 0 .346.152h.173v.151H96.43V67.66c-.003-.032-.024-.143-.172-.143h-.692v-.151h1.557c.173.303.865 1.06 2.075 2.272v-1.97l-.173-.15c-.172 0-.345 0-.518-.152v-.152h1.73zm-22.14 0c.174.455.52 1.06 1.039 2.121.346.606.518.91.518 1.06 0 0 0 .152.173.152s.173.152.346.152v.151h-1.73V70.7c.152 0 .303 0 .339-.102l.008-.05v-.303l-.346-.606h-1.384c-.138.243-.166.388-.26.592l-.086.166v.151c.173 0 .346 0 .346.152v.151h-1.384V70.7c.173 0 .173 0 .346-.152 0 0 .173 0 .173-.151 0-.152.346-.455.692-1.212.173-.455.519-1.06 1.038-1.97h.173zm6.573.152v1.06h-.345c0-.151-.173-.454-.173-.606l-.346-.303c-.173 0-.346-.151-.692-.151s-.52 0-.865.151l-.519.455c-.173.303-.173.606-.173.757 0 .455.173.758.346 1.06.346.304.692.455 1.038.304.173 0 .519 0 .692-.152v-.606c-.173 0-.173 0-.346-.151h-.173v-.152h1.902v.152c-.173 0-.346 0-.519.151V70.7h-.345c-.346 0-.692.151-.865.151h-.52c-.345 0-.691 0-1.037-.151-.346-.152-.519-.303-.692-.606-.173-.303-.346-.606-.346-.91 0-.605.346-1.211.865-1.514.519-.303 1.038-.455 1.557-.455.519 0 1.038 0 1.556.152zm-58.416-.503c.345 0 .518 0 .864.151.173.152.346.303.346.606 0 .152-.173.455-.346.606-.173.152-.346.303-.692.303.173 0 .346 0 .52.152.172 0 .345.151.345.303 0 .151.173.303.173.454 0 .152 0 .455-.173.606l-.519.455c-.346.151-.691.151-1.037.151h-1.73v-.454l.52-.152h.172v-2.878h-.173s-.173-.152-.519-.152v-.151h2.249zm17.964.41h-2.041v.152h1.037v2.727h-.173l-.518.151v.303h1.695c.26-.003.43-.021.726-.151.173 0 .346-.152.519-.303.173-.152.173-.303.173-.455 0-.151-.173-.303-.173-.454-.173-.152-.173-.303-.346-.303-.173-.152-.346-.152-.519-.152.173-.151.346-.151.519-.303.173 0 .173-.303.173-.454 0-.303-.173-.455-.346-.606-.247-.108-.406-.14-.603-.148l-.123-.003zm19.925-.302h-.173c-.346 0-.692.15-1.038.302-.173.303-.346.455-.346.758 0 .151 0 .303.173.454.173.152.346.303.692.455.173.151.346.151.52.303 0 0 .126 0 .162.095l.01.056v.31c-.003.031-.022.164-.173.296-.144.127-.288.148-.432.151h-.173c-.144-.003-.289-.024-.433-.15 0-.122-.11-.34-.155-.5l-.018-.107h-.173v1.061c.145.126.289.147.433.15l.086.001h.686c.429-.003.736-.033 1.044-.303.173-.151.346-.454.346-.757s0-.455-.173-.606c-.173-.152-.346-.303-.692-.455-.346 0-.519-.151-.692-.303-.173-.151-.173-.151-.173-.303 0-.151 0-.151.173-.303 0-.151.173-.151.346-.151s.346 0 .519.151c.148.13.296.371.336.533l.01.073h.346c0-.134-.137-.508-.167-.59l-.006-.016v-.454c-.23-.101-.461-.135-.692-.146l-.173-.005zm-42.56-.108c.52 0 1.038.151 1.557.454.346.303.519.758.519 1.212 0 .303 0 .606-.173.91-.173.15-.173.454-.519.605-.173.152-.346.303-.519.303-.346.152-.692.152-1.037.152-1.038.151-1.903-.606-2.076-1.515.173-.152.173-.152.173-.303 0-.455.173-1.06.519-1.364.519-.303 1.038-.606 1.556-.454zm13.146 0v.151c-.173 0-.346 0-.692.152l-.173.151v2.727h1.384c.173 0 .173-.151.173-.151.173-.152.346-.303.346-.455h.345c-.172.303-.172.606-.345 1.06h-3.46v-.302c.173 0 .346 0 .52-.152v-3.03h-.347v-.151h2.249zm-16.95 0v.151c-.174 0-.347 0-.693.152l-.173.151v2.727h1.384c.173 0 .173-.151.173-.151.173-.152.346-.303.346-.455h.173c-.173.303-.173.606-.346 1.06h-3.46v-.302c.174 0 .347 0 .52-.152v-3.03h-.173v-.151h2.248zm-3.114 0v1.212h-.346c0-.152-.173-.455-.173-.606l-.346-.303c-.173 0-.346-.152-.692-.152s-.519 0-.865.152c-.173.151-.346.303-.518.606-.173.303-.173.606-.173.909 0 .454.173.757.345 1.212.346.303.692.454 1.038.454.173 0 .52 0 .692-.151v-1.212c-.173 0-.173 0-.346-.152h-.173v-.303h2.249v.152c-.144 0-.289 0-.433.087l-.086.065v1.514h-.346c-.303.133-.605.15-.792.152h-.592c-.346 0-.692 0-1.21-.152-.346-.151-.692-.303-.865-.606-.173-.303-.346-.606-.346-1.06 0-.606.346-1.212.865-1.515.518-.303 1.037-.455 1.556-.455.52 0 1.038 0 1.557.152zm44.981.41h-1.384v.152h.52v2.727c0 .133-.133.15-.282.151h-.238v.152h2.076c.288-.004.576-.025.865-.152.346-.151.692-.303.864-.606.173-.303.346-.757.346-1.06 0-.303 0-.455-.173-.758-.173-.151-.518-.303-.691-.454-.152-.133-.303-.15-.57-.151h-.814c.346 0 .692.15.865.302.173.303.346.758.346 1.06 0 .455 0 .91-.346 1.213-.152.133-.435.265-.736.296l-.13.007h-.518v-2.879zm-29.587-.562c.173.455.519 1.06 1.038 2.121.345.606.518.91.518 1.06 0 0 0 .152.173.152s.346.152.346.152v.151h-1.73v-.151c.174 0 .347 0 .347-.152v-.303l-.346-.606H29.02c-.173.303-.173.455-.346.758v.151c.173 0 .346 0 .346.152v.151h-1.384v-.151c.173 0 .173 0 .346-.152 0 0 .173 0 .173-.151 0-.152.346-.455.692-1.212.173-.455.519-1.06 1.038-1.97h.173zm-8.043.304h-.087c-.173 0-.346 0-.691.15-.173.152-.346.304-.346.455-.346.303-.346.606-.346.91 0 .454.173.908.346 1.363.173.151.519.303.864.303.173 0 .346 0 .692-.152.173-.151.346-.303.346-.454 0-.303.173-.606.173-.91v-.757c0-.151-.173-.303-.173-.454 0-.152-.173-.303-.346-.303-.144-.127-.288-.148-.432-.151zm21.544 1.925c.346 0 .692 0 .865.151.173.152.173.303.173.455 0 .151 0 .303-.173.454-.144.127-.288.148-.432.151l-.433.001V68.94zm-17.134-.26h-.864v1.364h.346c.173 0 .346 0 .518-.151.152-.133.17-.265.173-.5v-.106c0-.152 0-.455-.173-.606zm51.499-.405l-.52 1.212h1.039l-.52-1.212zm9.167 0l-.519 1.212h1.038l-.52-1.212zm-35.576-.092l.52 1.06h-1.038l.518-1.06zm-21.803-.411l-.52 1.212h1.212l-.692-1.212zm17.739-.195c.144.003.288.024.432.15.173.304.173.607 0 .91-.144.126-.288.147-.432.15l-.086.001h-.173l-.173-1.212h.432zm-3.719-.152c.173 0 .346 0 .52.151.147.13.169.26.172.39v.13c-.003.13-.025.26-.173.39-.151.132-.303.148-.57.15h-.122l-.173-1.211h.346zm-17.825-.26h-.346v1.213c.346 0 .692 0 .864-.152.149-.13.17-.26.173-.39v-.064c0-.152 0-.303-.173-.455-.172-.151-.345-.151-.518-.151zM39.782.153v65.15H1.557V.152h38.225zM103.606 0v65.302h-36.15V0h36.15zm11.512 14.216v51.06l-5.362-6.363-5.362 6.363v-51.06h10.724zM18.265 25.141c-3.37 0-5.1 1.582-5.185 4.746l-.004.253v18.182c0 3.333 1.73 5 5.189 5 1.285 0 2.42-.261 3.407-.905l.225-.156v6.06c0 1.364-.692 2.122-1.902 2.122-1.326 0-2.017-.557-2.072-1.936l-.004-.185v-3.333h-4.843v.909c0 1.515.692 3.03 2.076 3.939 1.383 1.06 3.113 1.667 4.843 1.667s3.459-.606 4.843-1.667c1.14-.998 1.82-2.265 1.895-3.674l.007-.265V26.353h1.557v-.91h-6.4v.758c-1.038-.757-2.248-1.06-3.632-1.06zm92.937 27.398l-4.347 1.8v.76l4.347 1.868v-.689l-1.302-.537v-1.963l1.302-.503v-.736zm-1.781 1.456v1.554l-1.921-.801 1.92-.753zM86.942 26.962c-1.038-1.06-2.594-1.667-4.151-1.515-1.118 0-2.235.258-3.217.893l-.242.167v-.757h-6.227v.909h1.557v25.605h-1.557v.91h7.783v-.91h-1.556V27.416c.692-.606 1.383-.909 2.248-.909 1.156 0 1.681.552 1.727 1.789l.003.18v24.849h6.227v-.91H87.98V30.448c0-.91-.173-1.819-.519-2.576.692-.758 1.73-1.212 2.768-1.212 1.155 0 1.68.552 1.726 1.788l.003.181v24.697h6.227v-1.06h-1.557v-21.97c0-3.182-1.73-4.848-5.189-4.848-1.73-.152-3.286.454-4.497 1.515zm21.09 20.746v.608l2.483.74-2.482.71v.682l2.497.706-2.497.695v.666l3.169-1.044v-.632l-2.453-.712 2.453-.737v-.632l-3.17-1.05zM19.65 26.353c.798 0 1.596.258 2.123.774l.125.135v24.09c-.519.455-1.21.91-2.248 1.06-1.156 0-1.681-.69-1.727-1.938l-.003-.182V28.474c0-1.364.519-2.121 1.73-2.121zM51.133 2.674v12.273c1.211-.91 2.768-1.212 4.152-1.212 4.15 0 6.226 1.97 6.226 5.757v22.121c0 3.94-2.075 5.757-6.226 5.757-1.557 0-2.94-.303-4.152-1.212v.91h-7.437v-1.213h1.903V3.886h-1.903V2.674h7.437zm60.084 41.206h-.394l.014.108c.002.034.004.065.004.092 0 .083-.017.138-.05.163-.023.018-.05.03-.082.035l-.052.004h-1.825c-.3 0-.521.132-.663.396-.142.265-.213.611-.213 1.037 0 .367.076.69.23.968.133.243.358.384.673.423l.141.01v-.567c-.163-.022-.287-.07-.37-.145-.15-.133-.224-.358-.224-.676 0-.275.04-.486.122-.633.082-.148.214-.222.395-.222.09 0 .157.014.205.041.069.038.116.105.14.202l.013.078.107.97c.037.34.137.615.299.824.162.21.39.314.683.314.269 0 .492-.106.67-.319.18-.213.269-.487.269-.822 0-.28-.053-.535-.157-.767-.105-.232-.228-.41-.37-.534.126-.02.224-.055.293-.105.13-.094.195-.246.195-.456 0-.085-.003-.153-.009-.202-.004-.034-.012-.077-.023-.13l-.021-.087zm-1.199 1.01c.328 0 .564.17.708.507.086.2.13.408.13.622 0 .175-.045.327-.133.456-.09.128-.21.192-.364.192-.204 0-.352-.093-.444-.28-.044-.088-.08-.212-.104-.37l-.018-.127-.041-.368c-.012-.112-.032-.227-.06-.344-.018-.079-.04-.147-.064-.206l-.039-.082h.43zM53.901 15.098c-1.038 0-1.903.455-2.595 1.06v28.94c.692.606 1.557 1.06 2.595 1.06 1.384 0 2.075-.757 2.075-2.424V17.522c0-1.666-.691-2.424-2.075-2.424zm54.638 26.41h-.563c-.005.066-.01.112-.011.14l-.003.057c0 .24.076.454.229.638.122.148.23.252.322.312l.067.036h-.547v.578h3.169v-.608h-1.823c-.225 0-.424-.082-.596-.247-.173-.164-.26-.4-.26-.706 0-.036.002-.07.004-.1l.004-.047.008-.052zm2.663-3.475h-4.362v.584h1.601c-.148.137-.252.26-.31.368-.103.187-.155.42-.155.696 0 .5.17.885.508 1.154.338.269.738.404 1.2.404.493 0 .888-.148 1.185-.443.297-.295.445-.644.445-1.047 0-.25-.043-.472-.13-.666-.07-.155-.173-.293-.312-.415l-.11-.088h.44v-.547zm-1.583.56c.396 0 .7.091.913.272.212.182.318.413.318.695 0 .362-.115.626-.343.79-.23.164-.513.247-.853.247-.398 0-.7-.095-.905-.286-.205-.19-.308-.438-.308-.745 0-.274.096-.505.289-.692.192-.187.488-.28.889-.28zm.666-4.222c-.292 0-.506.118-.643.354-.074.128-.15.361-.23.7l-.039.179-.086.402c-.037.175-.08.308-.13.398-.083.156-.193.233-.331.233-.127 0-.228-.059-.305-.177-.077-.118-.115-.292-.115-.522 0-.344.07-.587.21-.726.074-.064.154-.108.24-.13l.088-.015v-.575c-.205-.004-.396.069-.574.22-.28.24-.42.634-.42 1.179 0 .416.093.748.278.995.185.246.428.37.728.37.254 0 .454-.131.598-.392.066-.117.127-.286.183-.507l.042-.176.106-.483c.057-.259.108-.432.151-.52.071-.137.175-.206.31-.206.18 0 .313.086.399.257.086.17.129.37.129.594 0 .379-.086.644-.258.798-.071.062-.165.106-.283.132l-.125.02v.584c.315-.016.58-.136.794-.36.214-.224.321-.605.321-1.143 0-.5-.102-.872-.307-1.117-.206-.244-.45-.366-.731-.366zm-2.066-5.733c-.321 0-.613.128-.876.383-.262.256-.393.66-.393 1.215 0 .666.205 1.131.615 1.395.194.124.435.198.724.224l.179.009v-.618c-.263-.01-.468-.056-.616-.142-.276-.16-.414-.448-.414-.865 0-.281.072-.507.217-.676.145-.168.341-.253.588-.253.21 0 .398.092.562.277.087.098.19.256.307.474l.072.138.328.648c.221.435.467.727.737.877.216.12.463.199.74.237l.213.021v-3.32h-.503v2.641c-.21-.058-.4-.2-.571-.425-.073-.095-.148-.216-.226-.364l-.079-.157-.225-.462c-.2-.408-.369-.69-.509-.848-.24-.273-.53-.41-.87-.41zm.858-3.841c-.607 0-1.086.108-1.435.324-.452.28-.678.732-.678 1.358 0 .696.322 1.177.965 1.443.345.142.759.212 1.24.212.621 0 1.117-.118 1.486-.354.441-.284.662-.716.662-1.297 0-.645-.27-1.109-.81-1.392-.377-.196-.854-.294-1.43-.294zm.021.655c.667 0 1.123.094 1.367.28.245.188.367.439.367.754 0 .392-.2.669-.6.831-.263.106-.61.159-1.042.159-.574 0-1.009-.083-1.304-.249-.295-.165-.442-.427-.442-.785 0-.39.155-.652.466-.787.31-.135.707-.203 1.188-.203zm2.104-3.398h-4.22v.48c.328.085.535.214.623.388.075.149.132.395.17.739l.018.18h.408v-1.139h3.001v-.648zm-1.216-4.946c-.316 0-.572.107-.77.32-.104.116-.197.273-.278.474-.089-.18-.18-.313-.272-.399-.164-.153-.378-.23-.642-.23-.286 0-.536.132-.75.396-.214.263-.321.627-.321 1.091 0 .48.113.85.34 1.111.227.262.498.392.814.392.252 0 .457-.089.615-.267.085-.094.159-.226.222-.395.097.275.236.482.419.622.182.14.399.21.65.21.426 0 .75-.164.974-.489.224-.325.336-.723.336-1.194 0-.523-.13-.927-.389-1.213-.26-.286-.575-.429-.948-.429zm.056.649c.264 0 .463.093.596.278.133.186.2.42.2.701 0 .352-.08.611-.241.779-.161.168-.352.252-.573.252-.256 0-.457-.092-.602-.276-.145-.183-.217-.42-.217-.71 0-.3.07-.546.213-.737.142-.192.35-.287.624-.287zm-1.968.162c.182 0 .338.075.47.226.13.151.196.36.196.628 0 .23-.056.43-.169.598-.112.17-.268.254-.467.254-.178 0-.333-.066-.465-.196s-.198-.342-.198-.635c0-.295.066-.515.198-.659.132-.144.277-.216.435-.216z"/>
            <g transform="translate(68.584 67.214)">
                <mask id="bobj87hvnb" fill="#fff">
                    <use xlink:href="#62d0vu7g3a"/>
                </mask>
            </g>
            <g transform="translate(9.13 66.711)">
                <mask id="gbpn4istid" fill="#fff">
                    <use xlink:href="#3hezeejw6c"/>
                </mask>
            </g>
        </g>
        <path fill="#FFF" d="M12.77 84.645v-.868c0-.124 0-.248-.153-.248h-.154-.153H13.688c.92 0 1.072.372 1.072.62s-.153.62-.459.744c.46.124.919.497.919.869 0 .496-.46.868-1.378.868h-.613-.612-.154.307c.153 0 .153-.124.153-.248v-.868l-.153-.869zm.612.124h.306c.154 0 .307 0 .307-.124.153-.124.153-.248.153-.496s-.153-.62-.613-.62h-.153V84.769zm.613.372c-.153-.124-.307-.124-.46-.124h-.153v.993c0 .248 0 .372.153.372h.307c.306 0 .612-.248.612-.496v-.124c0-.124-.153-.497-.46-.62zm1.99-.124v-.744c0-.124 0-.124-.153-.248h-.153-.153 2.144v.372s0-.124-.306-.124h-.766v.868h.919v.497c0-.124-.153-.124-.307-.124h-.765v.744c0 .248.153.248.612.248h.46c.153 0 .153-.124.153-.248v.496c0 .124 0 .124-.306.124h-1.226-.612-.153.153c.153 0 .153-.124.153-.124v-.744l.306-.993zm2.757 1.489s-.153 0-.153-.124v-.496-.124.124c.153.248.459.372.765.372s.613-.124.613-.372c0-.124 0-.248-.46-.496l-.306-.125c-.46-.248-.766-.496-.766-.744 0-.372.46-.744 1.072-.744h.613v.372c0-.124 0-.124-.153-.248s-.307-.124-.46-.124c-.306 0-.612.124-.612.372 0 .124 0 .248.46.496l.152.124c.613.248.766.496.766.869 0 .248-.153.496-.46.62-.153.124-.459.124-.765.124.153.248-.153.248-.306.124zm3.522-2.357h-.613c-.306 0-.306 0-.46.124 0 0 0 .124-.152.124l.153-.372v-.124H24.1v.372c0-.124-.153-.248-.46-.248h-.612v2.109c0 .124 0 .124.153.124h0H21.804h-.153.153c.153 0 .153-.124.153-.124v-.744l.307-1.241zm4.134 2.109c-.766-.62-.766-1.613-.153-2.357.46-.372 1.072-.496 1.531-.496h.766c.153 0 .306 0 .46.124h.152v.744c0-.124-.153-.248-.153-.372-.306-.124-.612-.248-1.072-.248-.306 0-.612.124-.919.248-.612.62-.612 1.613.154 2.109.306.248.612.372.918.372.307 0 .613 0 .92-.248.152 0 .152-.124.152-.248v-.124c0 .124 0 .372-.153.496 0 0 0 .124-.153.124-.306.124-.612.124-.919.124-.46.248-1.072 0-1.531-.248zm3.369-.993c0-.744.765-1.364 1.684-1.364h.153c.919-.124 1.685.372 1.838 1.116v.248c0 .745-.766 1.365-1.685 1.49h-.153c-.918.123-1.684-.497-1.837-1.241v-.249zm3.062.125c.153-.62-.46-1.117-1.225-1.241h-.153c-.46 0-1.072.248-1.072 1.116-.153.62.46 1.241 1.225 1.241h.153c.307 0 1.072-.124 1.072-1.116zm1.378-.373v-.744c0-.124 0-.124-.153-.248h-.153-.153H35.28c.307 0 .613 0 .766.248.153.124.153.248.153.372 0 .496-.46.869-1.072.869h-.153.153c.306 0 .613-.249.613-.62 0-.249-.153-.373-.307-.497-.153-.124-.306-.124-.459-.124h-.153V86.506c0 .124 0 .124.153.124h0H33.595h-.153.153c.153 0 .153-.124.153-.124v-.744l.46-.745zm3.522.62c0-.123 0-.247-.153-.372 0 0-.612-.868-.765-.992 0-.124-.154-.124-.307-.248h-.153 1.072v.124c.153.124.613.868.766.992 0-.124.612-.868.612-.992v-.124s0-.124-.153-.124h-.153.919c-.153 0-.153.124-.307.124l-.918 1.116v.993c0 .124 0 .124.153.124h.153H37.117h-.153.153c.153 0 .153-.124.153-.124v-.372l.46-.124zm7.504 7.32c0 .124 0 .124-.154.248-.612.248-1.225.248-1.99.248-1.99 0-3.828-.745-3.828-2.481 0-.869.459-1.613 1.378-2.11.612-.247 1.378-.495 2.144-.371.459 0 .918 0 1.378.124.153 0 .459 0 .612.124.153 0 .153 0 .153.124v.992c0 .124 0 .124-.153.124s0 0-.153-.124c0-.248-.153-.372-.306-.496-.46-.372-1.225-.496-1.838-.496-.612 0-1.225.124-1.684.372-.613.372-.766.992-.766 1.489-.153 1.24 1.072 2.233 2.603 2.357h.307c.306 0 .459 0 .765-.124.153 0 .153-.124.153-.249v-.496-.744c0-.248-.153-.372-.306-.372h-.306-.153s0-.124.153-.124h2.144c.153 0 .153 0 .153.124s0 0-.153 0h-.153c-.154 0-.307.124-.307.372v.744l.307.745zm-2.91-9.18h-.765c-.307 0-.46 0-.46.124 0 0 0 .124-.153.124v-.124c0-.124.153-.496.153-.496v-.124H44.161v.62c0-.124-.153-.248-.613-.248h-.612v2.605c0 .124 0 .248.153.248H43.395 42.017h-.153.306c.153 0 .153-.124.153-.248v-2.481zm2.756 1.24v-.744c0-.124 0-.124-.153-.248h-.153-.153H46.151c.307 0 .613 0 .92.124.152.124.305.248.305.496s-.153.496-.612.745c.46.372.765.744.919.868.153.124.306.248.459.248h0-.46c-.153 0-.306 0-.459-.124-.306-.124-.46-.248-.612-.496-.153-.248-.307-.372-.46-.496h-.613v.744c0 .124 0 .124.154.124h0H44.314h-.153.153c.153 0 .153-.124.153-.124v-.744l.612-.373zm1.991 6.7c0 .743 0 .991.153 1.116.153.124.46.124.919.124.46 0 .612 0 .919-.124.153-.125.153-.249.153-.373 0 0 0-.124.153-.124s0 0 0 .124c0 .248 0 .373-.153.62-.153.249-.153.249-.46.249H45.54 45.998c.153 0 .153-.124.153-.248v-2.233-1.117c0-.124-.153-.248-.306-.248H45.386h2.143-.306c-.153 0-.306.124-.306.248v1.117l.153.868zm-1.378-6.452c.153.125.306.125.306.125h.306c.154-.125.307-.373.307-.497 0-.248-.153-.62-.613-.62H45.54l.153.992zm3.062.497l-.306.496v.248c0 .124 0 .124.153.124h-.459-.46-.153.154c.153 0 .306-.124.306-.248l1.225-2.233c0-.124.153-.124.153-.124s.153 0 .153.124c.153.248.919 1.613 1.072 2.109.153.372.306.372.306.372h0-1.072v-.124l-.306-.744h-.766zm.92-.248l-.46-.869-.46.869h.92zm-.766 5.83c0-1.24 1.225-2.109 2.756-2.109h.306c1.838 0 2.91.744 2.91 1.985 0 1.24-1.225 2.233-2.757 2.233h-.306c-1.378.124-2.756-.745-2.91-1.861v-.248zm4.9 0c.153-.992-.766-1.86-1.991-1.86h-.153c-.766 0-1.685.371-1.685 1.612-.153.992.766 1.86 1.991 1.985h.153c.613 0 1.685-.124 1.685-1.737zm-2.144-6.327v-.744c0-.124 0-.124-.153-.248h-.153H52.889c.612-.124 1.225.124 1.837.372.307.248.46.496.46.868 0 .373-.153.745-.46.993-.459.248-.918.496-1.53.372h-.92-.612-.153.153c.153 0 .153-.124.153-.124v-.744l-.153-.745zm.612.373v.992c0 .124.307.124.613.124s.766-.124.919-.248c.306-.248.459-.496.306-.868 0-.373-.153-.62-.46-.869-.306-.248-.765-.372-1.225-.372h-.306v.744l.153.497zm2.91 5.458V89.73c0-.124-.153-.248-.306-.248h-.307-.153 2.144c1.225 0 1.531.496 1.531.744 0 .373-.306.745-.765.993.612.124 1.378.496 1.378 1.116 0 .62-.613 1.117-1.991 1.117H54.42 54.88c.153 0 .153-.124.153-.248v-1.117l.153-1.24zm.612-5.83v-.745c0-.124 0-.124-.153-.124h-.153H56.87c-.153 0-.153.124-.153.248v2.109c0 .124 0 .124.153.124h0H55.492h-.153.153c.153 0 .153-.124.153-.124v-.744l.153-.745zm.307 5.83c0 .124 0 .124 0 0 .153.124.306.124.459.124.153 0 .46 0 .612-.124.154-.124.307-.372.307-.62 0-.373-.307-.745-.92-.745h-.305v.124l-.153 1.24zm0 1.612c0 .373 0 .497.306.497.153 0 .306.124.46.124.459 0 .918-.248.918-.62v-.125c0-.372-.306-.744-.613-.992-.153-.124-.459-.124-.612-.124h-.306l-.153 1.24zm1.99-6.326c0 .248 0 .372.153.372H58.555h-.613-.46-.152.153c.153 0 .153-.124.153-.372v-2.109c0-.124 0-.124.153-.124s.153 0 .153.124.766.62 1.378 1.116l.919.745v-1.613c0-.248 0-.248-.153-.248h-.306H60.85c-.153 0-.153.124-.153.248v2.357s-.153 0-.153-.124l-1.225-.992-1.072-.869-.153 1.489zm1.838 5.83l-.46.744c0 .125-.153.249-.153.373s0 .124.306.124h.154-.766-.919.306c.307 0 .46-.248.613-.497l1.837-3.349c.154-.124.154-.248.154-.248.153 0 .153 0 .153.124.153.248 1.378 2.481 1.837 3.225.306.497.46.497.613.62H63.76 62.23h.153s.153 0 .153-.123l-.613-1.117-1.99.124zm1.531-.248c.153 0 .153 0 0 0l-.613-1.364-.765 1.364h1.378zm3.216-5.334v.124c-.307.124-.766.124-1.072.124-1.072 0-1.99-.372-1.99-1.365 0-.496.305-.868.765-1.116.306-.124.765-.248 1.225-.248h1.072v.744c0-.124 0-.248-.154-.248-.306-.248-.612-.248-.918-.248-.613 0-1.225.248-1.225.868v.248c0 .62.612 1.241 1.378 1.241H64.22l.153-.124v-.372-.372c0-.124 0-.124-.153-.248h-.153H65.292c-.153 0-.153.124-.153.248v.372l-.46.372zm.306 5.334c0 .744 0 .992.153 1.117.153.124.46.124.919.124.46 0 .612 0 .919-.124.153-.125.153-.249.153-.373 0 0 0-.124.153-.124s0 0 0 .124c0 .248 0 .373-.153.62 0 .125-.153.125-.46.125H63.455 63.914c.153 0 .153-.124.153-.248v-2.109-1.117c0-.124-.153-.248-.306-.248H63.3h2.144-.306c-.153 0-.306.124-.306.248v1.117l.153.868zm2.45-7.07v-.87c0-.123 0-.247-.153-.247h-.153-.153H68.66c.306 0 .612 0 .919.248.153.124.306.248.306.496 0 .496-.46.992-1.225.992h-.153-.153.153c.46 0 .765-.372.612-.62 0-.248-.153-.496-.306-.62s-.306-.124-.46-.124h-.152v2.605c0 .124 0 .248.153.248H68.66 67.283h-.153.306c.153 0 .153-.124.153-.248v-.868l-.153-.993zm3.828.992c0 .496 0 .62.153.744s.306.124.613.124c.306 0 .46 0 .46-.124 0 0 .152-.124.152-.248v.496c0 .124 0 .124-.306.124H70.958h-.613-.153.153c.153 0 .153-.124.153-.124v-1.613-.744c0-.124 0-.124-.153-.248h-.153-.153 1.225c-.153 0-.153.124-.153.248v.744l.153.62zm2.45.124l-.306.496v.248c0 .124 0 .124.153.124h-.46-.459-.153.153c.153 0 .306-.124.306-.248l1.225-2.233c0-.124.154-.124.154-.124s.153 0 .153.124c.153.248.918 1.613 1.072 2.109.153.372.306.372.306.372h0-1.072v-.124l-.306-.744h-.766zm.919-.248l-.46-.869-.459.869h.919zm2.297-1.365h-.613c-.306 0-.306 0-.46.124 0 0 0 .124-.152.124l.153-.372v-.124H78.767v.372c0-.124-.153-.248-.46-.248h-.612v2.109c0 .124 0 .124.153.124h0H76.47h-.153.153c.153 0 .153-.124.153-.124v-.744l.307-1.241zm3.215 1.489v.744c0 .124 0 .124.154.124h.153H79.074h-.154.154c.153 0 .153-.124.153-.124V85.018v-.745c0-.124 0-.124-.153-.248h-.154-.153 2.144v.372c0-.124-.153-.124-.306-.124h-.766v.868h.919v.497c0-.124-.153-.124-.153-.124h-.766l.306.124zm1.685-.373c0-.744.765-1.364 1.684-1.364h.153c.92-.124 1.685.372 1.838 1.116v.248c0 .745-.766 1.365-1.685 1.49h-.153c-.918.123-1.684-.497-1.837-1.241v-.249zm3.062.125c.153-.62-.46-1.117-1.225-1.241h-.153c-.46 0-1.072.248-1.072 1.116-.153.62.46 1.241 1.225 1.241h.153c.307 0 1.072-.124 1.072-1.116zm1.378-.373v-.744c0-.124 0-.124-.153-.248h-.153H87.495c.307 0 .613 0 .92.124.152.124.305.248.305.496s-.153.496-.612.745c.46.372.766.744.919.868.153.124.306.248.46.248h-.461c-.152 0-.306 0-.459-.124-.306-.124-.459-.248-.612-.496-.153-.248-.306-.372-.46-.496h-.612v.744c0 .124 0 .124.153.124h0H85.658h-.153.153c.153 0 .153-.124.153-.124v-.744l.46-.373zm.613.248c.153.125.306.125.306.125h.306c.154-.125.307-.373.307-.497 0-.248-.153-.62-.613-.62H86.73v.992h.153zm3.062-1.24c0-.124 0-.124 0 0 .154-.124.154-.124.154 0l1.225 1.985 1.225-1.985.153-.124s.153 0 .153.124l.46 2.109c0 .248.152.372.152.372h.154-1.072v-.124l-.307-1.489-.918 1.489c-.153.124-.153.248-.153.248l-.154-.124c-.153-.124-.459-.744-.459-.744 0-.124-.306-.497-.46-.745l-.153 1.365v.124c0 .124 0 .124.154.124h0-.46-.46-.152.153c.153 0 .153-.124.153-.248l.612-2.357z"/>
    </g>
</svg>
