<svg xmlns="http://www.w3.org/2000/svg" width="109" height="103" viewBox="0 0 109 103">
    <g opacity=".7">
        <g fill="none" fill-rule="evenodd" opacity=".85">
            <path fill="#1B1B1B" d="M68.212 93.65c1.45.152 2.578 1.215 2.417 2.581v.152c.161 1.367-.806 2.733-2.417 2.885h-.322c-.595 0-1.327-.258-1.69-.776l-.083-.135v3.037H64.99l.161-5.77v-1.822h.967v.91c.484-.758 1.29-1.062 2.095-1.062zm-53.71-6.64v13.059H.645v-13.06h13.857zm39.852 6.792c1.773 0 2.256 1.215 2.256 2.277v2.126c0 .456 0 .911.161 1.367h-1.289v-.304l-.16-.759c-.484.456-1.129.76-1.773.76-.967 0-1.773-.608-1.773-1.52v-.151c0-1.367 1.29-2.126 3.545-2.126v.15l.022-.105c.082-.57-.382-1.108-.989-1.108h-.322c-.483 0-1.128.152-1.45.456l-.161-.608c.644-.303 1.289-.455 1.933-.455zm-9.184-.152c1.289 0 2.417 1.063 2.417 2.43v.607h-4.19c-.161.911.645 1.822 1.773 1.974h.322c.483 0 1.128-.152 1.611-.304l.161.76c-.644.303-1.289.303-1.933.303-1.45.152-2.74-.91-2.9-2.43v-.455c-.162-1.518.966-2.733 2.577-2.885h.162zm-19.82 0c1.289 0 2.417 1.063 2.417 2.43v.607h-4.19c-.16.911.645 1.822 1.773 1.974h.322c.484 0 1.128-.152 1.612-.304l.16.76c-.644.303-1.288.303-1.933.303-1.45.152-2.74-.91-2.9-2.43v-.455c-.162-1.518.966-2.733 2.578-2.885h.16zm5.156 0c.484 0 .967.152 1.45.304l-.322.759c-.322-.152-.805-.304-1.128-.304-.644 0-.967.304-.967.76 0 .455.323.607 1.128.91.967.304 1.612.912 1.612 1.67 0 .912-.806 1.671-2.256 1.671-.645 0-1.128-.152-1.612-.304l.162-.91c.483.303.966.455 1.45.455.806 0 1.128-.304 1.128-.76 0-.455-.322-.759-1.128-1.062-1.128-.304-1.612-.911-1.612-1.519 0-.91.806-1.67 1.934-1.67h.161zm50.436-1.519v1.519h1.45v.76h-1.45v3.036c0 .76.16 1.063.805 1.063h.645v.76c-.322.151-.645.151-.967.151-.483 0-.805-.152-1.128-.455-.322-.456-.483-.911-.483-1.367v-3.037h-.967v-.76h.967v-1.366l1.128-.304zm-31.1 0v1.519h1.45v.76h-1.45v3.036c0 .76.162 1.063.806 1.063h.645v.76c-.322.151-.645.151-.967.151-.483 0-.806-.152-1.128-.455-.322-.456-.483-.911-.483-1.367v-3.037h-.967v-.76h.967v-1.366l1.128-.304zm26.266 1.519c1.772 0 2.256 1.215 2.256 2.278v2.126c0 .455 0 .91.16 1.366h-1.127v-.76c-.484.456-1.128.76-1.773.76-.966 0-1.772-.607-1.772-1.518v-.152c0-1.318 1.198-2.071 3.307-2.123l.238-.003c.161-.607-.322-1.215-.967-1.215h-.322c-.484 0-1.128.152-1.45.456l-.484-.76c.645-.303 1.29-.455 1.934-.455zM34.535 92.13v1.519h1.45v.76h-1.45v3.036c0 .76.16 1.063.805 1.063h.645v.76c-.322.151-.645.151-.967.151-.483 0-.806-.152-1.128-.455-.322-.456-.483-.911-.483-1.367v-3.037h-.967v-.76h.967v-1.366l1.128-.304zm-15.792-.607c.806 0 1.612.152 2.256.607.484.304.645.76.645 1.367 0 .715-.571 1.43-1.31 1.637l-.14.033c.966.152 1.61 1.063 1.61 1.974 0 .608-.16 1.215-.644 1.519-.805.607-1.772.76-2.739.76-.483 0-1.128 0-1.611-.153v-7.592c.644-.152 1.289-.152 1.933-.152zm71.222 2.126c1.45 0 2.74 1.063 2.9 2.581-.16 0-.16.152-.16.304.16 1.519-.967 2.733-2.578 2.885h-.323c-1.611 0-2.739-1.215-2.739-2.581v-.304c-.161-1.518.967-2.733 2.578-2.885h.322zm14.342-.152c.805 0 1.933.456 1.933 2.43v3.188h-.967v-2.885c0-1.063-.483-1.67-1.289-1.67-.644 0-1.128.456-1.289.911 0 .152-.161.304-.161.456v3.34h-.967v-3.34c0-.911-.483-1.519-1.289-1.519-.644 0-1.128.456-1.289 1.063 0 .152-.161.304-.161.456v3.34h-.967l.161-3.948v-1.518h.967v.91c.322-.607 1.128-1.062 1.773-1.062.752 0 1.363.397 1.572.943l.039.12c.161-.304.322-.456.644-.76.323-.303.806-.455 1.29-.455zm-45.2.304v5.466h-1.339v-5.466h1.339zm2.337-2.582v8.048h-1.128V91.22h1.128zm24.815-.152c.323 0 .645 0 .967.152l-.161.76c-.161-.152-.483-.152-.645-.152-.966 0-1.128.759-1.128 1.67v.304h1.45v.759h-1.45v4.707h-1.127v-4.707h-.806v-.76h.806v-.303c0-.76.16-1.367.644-1.974.322-.304.967-.456 1.45-.456zm-13.535.152v8.048h-1.128V91.22h1.128zm-30.616 2.43v.911h-.322c-.806 0-1.29.607-1.45 1.215v3.34h-1.128v-5.314h.966v1.063c.162-.76.806-1.215 1.612-1.215h.322zm54.625 0v.911h-.322c-.806 0-1.29.607-1.45 1.215v3.34h-1.128v-5.314h.967v1.063c.16-.76.805-1.215 1.61-1.215h.323zm-41.412 2.885c-1.128 0-2.417.152-2.417 1.215 0 .455.322.91.806.91h.161c.645 0 1.128-.303 1.45-.91v-1.215zm12.408-2.126c-.806 0-1.45.456-1.612 1.215v1.822c.161.76.806 1.215 1.612 1.215 1.128 0 1.772-.911 1.772-2.126 0-1.063-.644-2.126-1.772-2.126zm9.507 2.126c-1.128 0-2.417.152-2.417 1.215 0 .455.322.91.805.91h.161c.645 0 1.128-.303 1.45-.91v-1.215zm12.568-2.126c-1.289 0-1.772 1.063-1.772 2.126 0 1.215.805 2.126 1.772 2.126s1.773-.911 1.773-2.126c0-.911-.484-2.126-1.773-2.126zm-71.222 1.063h-.805v3.037h.805c1.128 0 2.095-.304 2.095-1.518 0-1.063-.967-1.519-2.095-1.519zm6.929-1.215h-.161c-.967 0-1.611.76-1.611 1.67H26.8c.161-.759-.483-1.518-1.289-1.67zm19.659 0h-.162c-.966 0-1.61.76-1.61 1.67h3.06c.162-.759-.483-1.518-1.288-1.67zm-26.427-1.822h-.966v2.43h.966c1.128 0 1.773-.608 1.773-1.215 0-.911-.645-1.215-1.773-1.215zm40.361-.24l.003.088c0 .304-.383.608-.765.608s-.765-.304-.765-.608c0-.278.321-.557.67-.601l.095-.006c.535-.142.738.113.762.518zm8.573-20.37v10.933c0 .455 0 1.063.161 1.518h-1.772v-1.518c-.645 1.063-1.934 1.822-3.223 1.67-2.74 0-3.867-2.43-3.867-4.555 0-2.278 1.289-4.556 4.19-4.556 1.06-.143 2.122.387 2.781 1.21l.119.157-.161-4.86h1.772zm5.64 3.492c1.772 0 3.706.76 3.545 2.733h-1.773c0-1.063-.805-1.518-1.772-1.518s-1.612.455-1.612 1.367c0 .91 1.612 1.063 2.256 1.214 1.612.456 3.384.608 3.384 2.582 0 2.126-2.256 2.733-4.028 2.733-1.934 0-3.545-.76-3.545-2.885h1.772c0 .911.806 1.67 1.612 1.67h.16c.968 0 2.096-.455 2.096-1.518 0-1.974-5.64-.456-5.64-3.948 0-1.67 1.933-2.43 3.545-2.43zm-26.265 0c1.933 0 3.706.608 3.706 2.885v5.922H49.63c-.161 0-.484.152-.484-.151 0-.39 0-.67-.101-1.028l-.06-.187c-.483 1.063-1.611 1.67-2.9 1.518-1.611 0-3.223-.759-3.223-2.43 0-2.429 2.256-3.188 4.512-3.188l1.611.304c0-1.519-.16-2.43-1.933-2.43-.761-.143-1.522.39-1.74 1.218l-.033.149h-1.772c.16-1.974 1.611-2.582 3.545-2.582zm10.312.152h.645v1.518c-.322 0-.483-.151-.806-.151-2.256 0-2.578 1.214-2.578 3.037v4.403h-1.772v-8.655h1.772v1.67c.322-1.215 1.45-1.974 2.74-1.822zm-27.876.152l2.256 6.985L34 75.62h2.256l2.094 6.833 2.256-6.833h1.773l-3.223 8.655h-1.934l-2.094-7.137-2.417 7.137h-2.095l-3.062-8.655h1.934zm-6.446-3.796l5.318 12.451h-1.934l-1.45-3.189h-6.123l-1.45 3.19h-1.934l5.64-12.452h1.933zm26.104 8.2h-1.933c-1.128 0-2.417.455-2.417 1.67 0 .91.644 1.518 1.611 1.67h.322c2.095 0 2.417-1.67 2.417-3.34zm14.18-3.645c-2.094 0-2.578 1.822-2.578 3.493 0 1.67.645 3.492 2.578 3.492 2.095 0 2.579-1.822 2.579-3.492 0-1.519-.645-3.493-2.579-3.493zm-41.412-2.885l-2.578 6.074h4.996l-2.418-6.074zm30.832-24.138v2.885h-7.734v4.404h7.734v2.885h-7.734v8.655H40.5V49.357h12.246zm7.412 0l4.029 6.378 4.35-6.378h4.674l-6.607 9.111 6.929 9.718h-5.318l-4.512-7.137-4.834 7.137h-4.511l7.09-9.718-6.607-9.111h5.317zm-31.743 8.2c.322.76.644 1.518.644 2.278.161.759.161 1.67.161 2.43h-8.862v.151c0 1.67.161 3.189 2.256 3.189 1.128.152 2.256-.608 2.417-1.67h3.706c-.322 3.188-2.9 4.251-6.123 4.251-4.673 0-6.446-2.43-6.446-6.833 0-3.796 2.417-6.833 6.446-6.833 2.417-.152 4.673 1.063 5.8 3.037zm9.023 1.974v2.885h-6.123v-2.885h6.123zM22.614 57.1c-1.934 0-2.256 1.367-2.256 2.734h4.673c0-1.367-.484-2.734-2.417-2.734zm82.447-12.154v1.519H15.952v-1.519h89.109zM75.128 31.05c2.417 0 4.512 1.974 4.673 5.162l-6.445-.151v1.822c0 2.581.644 3.796 2.578 3.796 1.611 0 3.061-1.367 3.706-3.644h.322c-.483 2.581-2.095 4.251-4.512 4.251-3.061 0-5.478-2.43-5.478-5.314v-.304c-.161-2.885 2.094-5.315 5.156-5.618zm11.28 0c2.417 0 4.511 1.974 4.672 5.162l-6.445-.151v1.822c0 2.581.645 3.796 2.578 3.796 1.612 0 3.062-1.367 3.706-3.644h.323c-.484 2.581-2.095 4.251-4.512 4.251-3.062 0-5.479-2.43-5.479-5.314v-.304c-.16-2.885 2.095-5.315 5.157-5.618zM66.91 24.823v.455c-1.128.152-1.45.911-1.772 1.974L64.01 30.29l2.256 7.137 2.739-9.718c.161-.456.322-1.063.322-1.519 0-.455-.483-.759-1.289-.91v-.456h3.706v.455c-1.611.152-1.611.76-2.095 1.974l-4.511 15.033h-1.29l-2.417-7.44-2.417 7.44h-1.289l-5.317-17.007H51.28v-.455h15.63zm29.81-.304v11.692l3.062-2.733c.483-.455.806-.91.806-1.366 0-.456-.484-.608-1.612-.608v-.152h5.318v.456c-1.612.304-3.062 1.063-4.029 2.278l-.805.759 4.35 6.985h.967v.455h-5.8v-.455h1.127l-3.061-5.011-.323.152v4.555h.967v.456h-5.479v-.456h1.29V25.278h-1.29v-.455h1.773c.967 0 1.772 0 2.74-.304zm-70.094.304v.303h6.123l-.16.304H31.46l2.578 5.467 2.095-3.948c.161-.304.161-.456.322-.76 0-.455-.483-.759-1.611-.759v-.455h4.35v.455h-.16c-1.128 0-1.934.608-2.579 1.974l-1.933 3.948 4.995 10.326h.967v.456H34.36v-.456h1.128l-2.9-6.226-2.257 4.404c-.16.304-.322.607-.322.91 0 .608.483.912 1.45.912h.322v.456h-5.156v-.456c1.29.152 2.417-.607 2.9-1.67l2.579-5.011-4.512-9.415h-.967v3.644h-.322c0-2.277-1.934-4.1-4.35-3.948h-1.129v7.593h.484c1.772 0 2.578-1.063 2.739-3.037h.322v6.53h-.322c-.161-2.127-1.128-3.19-2.9-3.19h-.323v8.2h1.29v.456H15.83l.161-.304h1.128V25.278h-1.128v-.455h10.635zm31.905.455h-2.256l3.706 12.3 1.29-3.492-2.74-8.808zM48.18 30.522v5.77h-6.124v-5.77h6.124zm26.787.83c-1.24 0-1.436.843-1.45 2.527v1.725h2.9v-1.67c0-1.822-.322-2.582-1.45-2.582zm11.118 0c-1.24 0-1.436.843-1.45 2.527v1.725h2.9v-1.67c0-1.822-.322-2.582-1.45-2.582zM64.01 25.278h-1.612l1.29 4.404.805-2.278c.161-.455.322-.91.322-1.366 0-.456-.483-.76-.805-.76zm41.05-4.93v1.518H15.953v-1.518h89.109zM79.286 6.074c4.19 0 5.157 3.34 5.157 5.618v1.063l-9.024-.152c-.161 2.126 1.45 3.949 3.706 4.1h.645c1.128 0 2.417-.151 3.545-.607l.322 1.518c-1.29.456-2.74.76-4.19.76-3.222.152-5.962-2.126-6.123-5.163v-.76c0-3.644 2.256-6.377 5.962-6.377zm13.375-.152c.16 0 .483 0 .644.152v1.974h-.806c-1.61 0-2.9 1.215-3.061 2.733 0 .304-.161.608-.161 1.063v6.378H87.02l.161-8.352c0-1.366 0-2.581-.161-3.644h1.933v2.278h.162c.483-1.519 1.772-2.582 3.545-2.582zm-26.588 0c1.773 0 4.512.911 4.512 5.011v7.137h-2.256v-6.833c0-1.974-.806-3.493-2.9-3.493-1.45 0-2.74.911-3.062 2.278-.138.26-.158.52-.16.877l-.001 7.323h-2.256l-.161-8.807c0-1.215 0-2.278-.161-3.19h2.095l.16 1.975c.806-1.367 2.418-2.278 4.19-2.278zm-14.502 0c1.772 0 4.512.911 4.512 5.011v7.137h-2.256v-6.833c0-1.974-.806-3.493-2.9-3.493-1.773 0-3.223 1.519-3.223 3.19v7.136h-2.256l-.161-8.655c0-1.215 0-2.278-.161-3.19h2.094L47.38 8.2c.806-1.367 2.417-2.278 4.19-2.278zm-10.152.304V18.07h-2.256V6.226h2.256zm-3.867-4.86l-4.995 16.552h-2.417l-2.256-8.655c-.403-1.519-.694-3.037-.966-4.556l-.162-.91c-.322 1.821-.806 3.644-1.29 5.466l-2.577 8.655H20.47v.152L16.12 1.518h2.417l2.095 8.352c.435 1.913.87 3.704 1.188 5.26l.1.51c.323-1.67.807-3.644 1.451-5.77l2.417-8.352h2.417L30.3 9.87c.43 1.755.86 3.51 1.176 5.051l.113.568c.322-1.823.806-3.645 1.45-5.77l2.256-8.352h2.256zm41.895 6.075h-.483c-1.934.151-3.545 1.67-3.545 3.492h6.768c.322-1.67-.967-3.189-2.74-3.492zM40.13 1.518c.91 0 1.535.539 1.605 1.235l.007.132c0 .76-.645 1.367-1.45 1.367-.806 0-1.45-.608-1.45-1.367 0-.712.566-1.29 1.168-1.36l.12-.007z" transform="translate(.999 -.002)"/>
        </g>
    </g>
</svg>
