<svg xmlns="http://www.w3.org/2000/svg" width="136" height="102" viewBox="0 0 136 102">
    <g fill="none" fill-rule="evenodd" opacity=".7">
        <path fill="#1B1B1B" d="M66.292 91.538l1.132 2.957h3.393l-2.747 1.922 1.131 2.956-2.747-1.922-2.748 1.922 1.132-2.956-2.748-1.922h3.394l.808-2.957zm12.445-1.33l1.13 2.956h3.395l-2.748 1.922 1.132 2.957-2.748-1.922-2.747 1.922 1.131-2.957-2.747-1.922h3.393l.809-2.956zm-25.05-.444l1.13 2.957h3.395l-2.748 1.922 1.131 2.956-2.747-1.922-2.747 1.922 1.13-2.956-2.747-1.922h3.394l.808-2.957zm37.655-3.99l1.132 2.956h3.394L93.12 90.65l1.131 2.957-2.747-1.922-2.747 1.922 1.13-2.957-2.747-1.921h3.394l.808-2.957zm-50.261 0l1.13 2.956h3.395l-2.748 1.921 1.132 2.957-2.748-1.922-2.747 1.922 1.131-2.957-2.747-1.921h3.393l.809-2.957zM99.26 4.911c2.586 2.07 3.556 5.174 2.586 8.13l3.07 2.81c1.294 1.182 2.587 2.512 3.718 3.843-.808-3.4.162-7.096 2.91-9.609 4.201 5.47.807 10.791-.486 12.565 1.132 1.626 2.263 3.4 3.232 5.174.162-3.252 1.617-6.356 4.04-8.721 5.334 6.947.486 14.043-.807 15.67.646 2.069 1.293 4.138 1.616 6.208 2.262-6.357 9.373-8.13 9.373-8.13.647 7.686-5.98 11.678-8.727 13.008.162.887.162 1.922.162 2.957 0 1.182 0 2.513-.162 3.695 3.394-6.208 11.152-7.391 11.152-7.391-.324 9.46-9.536 13.009-12.121 13.748-.485 2.07-1.132 4.139-1.94 6.208 6.303-6.504 15.677-4.139 15.677-4.139-4.411 7.653-13.26 7.972-17.25 7.983h-.69c-.969 1.922-2.1 3.843-3.393 5.765 4.363-2.217 9.373-2.809 14.06-1.774-5.333 9.609-16.97 9.165-20.04 8.87-1.778 1.626-3.555 3.252-5.656 4.73-.146.133-.553.147-.75-.068l-.058-.08-1.293-1.478-.044-.088c-.115-.265-.086-.518.205-.651 1.94-1.33 3.717-2.809 5.495-4.435-9.05-9.756-.646-19.66-.646-19.66 4.525 4.73 5.818 11.382 3.232 17.147 2.747-2.808 5.01-6.06 6.788-9.46-10.02-6.653-5.657-16.705-5.657-16.705 4.849 2.66 7.596 7.391 7.596 12.417 1.293-2.956 2.101-6.208 2.586-9.46-6.303-1.922-10.343-7.392-9.697-13.453 5.172 1.479 9.05 5.618 10.02 10.496.162-1.183.162-2.217.162-3.4 0-2.513-.162-4.878-.647-7.243-5.818-.444-10.666-4.287-11.96-9.461 4.526 0 8.566 1.921 11.152 5.321-.646-2.66-1.616-5.174-2.909-7.687-5.818.74-11.636-2.365-13.737-7.39 4.525-.592 9.05 1.034 11.96 4.286-1.94-3.104-4.203-6.06-6.788-8.722-5.01 1.479-10.505-.295-13.414-4.287 2.637-.993 5.573-.896 8.234.16l.331.136.162-.148c-1.455-1.33-2.424-2.07-2.91-2.513-3.231.296-6.14-1.182-7.595-3.695 3.07-.592 6.141.59 7.92 2.956.484.296 1.13.887 1.938 1.478-.97-1.921-.97-3.991 0-5.913zm-65.938 0c.97 1.922.97 3.992 0 5.913.808-.591 1.455-1.182 1.94-1.478 1.777-2.365 4.848-3.548 7.919-2.956-1.455 2.513-4.364 3.99-7.596 3.695-.485.444-1.455 1.183-2.91 2.513l.162.148c2.748-1.183 5.818-1.33 8.566-.296-2.91 3.992-8.404 5.766-13.414 4.287-2.586 2.661-4.849 5.618-6.788 8.722 2.91-3.252 7.434-4.878 11.96-4.287-2.101 5.026-7.92 8.13-13.738 7.391-1.293 2.513-2.262 5.027-2.909 7.687 2.586-3.4 6.626-5.321 11.152-5.321-1.293 5.174-6.142 9.017-11.96 9.46-.485 2.366-.646 4.731-.646 7.244 0 1.183 0 2.217.161 3.4.97-4.878 4.849-9.017 10.02-10.496.647 6.061-3.393 11.53-9.696 13.453.484 3.252 1.293 6.504 2.585 9.46 0-5.026 2.748-9.756 7.596-12.417 0 0 4.364 10.052-5.656 16.704 1.778 3.4 4.04 6.653 6.788 9.461-2.586-5.765-1.293-12.417 3.232-17.148 0 0 8.404 9.905-.647 19.661 1.778 1.626 3.556 3.105 5.495 4.435.291.133.32.386.205.65l-.043.09-1.293 1.477c-.162.296-.647.296-.808.148-2.101-1.478-3.879-3.104-5.657-4.73-3.07.295-14.706.739-20.04-8.87 4.687-1.035 9.697-.443 14.06 1.774-1.292-1.922-2.424-3.843-3.393-5.765h-.69c-4.007-.011-12.99-.33-17.25-7.983 0 0 9.374-2.365 15.677 4.14-.808-2.07-1.454-4.14-1.94-6.21-2.585-.738-11.797-4.286-12.12-13.747 0 0 7.757 1.183 11.151 7.391-.161-1.182-.161-2.513-.161-3.695 0-1.035 0-2.07.161-2.957-2.747-1.33-9.373-5.322-8.727-13.009 0 0 7.111 1.774 9.374 8.13.323-2.069.97-4.138 1.616-6.208-1.293-1.626-6.142-8.722-.808-15.67 2.424 2.366 3.878 5.47 4.04 8.722.97-1.774 2.101-3.4 3.232-5.174-1.293-1.774-4.686-7.095-.485-12.565 2.748 2.513 3.718 6.209 2.91 9.609 1.13-1.33 2.424-2.661 3.717-3.844l3.07-2.808c-.97-2.957 0-6.061 2.586-8.13zm44.282 70.07v.591c-.646.591-1.293 1.478-1.616 2.513-.323 1.035-.485 2.07-.485 3.105v.739h-1.616c0-.592 0-1.183.162-1.774.161-.592.485-1.33.808-1.922.485-.74.97-1.478 1.616-2.07h-2.586c-.323 0-.485 0-.808.148-.162.148-.323.296-.323.444h-.485l.162-.74c0-.59.161-.886.161-1.034h5.01zm-13.414-.148c.647 0 1.132.148 1.616.443.485.296.808.74 1.132 1.183.485 1.183.485 2.661 0 3.844-.485 1.034-1.616 1.626-2.748 1.626-.646 0-1.131-.148-1.616-.444-.485-.295-.808-.739-1.131-1.182-.323-.592-.485-1.183-.323-1.922 0-.591.161-1.33.323-1.922.485-1.035 1.616-1.626 2.747-1.626zm-4.687 4.73l.647.296c-.162.444-.162.74-.162 1.183 0 .295 0 .591-.161.887h-4.849v-.887l.809-.74h2.585c.27-.004.539-.024.808-.147.162-.148.323-.444.323-.592zm11.475-4.878v6.505c0 .147 0 .295.162.295h.646v.296h-3.394v-.296h.647c.134 0 .157 0 .254-.085l.069-.063v-5.174H69.2l-.808.296-.161-.443c.484-.296 1.13-.444 1.777-.887.324-.148.485-.296.647-.444h.323zm-6.626.444c-.323 0-.647.147-.808.295-.323.296-.485.592-.485 1.035-.323 1.33-.323 2.513-.162 3.844 0 .295.162.739.485.887.485.295 1.293.295 1.778 0 .323-.296.485-.592.485-.887.138-.507.158-1.123.161-1.66v-.262c0-.591 0-1.33-.161-1.922 0-.296-.162-.739-.485-1.035-.162-.148-.485-.295-.808-.295zm-7.111-.444c.646 0 1.293.148 1.94.444.484.295.807.739.807 1.33 0 .296-.161.591-.323.887-.162.296-.485.591-.808.887-.485.443-.97.74-1.454 1.035L55.79 80.3l.644-.589c.485-.443.97-.887 1.454-1.478.324-.443.485-1.035.485-1.626 0-.296 0-.74-.323-1.035-.162-.148-.485-.296-.808-.296-.162 0-.485 0-.647.148-.161.148-.323.296-.323.444v.591c0 .148 0 .296-.161.444-.135.123-.27.143-.404.147h-.081c-.162 0-.485 0-.647-.295-.161-.148-.161-.444-.161-.592 0-.295.161-.59.323-.739.162-.295.485-.443.808-.591.485-.148.808-.148 1.293-.148zM61.12 67v1.035h-.162c0-.148 0-.443-.162-.591-.138-.127-.395-.145-.67-.148h-.784s-.162 0-.162.148v1.478h.485c.162 0 .323 0 .323-.148.162-.148.162-.296.162-.443h.162v1.478h-.162c0-.148 0-.296-.162-.444-.134-.123-.157-.143-.254-.147h-.554v1.626h.485v.295h-1.778l-.161-.443h.323c.139 0 .158 0 .161-.093v-3.16c0-.126 0-.144-.101-.147h-.383v-.296h3.394zM38.98 67c.161 0 .323 0 .484.148.162 0 .162 0 .324.148h.323v.887h-.162c0-.296-.161-.444-.485-.591-.161-.148-.484-.296-.808-.296-.323 0-.646.148-.97.443-.16.444-.323.887-.323 1.33 0 .444.162.888.324 1.331.161.296.485.444.97.444.323 0 .484-.148.807-.296.162-.148.324-.443.485-.591h.323v.887h-.323c-.161 0-.161 0-.323.148-.162 0-.323.147-.485.147h-.485c-.323 0-.808 0-1.13-.295-.324-.148-.647-.444-.809-.74-.162-.295-.323-.739-.323-1.034-.162-.592.161-1.035.485-1.478.484-.296.97-.592 1.616-.592h.485zm38.787-.295v.295h-.323c-.162 0-.162 0-.162.148l-.97 1.33 1.132 1.774c0 .148.161.148.161.148l.323.296v.296H75.99v-.296h.323v-.148l-.808-1.183-.808 1.183h.323v.296h-1.13v.148h-3.395v-.296c.162 0 .162 0 .162-.148v-3.252h-.323v-.296h3.232v1.035h-.323c0-.148 0-.443-.162-.591-.138-.127-.396-.145-.67-.148h-.623s-.161 0-.161.148v1.478h.484c.162 0 .324 0 .324-.148.161-.148.161-.296.161-.443h.162v1.478h-.162c0-.148 0-.296-.161-.444-.135-.123-.158-.143-.255-.147h-.553v1.478s0 .148.161.148h.808c.323 0 .485 0 .647-.296.161-.148.323-.443.323-.74h.323v.74h.323c.162 0 .162 0 .162-.148l.97-1.478-.97-1.626c0-.148-.162-.148-.162-.148h-.161v-.296h1.94v.296h-.324l.646 1.035.808-1.035v-.148h-.484v-.295h1.13zm-26.02.443v.148h-.323s-.162 0-.162.148v3.548h-.485l-2.747-3.4v3.104c0 .127 0 .145.102.147h.383v.149h-1.132v-.148h.324c.138 0 .158 0 .16-.093l.001-3.307h-.485v-.148h1.455l2.101 2.66v-2.364c0-.127 0-.145-.102-.148h-.383v-.148l1.293-.148zm-9.535-.148v.296h-.485v1.478h1.616v-1.33c0-.127 0-.145-.102-.148h-.383v-.296h1.778v.296h-.485v3.252c0 .127 0 .145.102.147h.383v.297h-1.778v-.296h.324c.161 0 .161 0 .161-.148v-1.478h-1.616v1.478c0 .127 0 .145.102.147h.383v.297h-1.778v-.296h.323s.162 0 .162-.148v-3.104c0-.127 0-.145-.102-.148h-.383v-.296h1.778zm11.798 0l1.454 3.105c0 .147.162.295.162.295s.119.109.254.14l.069.008.323.148v.296h-2.1v-.296h.322c.162 0 .162 0 .162-.148v-.296l-.323-.59h-1.455l-.161.59c0 .148-.162.148-.162.296 0 .127 0 .145.102.147h.383v.297h-1.293v-.296h.162c.161 0 .161 0 .161-.148.162-.148.162-.296.162-.443l1.454-3.105h.324zm13.898 0c.324 0 .808 0 1.132.296.323.148.323.443.323.739s-.162.443-.323.591c-.162.148-.485.296-.808.296.161 0 .323 0 .484.148.162.148.324.148.485.443.162.148.162.444.162.592v.443c0 .148.162.148.162.148h.323v.148h-1.293c0-.148-.162-.296-.162-.444v-.443c0-.296 0-.444-.323-.592-.135-.123-.382-.143-.554-.147h-.254v1.33c0 .127 0 .145.102.147h.383v.297h-1.778v-.296h.323s.162 0 .162-.148v-3.252h-.323v-.296h1.777zM47.06 67v.296h-.485v3.252c0 .127 0 .145.102.147h.383v.297h-1.777v-.296h.323s.161 0 .161-.148v-3.252h-.484v-.296h1.777zm40.08-.295v.295h-.323c-.161 0-.161 0-.161.148l-.97 1.33 1.131 1.774c0 .148.162.148.162.148l.323.296v.296h-1.94v-.296h.324v-.148l-.808-1.183-.808 1.183h.323v.296h-1.131v-.296h.323c.162 0 .162 0 .162-.148l.97-1.478-.97-1.626c0-.148-.162-.148-.162-.148h-.162v-.296h1.94v.296h-.324l.647 1.035.808-1.035v-.148h-.485v-.295h1.131zm-4.202.295v1.035h-.484c0-.148 0-.443-.162-.591-.139-.127-.396-.145-.67-.148h-.623s-.162 0-.162.148v1.478h.485c.162 0 .324 0 .324-.148.161-.148.161-.296.161-.443h.162v1.478h-.162c0-.148 0-.296-.161-.444-.135-.123-.158-.143-.255-.147h-.554v1.478s0 .148.162.148h.808c.323 0 .485 0 .647-.296.161-.148.323-.443.323-.74h.323v1.184h-3.394l-.161-.296h.323c.138 0 .158 0 .16-.093l.001-3.307h-.323v-.296h3.232zm6.627 0c.484 0 .808 0 1.13.296.324.148.324.443.324.739s-.161.591-.323.887c-.323.148-.647.296-.97.296h-.808v1.182c0 .127 0 .145.102.148h.383v.296h-1.778v-.148h.323s.162 0 .162-.148v-3.252h-.323v-.296h1.778zm4.04.148c1.131.148 1.778 1.035 1.778 1.922-.1.632-.5 1.099-1.017 1.366l-.062.029-.02.03c-.037.05-.08.094-.125.137l-.07.064c-.484.148-.969.148-1.292 0-.023-.021-.046-.045-.069-.072l-.051-.065-.052-.023c-.652-.325-1.121-1.086-1.121-1.762 0-.443.162-.887.485-1.182.485-.296.97-.592 1.616-.444zm-30.06 0c1.131.148 1.778 1.035 1.778 1.922-.081.517-.364.924-.748 1.2l-.103.069-.034.076c-.046.084-.11.152-.178.217l-.069.064c-.485.148-.97.148-1.293 0-.023-.021-.046-.045-.068-.072l-.018-.021-.09-.03c-.82-.305-1.278-1.052-1.278-1.799 0-.443.161-.887.485-1.182.485-.296.97-.592 1.616-.444zm29.252.296c-.162.148-.323.295-.323.591-.162.74-.162 1.33 0 2.07 0 .105.082.286.188.435l.015.019.073.032c.126.05.258.084.394.098l.138.007c.323 0 .646-.066.94-.192l.082-.04.033-.05c.046-.083.076-.183.076-.31.162-.739.162-1.33 0-2.069 0-.148-.162-.443-.323-.591-.323-.148-.808-.148-1.293 0zm-29.899 0c-.161.148-.323.295-.323.591-.161.74-.161 1.33 0 2.07 0 .105.083.286.189.435l.048.063.069.022c.054.016.11.03.166.041l.175.03c.43 0 .862-.117 1.222-.338l.028-.02.007-.013c.022-.064.036-.136.036-.22.161-.74.161-1.33 0-2.07 0-.148-.162-.443-.324-.591-.323-.148-.808-.148-1.293 0zm-9.212.591l-.646 1.478h1.293l-.647-1.478zm35.717-.591h-.323v1.626h.323v.148c.162 0 .323-.148.485-.296.138-.127.158-.362.161-.52v-.071c0-.148 0-.444-.161-.592-.162-.147-.323-.295-.485-.295zm-21.737.148h-.404v1.626l.485-.148c.161 0 .323-.148.323-.148.139-.127.158-.362.161-.52v-.071c0-.148 0-.444-.161-.592-.135-.123-.27-.143-.404-.147zm-24-21.287c.808 0 1.778.147 2.425.59.484.444.808 1.036.808 1.775 0 .591-.162 1.182-.647 1.626-.485.443-.97.739-1.616.887.323 0 .808.148 1.131.295.324.148.647.592.97.887.323.444.323.887.323 1.33 0 .297 0 .592.162.888.161.295.161.443.323.591h.485v.444h-2.747c-.139-.254-.159-.507-.162-.854v-1.216c0-.591-.162-1.183-.647-1.478-.323-.296-.808-.444-1.454-.444h-.485v3.252c0 .263.128.292.27.296h.861v.591h-4.04v-.739h.808c.162 0 .323-.148.323-.295v-7.392c0-.147 0-.147-.161-.295 0 0-.162-.148-.324-.148h-.484v-.591h3.878zm47.353 0l3.232 6.652 3.071-6.652h2.91v.59h-.486s-.161 0-.161.149v7.539c0 .295.161.295.323.295l.162.148v.592h-4.04v-.592h.807c.162 0 .323-.148.323-.295v-6.8l-3.555 7.834h-.485l-3.879-8.278v7.244c0 .262.128.292.27.295h.862v.592h-2.586v-.592h.646c.162 0 .324-.148.324-.295v-7.687s0-.148-.162-.148h-.647v-.591h3.071zm-27.313 0c.324 0 .809 0 1.132.147.323.148.808.148 1.131.296.162 0 .323.148.485.148h.485v2.07h-.808v-.296c0-.592-.162-1.035-.647-1.478-.485-.444-1.131-.592-1.778-.592-.808 0-1.616.444-1.939 1.183-.485 1.035-.808 2.07-.646 3.252 0 2.66.808 3.991 2.424 3.991.323 0 .485 0 .808-.148.323-.147.485-.295.646-.443v-2.217c0-.263-.127-.292-.27-.296h-1.023v-.591h4.04v.591h-.484c-.139 0-.158 0-.161.093v3.16h-.809c-.161 0-.323.147-.485.147-.323.148-.808.296-1.13.296-.486.147-.809.147-1.294.147-1.293 0-2.586-.295-3.394-1.182-.97-1.035-1.293-2.218-1.293-3.548s.485-2.66 1.455-3.548c.97-.887 2.263-1.33 3.555-1.182zm8.566 0c.808 0 1.778.147 2.424.59.485.444.808 1.036.808 1.775 0 .591-.161 1.182-.646 1.626-.485.443-.97.739-1.616.887.323 0 .808.148 1.13.295.324.148.647.592.97.887.324.444.324.887.324 1.33 0 .297 0 .592.161.888.162.295.162.443.324.591h.485v.444h-2.748c-.138-.254-.158-.507-.161-.854v-1.216c0-.591-.162-1.183-.647-1.478-.323-.296-.808-.444-1.454-.444h-.485v3.252c0 .263.127.292.27.296h.861v.591h-3.879v-.739h.647c.161 0 .323-.148.323-.295v-7.392c0-.147 0-.147-.162-.295 0 0-.161-.148-.323-.148h-.485v-.591h3.879zm-19.07 0c1.292-.148 2.585.443 3.555 1.182 1.616 2.07 1.616 4.878 0 6.948-1.94 1.626-5.01 1.626-6.95 0-1.615-2.07-1.615-4.878 0-6.948.97-.887 2.102-1.33 3.395-1.182zm29.413 0l3.233 7.539.484.887c.135.123.27.246.404.284l.081.011h.323v.592h-4.525v-.592h.647c.323 0 .485-.148.485-.295 0-.148 0-.444-.162-.592l-.485-1.33h-3.394l-.485 1.183c-.161.295-.161.443-.161.739 0 .147.161.295.323.295h.646v.592h-2.747v-.592h.485c.161 0 .485-.148.485-.295l.485-.887 3.07-7.54h.808zm-46.544.147c.97 0 1.777.148 2.585.592.647.443.808 1.182.808 1.921 0 .74-.323 1.479-.808 2.07-.646.591-1.293.74-2.1.74H35.1v2.956c0 .262.128.292.27.295h.861v.592h-3.879v-.592h.162c.162 0 .323-.148.323-.295v-7.687s-.161-.148-.323 0h-.485v-.592h4.04zm15.838.592c-.324.295-.647.739-.808 1.33-.324 1.774-.324 3.4 0 5.026.161.444.323.887.808 1.33.808.444 1.939.444 2.747 0 .323-.295.647-.738.808-1.33.323-1.626.323-3.4 0-5.026-.161-.443-.323-.887-.808-1.33-.808-.444-1.94-.444-2.747 0zm29.413 1.626l-1.454 3.548h2.909l-1.455-3.548zm-45.736-1.774h-.808v4.139l.97.148c.484 0 .807-.296.969-.591.323-.444.485-1.035.323-1.627 0-.443-.161-1.034-.323-1.478-.162-.295-.646-.591-1.131-.591zm36.524 0h-.484c-.139 0-.159 0-.162.093v3.75l.97.148c.323 0 .646-.148.808-.591.161-.444.323-.887.323-1.478 0-.592-.162-1.035-.323-1.479-.324-.295-.647-.443-1.132-.443zm-28.605 0h-.485c-.139 0-.158 0-.161.093v3.75l.969.148c.323 0 .646-.148.808-.591.162-.444.323-.887.323-1.478 0-.592-.161-1.035-.323-1.479-.323-.295-.646-.443-1.131-.443zm12.767-13.452c.808 0 1.778.148 2.424.591.485.443.808 1.035.808 1.774 0 .591-.161 1.183-.646 1.626-.485.443-.97.74-1.616.887.323 0 .808.148 1.131.296.323.147.647.59.97.887.287.394.32.788.323 1.182v.148c0 .296 0 .591.162.887.161.296.161.443.323.591h.485v.444h-2.424c-.139-.254-.159-.507-.162-.854v-1.216c0-.591-.162-1.182-.646-1.478-.324-.296-.809-.444-1.455-.444h-.485v3.253c0 .262.128.292.27.295h.861v.592h-4.04v-.74h.485c.162 0 .323-.147.323-.295v-7.392c0-.147 0-.147-.161-.295 0 0-.162-.148-.324-.148h-.484v-.591h3.878zm35.717 0c.808 0 1.778.148 2.424.591.485.443.808 1.035.808 1.774 0 .591-.162 1.183-.646 1.626-.485.443-.97.74-1.616.887.323 0 .808.148 1.13.296.324.147.647.59.97.887.324.443.324.887.324 1.33 0 .296 0 .591.161.887.162.296.162.443.324.591h.484v.444h-2.585c-.139-.254-.159-.507-.162-.854v-1.216c0-.591-.162-1.182-.646-1.478-.324-.296-.809-.444-1.455-.444h-.485v3.253c0 .262.128.292.27.295h.861v.592h-4.04v-.74h.647c.161 0 .323-.147.323-.295v-7.392c0-.147 0-.147-.162-.295 0 0-.161-.148-.323-.148h-.485v-.591h3.879zm-19.394 0l4.687 6.356v-5.617c0-.127-.119-.254-.254-.287l-.07-.009h-.807v-.443l2.747.295v.444h-.646c-.162 0-.324.148-.324.295v8.427h-.97l-5.979-8.13v7.243c0 .262.128.292.27.295h.861v.444h-2.585v-.444h.646c.162 0 .323-.148.323-.295V34.33c0-.148 0-.148-.161-.296l-.162-.148h-.646v-.443h3.07zm-25.212 0l3.233 7.539.485.887c.134.123.269.246.404.284l.08.011h.485v.592h-4.525v-.592h.647c.323 0 .484-.147.484-.295s0-.444-.161-.592l-.485-1.33h-3.394l-.485 1.183c-.161.295-.161.443-.161.739 0 .148.161.295.323.295h.646v.592H42.05v-.592h.485c.162 0 .485-.147.485-.295l.485-.887 3.07-7.54h.808zm-7.434.148c.97 0 1.778.147 2.586.59.647.444.808 1.183.808 1.923 0 .739-.323 1.478-.808 2.07-.646.59-1.293.738-2.1.738h-1.617v2.957c0 .263.128.292.27.295h.861v.592h-4.04v-.592h.485c.161 0 .323-.147.323-.295v-7.687s-.162-.148-.323 0h-.485v-.591h4.04zm28.767 0v2.365h-.484c0-.444-.162-1.035-.485-1.33-.323-.296-.97-.444-1.455-.444h-.323c-.138 0-.158 0-.161.093v7.594c0 .263.127.292.269.295h.862v.592h-4.364v-.592h.808c.139 0 .159 0 .161-.093v-7.89c0-.126 0-.144-.1-.147h-.384c-.485 0-1.131.148-1.455.443-.323.444-.484.887-.484 1.33h-.485l.323-2.216h7.757zm18.101-.148v2.365h-.485c0-.444-.161-1.035-.484-1.33-.485-.296-1.132-.444-1.617-.444h-1.13c-.14 0-.16 0-.162.093v3.455h1.13c.324 0 .647-.148.809-.444.161-.295.323-.739.323-1.182h.485v3.548H85.2c0-.444-.162-.74-.323-1.035-.162-.296-.485-.444-.808-.444h-1.132v3.696c0 .127 0 .145.102.147h1.676c.647 0 1.132-.147 1.616-.59.324-.444.647-1.035.485-1.627h.485v2.81h-7.434v-.297h.485c.161 0 .323-.147.323-.295v-7.392c0-.147 0-.147-.162-.295l-.161-.148h-.485v-.591h6.95zm-40.565 2.365l-1.454 3.548h2.909l-1.455-3.548zm-6.788-1.626h-.808v4.139l.97.148c.485 0 .808-.296.97-.592.323-.443.485-1.034.323-1.626 0-.443-.162-1.034-.323-1.478-.162-.296-.647-.591-1.132-.591zm52.363 0h-.485c-.138 0-.158 0-.16.093l-.001 3.75.97.148c.323 0 .646-.148.808-.591.161-.444.323-.887.323-1.478 0-.592-.162-1.035-.323-1.479-.324-.295-.647-.443-1.132-.443zm-35.716 0h-.485c-.139 0-.159 0-.161.093v3.75l.969.148c.323 0 .646-.148.808-.591.162-.444.323-.887.323-1.478 0-.592-.161-1.035-.323-1.479-.323-.295-.647-.443-1.131-.443zm14.383-13.305c.323 0 .647 0 .808.148.162 0 .485.148.647.148.161.148.323.148.485.148.161 0 .323.148.484.148h.485v2.07h-.485c0-.592-.161-1.183-.646-1.479-.485-.443-.97-.591-1.616-.591-.485 0-.808.148-1.131.443-.324.296-.485.592-.485 1.035 0 .296.161.591.323.74.323.295.646.443.97.59l1.293.592c.646.295 1.292.591 1.616 1.035.323.443.484 1.034.484 1.478 0 .591-.161 1.035-.323 1.478-.323.444-.646.74-1.131 1.035-.485.296-1.131.443-1.778.443-.485 0-.97 0-1.454-.147-.324-.148-.808-.148-1.132-.296h-.646V27.53c0-.444 0-.592-.162-.592h.647c0 .74.323 1.479.808 2.07.485.443 1.131.739 1.778.739.484 0 .97-.148 1.293-.443.323-.296.484-.74.484-1.183 0-.74-.484-1.33-1.454-1.626l-1.455-.591c-1.131-.296-1.777-1.33-1.777-2.366 0-.443.161-.887.323-1.33.161-.444.646-.74.97-1.035.484-.296 1.13-.443 1.777-.296zm11.636 0v2.366h-.484c0-.444-.162-1.035-.485-1.33-.324-.296-.97-.444-1.455-.444h-.323c-.139 0-.158 0-.161.093v7.594c0 .263.127.292.269.295h.862v.592h-4.364v-.592h.808c.139 0 .158 0 .161-.093v-7.89c0-.126 0-.144-.101-.147h-.383c-.485 0-1.131.148-1.455.443-.323.444-.484.887-.484 1.33h-.162v-2.217h7.757zm-26.99 0c.486 0 1.132.148 1.779.592.485.443.646 1.035.646 1.626 0 .443-.161 1.035-.646 1.33-.485.444-.97.592-1.455.74.485 0 .97.147 1.293.295.323.148.647.444.97.887.161.296.323.74.323 1.183 0 1.626-1.131 2.513-3.394 2.513h-4.525v-.592h.808c.162 0 .323-.147.323-.295v-7.54l-.161-.147h-.647v-.592h4.687zm10.506-.147v2.365h-.485c0-.444-.162-1.035-.485-1.33-.485-.296-1.131-.444-1.616-.444h-1.131c-.139 0-.159 0-.161.093v3.455h1.13c.324 0 .647-.148.808-.444.162-.295.324-.739.324-1.182h.485v3.548h-.485c0-.444-.162-.74-.324-1.035-.161-.296-.484-.444-.808-.444h-1.13v3.696c0 .127 0 .145.1.147h1.677c.646 0 1.131-.147 1.616-.59.323-.444.646-1.035.485-1.627h.485v2.809h-7.435v-.296h.485c.162 0 .323-.147.323-.295v-7.392c0-.147 0-.147-.161-.295l-.162-.148h-.485v-.591h6.95zm-11.152 4.878h-1.292v3.696c0 .126 0 .144.101.147h.868c.485 0 .97-.147 1.293-.443.323-.444.485-.887.485-1.478 0-.592-.162-1.035-.323-1.479-.323-.295-.647-.443-1.132-.443zm-.646-4.14h-.485c-.138 0-.158 0-.161.094v3.455h.808c.323 0 .808-.148.97-.444.323-.443.323-.887.323-1.33 0-1.183-.485-1.774-1.455-1.774zM66.292 1.513l1.455 4.14h4.848l-3.879 2.512 1.455 4.14-3.879-2.513-3.878 2.513 1.454-4.14-3.879-2.513h4.849l1.454-4.139z"/>
    </g>
</svg>
