<svg xmlns="http://www.w3.org/2000/svg" width="73.033" height="66.895" viewBox="0 0 73.033 66.895">
    <defs>
        <style>
            .cls-3{fill:#081f3b}
        </style>
    </defs>
    <g id="Group_206" transform="translate(-3042.218 -3191.97)">
        <g id="Group_204">
            <path id="Path_660" fill="#eff4fa" d="M3042.651 3210.644c3.686 14.463-1.276 26.3.5 33.274s9.513 20.585 41.574 12.417 31.751-29.058 29.8-36.725c-9.144-35.9-78.4-34.581-71.869-8.966zm0 0"/>
        </g>
        <path id="Path_661" fill="#a4aec0" d="M3103.336 3221.095a3.237 3.237 0 1 1 1.963 4.135 3.242 3.242 0 0 1-1.963-4.135zm4.065 1.448a1.079 1.079 0 1 0-1.378.655 1.079 1.079 0 0 0 1.378-.655zm0 0"/>
        <g id="Group_205">
            <path id="Path_662" d="M3091.455 3242.656h-31.944a3.739 3.739 0 0 1-3.735-3.735v-25.636a3.74 3.74 0 0 1 3.735-3.735h27.7a3.739 3.739 0 0 1 3.735 3.735v.067h.505a3.739 3.739 0 0 1 3.735 3.735v1.928a.847.847 0 1 1-1.694 0v-1.928a2.043 2.043 0 0 0-2.041-2.041h-30a.847.847 0 0 1 0-1.694h27.8v-.067a2.044 2.044 0 0 0-2.042-2.041h-27.7a2.043 2.043 0 0 0-2.041 2.041v25.636a2.042 2.042 0 0 0 2.041 2.041h31.944a2.043 2.043 0 0 0 2.041-2.041v-2.521a.847.847 0 0 1 1.694 0v2.523a3.739 3.739 0 0 1-3.733 3.733z" class="cls-3"/>
            <path id="Path_663" fill="#e34" d="M3096.779 3234.288h-11.431a6.582 6.582 0 0 1 0-13.163h11.431a.847.847 0 0 1 .847.847v11.469a.847.847 0 0 1-.847.847zm-11.431-11.469a4.887 4.887 0 0 0 0 9.775h10.584v-9.775z"/>
            <path id="Path_664" d="M3084.828 3230.412a2.706 2.706 0 1 1 2.705-2.705 2.709 2.709 0 0 1-2.705 2.705zm0-3.717a1.011 1.011 0 1 0 1.012 1.012 1.013 1.013 0 0 0-1.012-1.007z" class="cls-3"/>
        </g>
    </g>
</svg>
