<svg xmlns="http://www.w3.org/2000/svg" width="73.032" height="66.895" viewBox="0 0 73.032 66.895">
    <defs>
        <style>
            .cls-3{fill:#081f3b}.cls-4{fill:#e34}
        </style>
    </defs>
    <g id="Group_213" transform="translate(-2384.086 -3191.97)">
        <g id="Group_207">
            <path id="Path_665" fill="#eff4fa" d="M2384.519 3210.644c3.686 14.463-1.277 26.3.5 33.274s9.513 20.585 41.575 12.417 31.75-29.058 29.795-36.725c-9.144-35.9-78.4-34.581-71.868-8.966zm0 0"/>
        </g>
        <path id="Path_666" fill="#a4aec0" d="M2420.518 3200.373a3.236 3.236 0 1 1 1.962 4.135 3.239 3.239 0 0 1-1.962-4.135zm4.065 1.449a1.079 1.079 0 1 0-1.379.654 1.082 1.082 0 0 0 1.379-.654zm0 0"/>
        <g id="Group_212">
            <path id="Path_667" d="M2445 3237.55h-38.91a.768.768 0 0 1 0-1.536h37.627l3.489-19.331h-41.492a.768.768 0 0 1 0-1.536h43.331z" class="cls-3"/>
            <g id="Group_210">
                <g id="Group_208">
                    <path id="Path_668" d="M2402.572 3227.116h-10.611a.768.768 0 0 1 0-1.536h10.611a.768.768 0 1 1 0 1.536z" class="cls-3"/>
                    <path id="Path_669" d="M2407.226 3227.116h-1.9a.768.768 0 0 1 0-1.536h1.9a.768.768 0 0 1 0 1.536z" class="cls-3"/>
                </g>
                <path id="Path_670" d="M2407.47 3233.262h-10.36a.768.768 0 0 1 0-1.537h10.36a.768.768 0 0 1 0 1.537z" class="cls-3"/>
                <g id="Group_209">
                    <path id="Path_671" d="M2406.674 3220.971h-4.835a.768.768 0 1 1 0-1.536h4.835a.768.768 0 0 1 0 1.536z" class="cls-3"/>
                    <path id="Path_672" d="M2398.7 3220.971h-.769a.768.768 0 1 1 0-1.536h.769a.768.768 0 1 1 0 1.536z" class="cls-3"/>
                </g>
            </g>
            <path id="Path_673" d="M2438.817 3234.124h-27.2l.163-.9a1.335 1.335 0 0 0-.249-1.113 1.262 1.262 0 0 0-.994-.425h-.919l1.926-10.67h.642a2.29 2.29 0 0 0 2.124-1.808l.113-.632h27.2l-.164.905a1.328 1.328 0 0 0 .248 1.11 1.262 1.262 0 0 0 1 .425h.919l-1.925 10.67h-.642a2.294 2.294 0 0 0-2.126 1.811zm-25.494-1.536h24.277a3.866 3.866 0 0 1 2.807-2.378l1.406-7.792a2.671 2.671 0 0 1-1.278-.847 2.738 2.738 0 0 1-.613-1.463h-24.274a3.858 3.858 0 0 1-2.806 2.376l-1.407 7.793a2.67 2.67 0 0 1 1.278.845 2.748 2.748 0 0 1 .61 1.466z" class="cls-3"/>
            <g id="Group_211">
                <path id="Path_674" d="M2425.958 3230.776a3.778 3.778 0 0 1-2.964-1.327 3.874 3.874 0 0 1-.789-3.237 5.382 5.382 0 0 1 5.075-4.292 3.781 3.781 0 0 1 2.967 1.327 3.877 3.877 0 0 1 .788 3.238 5.314 5.314 0 0 1-5.077 4.291zm1.322-7.32a3.838 3.838 0 0 0-3.563 3.029 2.367 2.367 0 0 0 .455 1.979 2.271 2.271 0 0 0 1.786.776 3.84 3.84 0 0 0 3.565-3.028 2.369 2.369 0 0 0-.455-1.98 2.273 2.273 0 0 0-1.788-.776z" class="cls-4"/>
                <path id="Path_675" d="M2435.85 3226.4a1.168 1.168 0 0 1-1.1.934.76.76 0 0 1-.766-.934 1.172 1.172 0 0 1 1.1-.933.758.758 0 0 1 .766.933z" class="cls-4"/>
                <path id="Path_676" d="M2419.239 3226.4a1.167 1.167 0 0 1-1.1.934.759.759 0 0 1-.765-.934 1.169 1.169 0 0 1 1.1-.933.758.758 0 0 1 .765.933z" class="cls-4"/>
            </g>
        </g>
    </g>
</svg>
