<svg xmlns="http://www.w3.org/2000/svg" width="66.857" height="72.763" viewBox="0 0 66.857 72.763">
    <defs>
        <style>
            .cls-3{fill:#081f3b}
        </style>
    </defs>
    <g id="Group_216" transform="translate(-3369.585 -3193.225)">
        <g id="Group_214">
            <path id="Path_677" fill="#eff4fa" d="M3418.26 3193.679c-14.529 3.416-26.275-1.767-33.277-.122s-20.759 9.128-13.19 41.336 28.461 32.286 36.164 30.475c36.061-8.474 36.035-77.739 10.3-71.689zm0 0"/>
        </g>
        <path id="Path_678" fill="#a4aec0" d="M3399.818 3253.818a3.237 3.237 0 1 1 1.962 4.135 3.24 3.24 0 0 1-1.962-4.135zm4.065 1.449a1.079 1.079 0 1 0-1.378.654 1.082 1.082 0 0 0 1.378-.654zm0 0"/>
        <g id="Group_215">
            <path id="Path_679" d="M3384.7 3218.366a1.06 1.06 0 0 0 1.06-1.06v-8a2.838 2.838 0 0 1 2.834-2.834h8a1.061 1.061 0 1 0 0-2.121h-8a4.961 4.961 0 0 0-4.955 4.955v8a1.06 1.06 0 0 0 1.061 1.06z" class="cls-3"/>
            <path id="Path_680" d="M3396.713 3242.845h-8.118a2.838 2.838 0 0 1-2.834-2.834v-8a1.061 1.061 0 1 0-2.121 0v8a4.961 4.961 0 0 0 4.955 4.955h8.118a1.061 1.061 0 1 0 0-2.121z" class="cls-3"/>
            <path id="Path_681" d="M3423.191 3231.077a1.061 1.061 0 0 0-1.061 1.061v7.873a2.837 2.837 0 0 1-2.834 2.834h-7.873a1.061 1.061 0 1 0 0 2.121h7.873a4.961 4.961 0 0 0 4.955-4.955v-7.873a1.06 1.06 0 0 0-1.06-1.061z" class="cls-3"/>
            <path id="Path_682" d="M3419.3 3204.355h-8a1.061 1.061 0 1 0 0 2.121h8a2.837 2.837 0 0 1 2.834 2.834v8.118a1.061 1.061 0 1 0 2.121 0v-8.118a4.961 4.961 0 0 0-4.955-4.955z" class="cls-3"/>
            <path id="Path_683" fill="#e34" d="M3412.328 3232.428a1.061 1.061 0 0 0-1.914-.63 10.49 10.49 0 0 1-12.575 0 1.061 1.061 0 0 0-1.914.63c0 .506.3.829.9 1.284a10.107 10.107 0 0 0 1.562.965 13.008 13.008 0 0 0 11.48 0 10.194 10.194 0 0 0 1.562-.965c.596-.455.899-.778.899-1.284z"/>
            <path id="Path_684" d="M3406.225 3228.375a1.061 1.061 0 1 0 0-2.121 1.327 1.327 0 0 1-1.325-1.325v-7.229a1.06 1.06 0 0 0-2.121 0v7.229a3.45 3.45 0 0 0 3.446 3.446z" class="cls-3"/>
            <path id="Path_685" d="M3414.561 3219.7v-2.061a1.061 1.061 0 0 0-2.121 0v2.061a1.061 1.061 0 1 0 2.121 0z" class="cls-3"/>
            <path id="Path_686" d="M3393.118 3217.641v2.061a1.061 1.061 0 1 0 2.121 0v-2.061a1.061 1.061 0 0 0-2.121 0z" class="cls-3"/>
        </g>
    </g>
</svg>
