<svg xmlns="http://www.w3.org/2000/svg" width="66.896" height="73.032" viewBox="0 0 66.896 73.032">
    <defs>
        <style>
            .cls-3{fill:#e34}.cls-4{fill:#081f3b}
        </style>
    </defs>
    <g id="Group_203" transform="translate(-2711.349 -3183.371)">
        <g id="Group_201">
            <path id="Path_653" fill="#eff4fa" d="M2730.023 3255.97c14.463-3.686 26.3 1.276 33.274-.5s20.585-9.514 12.417-41.575-29.058-31.751-36.725-29.8c-35.9 9.144-34.581 78.4-8.966 71.869zm0 0"/>
        </g>
        <path id="Path_654" fill="#a4aec0" d="M2744.525 3196.6a3.237 3.237 0 1 1 4.135-1.962 3.239 3.239 0 0 1-4.135 1.962zm1.448-4.065a1.079 1.079 0 1 0 .655 1.379 1.081 1.081 0 0 0-.655-1.379zm0 0"/>
        <g id="Group_202">
            <path id="Path_655" d="M2746.425 3217.445a.814.814 0 1 1-.814-.814.814.814 0 0 1 .814.814zm0 0" class="cls-3"/>
            <path id="Path_656" d="M2745.611 3215a.813.813 0 0 0 .814-.814v-5.373a.814.814 0 0 0-1.628 0v5.373a.814.814 0 0 0 .814.814zm0 0" class="cls-3"/>
            <path id="Path_657" d="M2760.265 3221.515h-3.256a.815.815 0 0 0 0 1.629h1.291l-4.708 4.708-5.988-2.994a.817.817 0 0 0-.94.152l-6.1 6.1-2.732-1.365a.818.818 0 0 0-.728 0l-5.335 2.667v-2.753h2.443a.814.814 0 0 0 0-1.629h-2.443v-1.63h2.443a.814.814 0 0 0 0-1.628h-2.443v-1.628h2.443a.815.815 0 0 0 0-1.629h-2.443v-.814a.814.814 0 0 0-1.628 0v16.771a.814.814 0 0 0 .814.814h29.308a.814.814 0 1 0 0-1.628h-2.442v-10.735l1.628-1.628v1.291a.815.815 0 0 0 1.629 0v-3.26a.818.818 0 0 0-.815-.811zm-26.865 15.143h-1.629v-2.427l1.629-.815zm3.256 0h-1.628v-4.058l1.628-.814zm3.256 0h-1.628v-4.87l1.628.814zm3.257 0h-1.628v-4.222l1.628-1.628zm3.256 0h-1.625v-7.479l1.628-1.628zm3.257 0h-1.628v-9.758l1.628.815zm3.256 0h-1.628v-8.126l1.628.814zm3.257 0h-1.628v-7.479l1.628-1.628zm0 0" class="cls-4"/>
            <path id="Path_658" d="M2746.425 3243.985a.814.814 0 1 1-.814-.814.813.813 0 0 1 .814.814zm0 0" class="cls-4"/>
            <path id="Path_659" d="M2765.639 3239.914h-1.3v-24.1a2.446 2.446 0 0 0-2.442-2.443h-8.723l-5.487-9.109a2.444 2.444 0 0 0-4.145 0l-5.488 9.109h-8.722a2.445 2.445 0 0 0-2.442 2.443v24.1h-1.3a.814.814 0 0 0-.814.815 4.075 4.075 0 0 0 4.07 4.07h13.108a.814.814 0 0 0 0-1.628h-13.114a2.445 2.445 0 0 1-2.3-1.629h38.147a2.447 2.447 0 0 1-2.3 1.629h-13.107a.814.814 0 0 0 0 1.628h13.107a4.075 4.075 0 0 0 4.071-4.07.815.815 0 0 0-.814-.815zm-20.716-34.791a.815.815 0 0 1 1.377 0c.405.676 8.142 13.516 8.144 13.52a.814.814 0 0 1-.691 1.244h-16.283a.815.815 0 0 1-.814-.814.8.8 0 0 1 .123-.43l8.144-13.52zm17.785 34.791h-34.193v-24.1a.815.815 0 0 1 .814-.815h7.742l-1.676 2.784a2.442 2.442 0 0 0 2.075 3.729h16.283a2.443 2.443 0 0 0 2.076-3.729l-1.677-2.784h7.742a.815.815 0 0 1 .814.815zm0 0" class="cls-4"/>
        </g>
    </g>
</svg>
