<svg xmlns="http://www.w3.org/2000/svg" width="94.588" height="84.791" viewBox="0 0 94.588 84.791">
  <defs>
    <style>
      .cls-1 {
        fill: #f6fbfe;
      }

      .cls-2 {
        fill: #a4aec0;
      }

      .cls-3 {
        fill: #e34;
      }

      .cls-4 {
        fill: #081f3b;
      }
    </style>
  </defs>
  <g id="Group_4121" data-name="Group 4121" transform="translate(-8947.142 -9669.269)">
    <g id="Group_4119" data-name="Group 4119">
      <path id="Path_8449" data-name="Path 8449" class="cls-1" d="M9040.235,9723.928c-7.747-16.946-4.285-32.6-8.018-40.766s-16.268-23.173-53.84-6-32.54,42.764-28.432,51.748c19.223,42.066,104.009,25.038,90.289-4.979Zm0,0"/>
    </g>
    <path id="Path_8450" data-name="Path 8450" class="cls-2" d="M9017.755,9748.925a4.041,4.041,0,1,1,4.041-4.041,4.045,4.045,0,0,1-4.041,4.041Zm0-5.388a1.348,1.348,0,1,0,1.348,1.347,1.349,1.349,0,0,0-1.348-1.347Zm0,0"/>
    <g id="Group_4120" data-name="Group 4120">
      <path id="Path_8451" data-name="Path 8451" class="cls-3" d="M9001.555,9693.869a19.021,19.021,0,1,0,19.018,19.024A19.045,19.045,0,0,0,9001.555,9693.869Zm0,35.586a16.564,16.564,0,1,1,16.567-16.562A16.575,16.575,0,0,1,9001.555,9729.455Z"/>
      <path id="Path_8452" data-name="Path 8452" class="cls-4" d="M9013.212,9711.664h-9.532a2.432,2.432,0,0,0-2.758-1.142l-2.254-2.255a1.228,1.228,0,0,0-1.736,1.736l2.254,2.254a2.453,2.453,0,0,0,4.494,1.862h9.532a1.228,1.228,0,1,0,0-2.456Zm0,0"/>
      <path id="Path_8453" data-name="Path 8453" class="cls-4" d="M9001.556,9688.583a24.292,24.292,0,0,0-19.509,9.822h-11.183a1.228,1.228,0,1,0,0,2.456h9.575a24.058,24.058,0,0,0-1.89,4.178c-.024,0-.05,0-.075,0h-14.24a1.228,1.228,0,1,0,0,2.455h13.618a24.08,24.08,0,0,0-.574,4.174h-4.7a1.228,1.228,0,0,0,0,2.456h4.7a24.124,24.124,0,0,0,3.161,10.8h-16.205a1.228,1.228,0,0,0,0,2.456h17.813a24.305,24.305,0,1,0,19.509-38.8Zm0,46.163a21.854,21.854,0,1,1,21.854-21.854,21.878,21.878,0,0,1-21.854,21.854Zm0,0"/>
      <path id="Path_8454" data-name="Path 8454" class="cls-4" d="M9001.556,9723.321a1.228,1.228,0,1,0,.868,2.1,1.228,1.228,0,0,0-.868-2.1Zm0,0"/>
      <path id="Path_8455" data-name="Path 8455" class="cls-4" d="M9001.556,9702.463a1.23,1.23,0,1,0-.867-.36,1.235,1.235,0,0,0,.867.36Zm0,0"/>
      <path id="Path_8456" data-name="Path 8456" class="cls-4" d="M8989.9,9711.664a1.23,1.23,0,1,0,.867.36,1.231,1.231,0,0,0-.867-.36Zm0,0"/>
      <path id="Path_8457" data-name="Path 8457" class="cls-4" d="M8964.234,9720.749h6.63a1.228,1.228,0,0,0,0-2.455h-6.63a1.228,1.228,0,1,0,0,2.455Zm0,0"/>
    </g>
  </g>
</svg>
