<svg xmlns="http://www.w3.org/2000/svg" width="79.27" height="87.061" viewBox="0 0 79.27 87.061">
    <defs>
        <style>
            .cls-3{fill:#081f3b}
        </style>
    </defs>
    <g id="Group_91" transform="translate(-2657.707 -3986.478)">
        <g id="Group_89">
            <g id="Group_88">
                <path id="Path_125" fill="#f6fbfe" d="M2677.875 4071.3c17.406-3.237 31.035 3.558 39.423 2s25.106-9.658 17.934-48.243-31.923-39.844-41.15-38.126c-43.2 8.029-47.035 90.1-16.207 84.369zm0 0"/>
            </g>
            <path id="Path_126" fill="#a4aec0" d="M2683.5 3998.684a3.84 3.84 0 1 1-2.367 4.887 3.845 3.845 0 0 1 2.367-4.887zm1.68 4.836a1.28 1.28 0 1 0-1.63-.789 1.282 1.282 0 0 0 1.63.789zm0 0"/>
        </g>
        <g id="Group_90">
            <path id="Path_127" d="M2718.824 4040.06a1.023 1.023 0 0 0-1.32.592 21.464 21.464 0 0 1-3 5.4c-.338-.421-.688-.834-1.047-1.229a20.1 20.1 0 0 0 3.884-11.827 19.85 19.85 0 0 0-5.99-14.261 1.017 1.017 0 0 0-.717-.294h-.008a1.01 1.01 0 0 0-.721.306 1.025 1.025 0 0 0 .013 1.447 17.822 17.822 0 0 1 5.378 12.8 18.062 18.062 0 0 1-3.3 10.35 25.4 25.4 0 0 0-7.618-4.92l.308-.3a10.608 10.608 0 0 0 2.206-3.073 1.023 1.023 0 0 0-1.849-.875 8.5 8.5 0 0 1-1.78 2.479l-.769.745a1.63 1.63 0 0 0 .544 2.688 23.5 23.5 0 0 1 10.117 7.559 21.863 21.863 0 0 1-3.444 3 21.553 21.553 0 0 1-28.191-3.014 23.5 23.5 0 0 1 10.109-7.549 1.629 1.629 0 0 0 .544-2.688l-.769-.745a8.52 8.52 0 0 1 2-13.677 8.521 8.521 0 0 1 12.412 8.32 1.022 1.022 0 1 0 2.037.178 10.565 10.565 0 1 0-17.876 6.648l.307.3a25.376 25.376 0 0 0-7.619 4.921 17.917 17.917 0 0 1 .79-21.743 1.024 1.024 0 0 0-.139-1.439 1.026 1.026 0 0 0-1.44.14 19.96 19.96 0 0 0-.667 24.518c-.359.4-.707.8-1.038 1.219a21.315 21.315 0 0 1-4.406-13.047 21.574 21.574 0 0 1 25.531-21.2 1.023 1.023 0 0 0 .374-2.011 23.836 23.836 0 0 0-4.341-.4 23.607 23.607 0 1 0 22.075 31.994 1.023 1.023 0 0 0-.593-1.319z" class="cls-3"/>
            <path id="Path_128" d="M2715.43 4017.823a1.023 1.023 0 1 0-1.566 1.316 21.588 21.588 0 0 1 4.539 18.5 1.027 1.027 0 0 0 1 1.243 1.027 1.027 0 0 0 1-.8 23.631 23.631 0 0 0-4.97-20.254z" class="cls-3"/>
            <path id="Path_129" d="M2684.317 4017.824a1.022 1.022 0 0 0-.108 1.442 1.02 1.02 0 0 0 1.441.108 17.941 17.941 0 0 1 16.668-3.636 1.023 1.023 0 1 0 .567-1.965 19.987 19.987 0 0 0-18.568 4.051z" class="cls-3"/>
            <path id="Path_130" fill="#e34" d="M2710.545 4017.4a6.991 6.991 0 1 0-6.99-6.991 7 7 0 0 0 6.99 6.991zm-4.945-6.991a4.946 4.946 0 1 1 4.945 4.946 4.95 4.95 0 0 1-4.945-4.95z"/>
        </g>
    </g>
</svg>
