<svg xmlns="http://www.w3.org/2000/svg" width="88.669" height="79.481" viewBox="0 0 88.669 79.481">
    <defs>
        <style>
            .cls-2{fill:#081f3b}.cls-3{fill:#e34}
        </style>
    </defs>
    <g id="Group_100" transform="translate(-3070.604 -3990.268)">
        <g id="Group_99">
            <g id="Group_96">
                <g id="Group_95">
                    <path id="Path_131" fill="#f6fbfe" d="M3072.437 4021.111c8.275 15.193 6.084 29.913 10.07 37.235s16.571 20.406 50.253 2.066 27.361-41.717 22.973-49.771c-20.532-37.712-97.95-16.439-83.3 10.47zm0 0"/>
                </g>
            </g>
            <g id="Group_98">
                <g id="Group_97">
                    <path id="Path_132" d="M3130.251 4025.175v-.032a1.509 1.509 0 0 0-.032-.158 1.4 1.4 0 0 0-.05-.144l-.017-.04a1.111 1.111 0 0 0-.05-.1l-.025-.044-.013-.023c-.019-.031-.041-.06-.062-.088l-.011-.016a1.354 1.354 0 0 0-.106-.12l-.021-.02a1.223 1.223 0 0 0-.1-.088l-.027-.021a1.3 1.3 0 0 0-.144-.094l-19.3-10.97 11.111-7 18.628 10.589-7.846 4.94a1.309 1.309 0 1 0 1.4 2.216l9.7-6.1a1.31 1.31 0 0 0-.051-2.247l-21.211-12.057a1.308 1.308 0 0 0-1.346.03l-13.617 8.574-.009.005-6.8 4.286h-.009l-13.627 8.581a1.309 1.309 0 0 0 .051 2.247l21.212 12.057a1.3 1.3 0 0 0 1.345-.03l9.7-6.106a1.31 1.31 0 0 0-1.4-2.217l-9.033 5.688-18.628-10.588 11.111-7 19.867 11.293v14.957a1.309 1.309 0 0 0 2.008 1.108l6.814-4.29a1.311 1.311 0 0 0 .612-1.108V4025.303c0-.044 0-.087-.009-.131zm-6.8 17.79v-13.346a1.308 1.308 0 0 0-.662-1.138l-19.31-10.977 4.3-2.706 18.628 10.588-1.631 1.027a1.31 1.31 0 0 0 .7 2.419 1.293 1.293 0 0 0 .7-.2l1.475-.928v12.623zm0 0" class="cls-2"/>
                    <path id="Path_133" d="M3141.88 4020.88l-9.7 6.105a1.31 1.31 0 0 0 1.4 2.217l9.7-6.106a1.31 1.31 0 1 0-1.4-2.216zm0 0" class="cls-3"/>
                    <path id="Path_134" d="M3117.511 4036.225l-9.034 5.688-20.53-11.67a1.31 1.31 0 0 0-1.295 2.278l21.212 12.057a1.3 1.3 0 0 0 1.345-.03l9.7-6.106a1.31 1.31 0 1 0-1.4-2.217zm0 0" class="cls-2"/>
                    <path id="Path_135" d="M3141.88 4026.119l-9.7 6.106a1.31 1.31 0 0 0 1.4 2.217l9.7-6.106a1.31 1.31 0 1 0-1.4-2.217zm0 0" class="cls-3"/>
                    <path id="Path_136" d="M3117.511 4041.464l-9.034 5.689-20.53-11.67a1.31 1.31 0 0 0-1.295 2.278l21.212 12.057a1.312 1.312 0 0 0 1.345-.03l9.7-6.107a1.31 1.31 0 0 0-1.4-2.217zm0 0" class="cls-2"/>
                    <path id="Path_137" d="M3141.88 4031.359l-9.7 6.105a1.31 1.31 0 1 0 1.4 2.217l9.7-6.1a1.31 1.31 0 1 0-1.4-2.217zm0 0" class="cls-3"/>
                    <path id="Path_138" d="M3117.511 4046.7l-9.034 5.688-20.53-11.669a1.31 1.31 0 1 0-1.295 2.277l21.212 12.057a1.3 1.3 0 0 0 1.345-.03l9.7-6.106a1.31 1.31 0 0 0-1.4-2.217zm0 0" class="cls-2"/>
                </g>
            </g>
        </g>
        <path id="Path_139" fill="#a4aec0" d="M3088.586 4003.39a3.752 3.752 0 1 1-3.48 4.005 3.757 3.757 0 0 1 3.48-4.005zm.35 4.99a1.251 1.251 0 1 0-1.335-1.159 1.252 1.252 0 0 0 1.335 1.159zm0 0"/>
    </g>
</svg>
