<svg xmlns="http://www.w3.org/2000/svg" width="101.771" height="112.399" viewBox="0 0 101.771 112.399">
    <g>
        <g>
            <g>
                <path fill="#eff4fa" d="M5886.284 5311.078c22.471-3.3 39.613 6.072 50.442 4.483s32.657-11.16 25.34-60.976-38.987-52.632-50.9-50.88c-55.775 8.191-64.683 113.222-24.882 107.373zm0 0" transform="translate(-409.695 -664.413) translate(-5452.07 -4538.932)"/>
            </g>
            <path fill="#a4aec0" d="M5912.65 5224.734a4.926 4.926 0 1 1 4.926-4.925 4.931 4.931 0 0 1-4.926 4.925zm0-6.567a1.642 1.642 0 1 0 1.643 1.642 1.644 1.644 0 0 0-1.643-1.642zm0 0" transform="translate(-409.695 -664.413) translate(-5452.07 -4538.932)"/>
            <g>
                <path fill="#e34" d="M5909.691 5266.549l-.76 6.941-3.268 2.837 10.438.2-.659-1.663-2.128-3.125-.1-4.611-.38-1.368z" transform="translate(-409.695 -664.413) translate(-5452.07 -4538.932)"/>
            </g>
            <g>
                <g>
                    <g>
                        <path fill="#081f3b" d="M5886.07 5269.855h-.5l-2.506-3.341v-1.549a1.124 1.124 0 0 1 1.918-.795l1.089 1.089zm2.005 0v-8.018h10.025v8.018a5.011 5.011 0 1 1-10.023 0zm11.136 23.054h-12.86l2.506-10.023h8.458l2.091 8.364zm27.353-55.429a3.509 3.509 0 0 1 5.614 2.807v5.1l-9.437 9.436h-1.589v-2h1a1 1 0 0 0 .709-.294l7.016-7.016a1 1 0 0 0 .294-.709v-4.26a1.754 1.754 0 0 0-2.807-1.4l-2.205 1.654a3.987 3.987 0 0 0-.478-1.9zm-2.4 7.317a1 1 0 0 0 1-1v-.5l3.007-2.256v3.344l-6.429 6.429h-.587v-2.177a5.8 5.8 0 0 1 1.438-3.837zm-25.059-4.009a2.007 2.007 0 0 1 2-2h20.047a2.006 2.006 0 0 1 2 2v2H5899.1zm2 14.032h-1.59l-9.436-9.436v-5.1a3.509 3.509 0 0 1 5.614-2.807l1.881 1.411a3.97 3.97 0 0 0-.478 1.9l-2.206-1.654a1.754 1.754 0 0 0-2.806 1.4v4.26a1 1 0 0 0 .294.709l7.016 7.016a1 1 0 0 0 .709.294h1zm0-4.009h-.587l-6.429-6.429v-3.344l3.007 2.256v.5a1 1 0 0 0 1 1h1.568a5.8 5.8 0 0 1 1.439 3.837zm2 6.014v-7.016h4.009v-2h-4.054a7.763 7.763 0 0 0-.956-3.007h18.039a7.781 7.781 0 0 0-.957 3.007h-10.067v2h10.023v7.016a8.019 8.019 0 1 1-16.037 0zm6.64 16.82a1 1 0 0 0 .376-.783v-6.062a10.015 10.015 0 0 0 2 0v6.064a1 1 0 0 0 .375.783l2.781 2.224h-8.318zm-8.521 19.264l1.77-15.035h16.259l1.769 15.035zm32.17-10.023l2.506 10.023h-12.86l-.195-1.659 2.091-8.364zm.783-13.031a5.011 5.011 0 1 1-10.023 0v-8.018h10.023zm5.012-3.341l-2.506 3.341h-.5v-4.6l1.088-1.089a1.124 1.124 0 0 1 1.919.795zm-1.124-4.677a3.1 3.1 0 0 0-1.883.63v-1.633a1 1 0 0 0-1-1h-12.028a1 1 0 0 0-1 1v9.021a7.026 7.026 0 0 0 6.014 6.944v4.082h-4.009a1 1 0 0 0-.972.759l-1 3.99-1.044-8.875a1 1 0 0 0-1-.886h-1.643l-4.361-3.488v-5.994a10.042 10.042 0 0 0 7.017-9.562h2a1 1 0 0 0 .709-.294l10.023-10.023a1 1 0 0 0 .294-.708v-5.513a5.514 5.514 0 0 0-8.821-4.411l-2.049 1.537a3.987 3.987 0 0 0-2.16-.635H5901.1a3.991 3.991 0 0 0-2.161.635l-2.049-1.537a5.513 5.513 0 0 0-8.82 4.411v5.513a1 1 0 0 0 .293.708l10.024 10.023a1 1 0 0 0 .708.294h2a10.042 10.042 0 0 0 7.016 9.562v5.994l-4.361 3.488h-1.653a1 1 0 0 0-1 .886l-1.045 8.875-1-3.99a1 1 0 0 0-.972-.759h-4.009v-4.081a7.026 7.026 0 0 0 6.014-6.944v-9.021a1 1 0 0 0-1-1h-12.028a1 1 0 0 0-1 1v1.633a3.129 3.129 0 0 0-5.012 2.5v1.883a1.014 1.014 0 0 0 .2.6l3.007 4.01a1.007 1.007 0 0 0 .8.4h1.3a7.033 7.033 0 0 0 5.72 4.939v4.082h-4.009a1 1 0 0 0-.973.759l-3.007 12.028a1 1 0 0 0 .972 1.246h52.122a1 1 0 0 0 .972-1.246l-3.007-12.028a1 1 0 0 0-.972-.759h-4.009v-4.082a7.033 7.033 0 0 0 5.72-4.939h1.3a1.007 1.007 0 0 0 .8-.4l3.007-4.01a1.008 1.008 0 0 0 .2-.6v-1.883a3.131 3.131 0 0 0-3.118-3.131z" transform="translate(-409.695 -664.413) translate(-5452.07 -4538.932)"/>
                    </g>
                </g>
            </g>
        </g>
    </g>
</svg>
