<svg xmlns="http://www.w3.org/2000/svg" width="73.032" height="66.895" viewBox="0 0 73.032 66.895">
    <defs>
        <style>
            .cls-3{fill:#081f3b}
        </style>
    </defs>
    <g id="Group_35" transform="translate(-3143.539 -2897.568)">
        <g id="Group_32">
            <path id="Path_20" fill="#eff4fa" d="M3143.972 2916.242c3.686 14.462-1.277 26.3.5 33.273s9.513 20.585 41.575 12.417 31.75-29.058 29.8-36.725c-9.144-35.9-78.4-34.581-71.868-8.965zm0 0"/>
        </g>
        <path id="Path_21" fill="#a4aec0" d="M3204.657 2926.692a3.237 3.237 0 1 1 1.962 4.135 3.239 3.239 0 0 1-1.962-4.135zm4.065 1.449a1.079 1.079 0 1 0-1.379.654 1.08 1.08 0 0 0 1.379-.654zm0 0"/>
        <g id="Group_34">
            <g id="Group_33">
                <path id="Path_22" d="M3183.665 2908.714v1.624h6.783a4.607 4.607 0 0 1 4.6 4.6v.18a4.6 4.6 0 0 1-9.127.632h2.364v-1.624h-4.06v.812a6.232 6.232 0 0 0 6.225 6.226c.08 0 .161 0 .242-.005a6.248 6.248 0 0 0 5.979-5.98v-.241a6.231 6.231 0 0 0-6.225-6.225zm0 0" class="cls-3"/>
                <path id="Path_23" d="M3162.923 2921.16h.241a6.232 6.232 0 0 0 6.226-6.225v-.812h-4.06v1.624h2.364a4.609 4.609 0 0 1-4.53 3.789h-.179a4.616 4.616 0 0 1-4.418-4.418v-.18a4.606 4.606 0 0 1 4.6-4.6h18.877v-1.624h-18.877a6.232 6.232 0 0 0-6.225 6.225c0 .08 0 .16.005.241a6.248 6.248 0 0 0 5.979 5.98zm0 0" class="cls-3"/>
                <path id="Path_24" fill="#e34" d="M3203.062 2945.525v-5.317L3193.6 2939l-.206 1.611 8.046 1.027v3.887h-15.321v1.623h16.728v1.624h-40.33v1.625h41.954v-4.872zm0 0"/>
                <path id="Path_25" d="M3150.768 2947.148h33.725v-1.623h-6.875v-1.7a4.6 4.6 0 0 1 4.592-4.6 4.717 4.717 0 0 1 .593.037l8.978 1.147.206-1.612-.294-.037v-16.023h-1.624v15.815l-2.273-.29v-12.926a2.977 2.977 0 1 0-5.955 0v12.276a6.144 6.144 0 0 0-2.057.482v-12.758a2.977 2.977 0 1 0-5.955 0v12.758a6.144 6.144 0 0 0-2.057-.482v-12.276a2.978 2.978 0 1 0-5.955 0v12.926l-2.273.29v-15.815h-1.625v16.023l-11.368 1.451v5.317h-1.407v4.872h11.747v-1.625h-10.123zm32.7-21.815a1.354 1.354 0 1 1 2.707 0v12.719l-2.707-.345zm-8.012 0a1.354 1.354 0 1 1 2.707 0v13.767a1.379 1.379 0 1 1-2.707 0zm-8.012 0a1.354 1.354 0 1 1 2.707 0v12.374l-2.707.345zm-15.266 16.3l18.635-2.379a4.705 4.705 0 0 1 .593-.037 4.6 4.6 0 0 1 4.592 4.6v1.7h-23.82zm0 0" class="cls-3"/>
                <path id="Rectangle_41" d="M0 0H1.624V1.624H0z" class="cls-3" transform="translate(3179.242 2914.127)"/>
                <path id="Rectangle_42" d="M0 0H1.624V1.624H0z" class="cls-3" transform="translate(3172.746 2914.127)"/>
                <path id="Rectangle_43" d="M0 0H1.624V1.624H0z" class="cls-3" transform="translate(3175.995 2914.127)"/>
                <path id="Rectangle_44" d="M0 0H1.624V1.624H0z" class="cls-3" transform="translate(3190.123 2914.127)"/>
                <path id="Rectangle_45" d="M0 0H1.624V1.624H0z" class="cls-3" transform="translate(3161.865 2914.127)"/>
            </g>
        </g>
    </g>
</svg>
