<svg xmlns="http://www.w3.org/2000/svg" width="84.957" height="77.587" viewBox="0 0 84.957 77.587">
    <defs>
        <style>
            .cls-3{fill:#081f3b}.cls-4{fill:#e34}
        </style>
    </defs>
    <g id="Group_107" transform="translate(-3492.485 -3991.215)">
        <g id="Group_104">
            <g id="Group_103">
                <path id="Path_140" fill="#f6fbfe" d="M3493.044 4013.311c4.513 16.7-1.042 30.507 1.131 38.556s11.368 23.7 48.393 13.7 36.316-34.207 33.922-43.061c-11.2-41.454-91.438-38.777-83.446-9.2zm0 0"/>
            </g>
            <path id="Path_141" fill="#a4aec0" d="M3568.959 4026.307a3.752 3.752 0 1 1-4.316 3.085 3.758 3.758 0 0 1 4.316-3.085zm-.821 4.935a1.251 1.251 0 1 0-1.029-1.439 1.253 1.253 0 0 0 1.029 1.439zm0 0"/>
        </g>
        <g id="Group_106">
            <g id="Group_105">
                <path id="Path_142" d="M3558.412 4040.924a.866.866 0 0 0-.735-.41h-12.955a.865.865 0 0 0-.773.478l-1.488 2.977h-4.2l-6.228-9a5.184 5.184 0 0 0-4.26-2.232h-2.562l-1.046-1.046a3.538 3.538 0 0 0 2.415-3.35v-5.225a2.369 2.369 0 0 0-1.5-4.2h-6a4.087 4.087 0 0 0-3.4 6.354l.169.253a2.307 2.307 0 0 0 .5 2.513l.74.738v2.74l-1.221 1.221h-1.958a7.186 7.186 0 0 0-5.486 11.826l.028.032v9.734h1.727v-7.692l3.885 4.591a8.74 8.74 0 0 0 6.687 3.1h30.886a.864.864 0 0 0 .772-.477l6.046-12.092a.863.863 0 0 0-.038-.84zm-20.6 4.772h3.785l-1.911 3.824-1.3.325a5.755 5.755 0 0 1-1.28.168 1.5 1.5 0 0 0-.313-.71l-1.669-2.086a6.034 6.034 0 0 0-4.545-2.267l-.07-.1 3.97-3.308 2.622 3.787a.862.862 0 0 0 .71.372zm-11.061 6.91l2.159-.864h9.664l-.431.864zm1.872-7.477l-1.175.157v-1.919zm-4.779-11.316l-1.03 2.573-1.12-1.12 1.593-2.01zm-5.99-.62l1.544 2.058-1.135 1.135-1.03-2.573zm5.2-3.043a1.8 1.8 0 0 1-1.615-1l-.126-.252-1.545.773.126.252a3.51 3.51 0 0 0 2.357 1.86l-1.691 2.133-1.747-2.328v-3.167a.865.865 0 0 0-.253-.611l-.992-.992a.579.579 0 0 1 .409-.988h.836a.869.869 0 0 0 .611-.253l.864-.864a.865.865 0 0 0 .253-.611v-.673l3.285.656a.856.856 0 0 0 .443-.027l.59-.2v4.482a1.806 1.806 0 0 1-1.8 1.8zm-6.087-8.2a2.349 2.349 0 0 1 2.111-1.305h6a.643.643 0 0 1 .2 1.252l-1.344.448-4.094-.819a.863.863 0 0 0-1.033.847v1.37l-.357.357h-.479a2.31 2.31 0 0 0-.887.176 2.366 2.366 0 0 1-.123-2.326zm-3.06 12.515h1.73l1.511 3.775a.862.862 0 0 0 1.412.29l1.117-1.117v3.961h1.727v-3.961l1.117 1.117a.863.863 0 0 0 1.413-.29l1.51-3.775h2.335a3.454 3.454 0 0 1 2.84 1.488l2.876 4.154-3.947 3.289-2.243-3.365a.864.864 0 0 0-1.582.479v5l-4.282.571-6.272-7.84-1.348 1.08 2.951 3.689-4.34 3.617-2.691-3.181a5.457 5.457 0 0 1 4.166-8.983zm1.473 15.648l-1.832-2.166 4.3-3.586 1.591 1.989-1.607.214.229 1.712 2.637-.352.029.036.059-.048 9.041-1.205a4.328 4.328 0 0 1 3.949 1.585l1.375 1.719h-2.318l-1.545-.773a.865.865 0 0 0-.707-.029l-7.225 2.89a7.032 7.032 0 0 1-7.979-1.986zm35.72 2.489h-11.025l5.183-10.364h11.024zm0 0" class="cls-3"/>
            </g>
            <path id="Path_143" d="M3528.312 4008.558a.864.864 0 0 0-.864.863v6.046a.864.864 0 0 0 .864.864h2.591a.864.864 0 0 0 .864-.864v-6.046a.864.864 0 0 0-.864-.863zm1.727 6.046h-.863v-4.319h.863zm0 0" class="cls-4"/>
            <path id="Path_144" d="M3538.676 4013.74a.864.864 0 0 0-.864.864v6.045a.864.864 0 0 0 .864.864h2.591a.864.864 0 0 0 .864-.864v-6.049a.864.864 0 0 0-.864-.864zm1.728 6.046h-.864v-4.319h.864zm0 0" class="cls-4"/>
            <path id="Path_145" d="M3549.04 4010.285a.864.864 0 0 0-.863.864v13.819a.864.864 0 0 0 .863.864h2.592a.864.864 0 0 0 .863-.864v-13.819a.864.864 0 0 0-.863-.864zm1.728 13.819h-.864v-12.091h.864zm0 0" class="cls-4"/>
            <path id="Path_146" d="M3533.494 4010.285a.864.864 0 0 0-.864.864v12.092a.864.864 0 0 0 .864.863h2.591a.864.864 0 0 0 .864-.863v-12.092a.864.864 0 0 0-.864-.864zm1.727 12.092h-.863v-10.364h.863zm0 0" class="cls-4"/>
            <path id="Path_147" d="M3543.858 4013.74a.864.864 0 0 0-.863.864v13.819a.864.864 0 0 0 .863.863h2.591a.864.864 0 0 0 .864-.863V4014.6a.864.864 0 0 0-.864-.864zm1.728 13.819h-.864v-12.092h.864zm0 0" class="cls-4"/>
            <path id="Path_148" d="M3529.977 4006.1l4.765 3.177a.866.866 0 0 0 1-.027l2.919-2.19 3.8 3.037a.862.862 0 0 0 1.15-.064l2.338-2.338h3.961a.864.864 0 0 0 .611-.253l4.318-4.318-1.221-1.222-4.065 4.066h-3.961a.864.864 0 0 0-.611.253l-2.044 2.044-3.715-2.972a.865.865 0 0 0-1.058-.016l-2.966 2.224-4.674-3.116a.864.864 0 0 0-.865-.054l-5.182 2.592.772 1.545zm0 0" class="cls-3"/>
        </g>
    </g>
</svg>
