<svg xmlns="http://www.w3.org/2000/svg" width="73.032" height="66.895" viewBox="0 0 73.032 66.895">
    <defs>
        <style>
            .cls-3{fill:#081f3b}.cls-4{fill:#e34}
        </style>
    </defs>
    <g id="Group_42" transform="translate(-3144.66 -3285.362)">
        <g id="Group_39">
            <path id="Path_34" fill="#eff4fa" d="M3145.093 3304.036c3.686 14.462-1.277 26.3.5 33.273s9.513 20.585 41.575 12.417 31.75-29.058 29.795-36.725c-9.144-35.9-78.4-34.581-71.868-8.965zm0 0"/>
        </g>
        <path id="Path_35" fill="#a4aec0" d="M3206.856 3317.723a3.237 3.237 0 1 1 1.963 4.135 3.241 3.241 0 0 1-1.963-4.135zm4.065 1.449a1.079 1.079 0 1 0-1.378.654 1.08 1.08 0 0 0 1.378-.654zm0 0"/>
        <g id="Group_41">
            <g id="Group_40">
                <path id="Path_36" d="M3161.378 3305.3a.948.948 0 0 0 .675-.28h.006a.955.955 0 0 0-1.337-1.365l-.02.021a.955.955 0 0 0 .676 1.629zm0 0" class="cls-3"/>
                <path id="Path_37" d="M3202.238 3317.78a24.585 24.585 0 0 0-6.944-14.108 24.47 24.47 0 0 0-31.433-2.67.955.955 0 1 0 1.106 1.558q.462-.327.937-.63l2.376 4.114a17.99 17.99 0 0 0-2.871 2.334 17.794 17.794 0 0 0-2.328 2.874l-4.114-2.375a22.316 22.316 0 0 1 1.4-1.961.955.955 0 1 0-1.494-1.19 24.471 24.471 0 0 0-2.044 27.456 4.269 4.269 0 1 0 7.4-4.255 15.9 15.9 0 1 1 29.421-5.07l-9.867-3.733a5.836 5.836 0 1 0-1.648 4.975 5.921 5.921 0 0 0 .453-.509l10.408 1.7a16.118 16.118 0 0 1-1.221 2.638 4.269 4.269 0 0 0 7.4 4.255 24.561 24.561 0 0 0 3.066-15.4zm-39.668 12.1a2.359 2.359 0 1 1-4.091 2.349 22.328 22.328 0 0 1-3-10.307h4.738a17.905 17.905 0 0 0 2.357 7.958zm-2.233-11.242c-.061.457-.1.916-.126 1.374h-4.732q.044-.988.173-1.983a22.63 22.63 0 0 1 2.362-7.5l4.111 2.374a17.754 17.754 0 0 0-1.788 5.732zm14.883 5.111a3.932 3.932 0 1 1 6.331-4.467l-2.724-1.031a2.544 2.544 0 0 0-2.083.136 2.925 2.925 0 0 0-1.123 4.19 2.543 2.543 0 0 0 1.736 1.159l2.873.469a3.937 3.937 0 0 1-5.01-.456zm7.084-1.14h-.008l-4.631-.756a.661.661 0 0 1-.44-.31 1.017 1.017 0 0 1 .39-1.455.75.75 0 0 1 .331-.086.562.562 0 0 1 .2.038l4.376 1.655.028.011 4.4 1.665zm-3.351-19.42v-4.75a22.4 22.4 0 0 1 9.488 2.532l-2.377 4.116a17.683 17.683 0 0 0-7.111-1.9zm-11.4-2.217a22.357 22.357 0 0 1 9.486-2.534v4.751a17.688 17.688 0 0 0-7.111 1.9zm20.16 5.072l2.377-4.116a22.776 22.776 0 0 1 6.941 6.945l-4.119 2.379a17.848 17.848 0 0 0-2.328-2.874 18.032 18.032 0 0 0-2.871-2.334zm6.155 6.862l4.119-2.379a22.577 22.577 0 0 1 2.354 7.5q.13.993.173 1.983h-4.732c-.024-.458-.066-.917-.126-1.374a17.754 17.754 0 0 0-1.788-5.732zm3.645 19.325a2.359 2.359 0 0 1-4.091-2.349 17.741 17.741 0 0 0 1.47-3.28l1.164.19a1.006 1.006 0 0 0 .155.013.956.956 0 0 0 .337-1.849l-1.106-.418a17.946 17.946 0 0 0 .338-2.616h4.738a22.339 22.339 0 0 1-3 10.309zm0 0" class="cls-3"/>
            </g>
            <path id="Path_38" d="M3183.729 3330.359h-11.461a.956.956 0 0 0-.955.955v3.056a.956.956 0 0 0 .955.955h11.461a.956.956 0 0 0 .955-.955v-3.056a.956.956 0 0 0-.955-.955zm-.955 3.056h-9.551v-1.146h9.551zm0 0" class="cls-4"/>
            <path id="Path_39" d="M3163.882 3320.012a.955.955 0 0 0 0 1.91h.023a.955.955 0 0 0 0-1.91zm0 0" class="cls-3"/>
            <path id="Path_40" d="M3171.78 3308.285l-.011-.02a.955.955 0 0 0-1.654.956l.011.019a.955.955 0 1 0 1.654-.955zm0 0" class="cls-3"/>
            <path id="Path_41" d="M3185.046 3309.72a.953.953 0 0 0 .827-.478l.012-.02a.955.955 0 0 0-1.654-.955l-.012.02a.957.957 0 0 0 .827 1.433zm0 0" class="cls-3"/>
            <path id="Path_42" d="M3192.114 3321.926a.956.956 0 0 0 0-1.911h-.022a.956.956 0 0 0 0 1.911zm0 0" class="cls-3"/>
            <path id="Path_43" d="M3174.678 3336.28h-.022a.955.955 0 1 0 0 1.91h.022a.955.955 0 1 0 0-1.91zm0 0" class="cls-4"/>
            <path id="Path_44" d="M3181.341 3336.28h-3.919a.955.955 0 1 0 0 1.91h3.919a.955.955 0 0 0 0-1.91zm0 0" class="cls-4"/>
        </g>
    </g>
</svg>
