<svg xmlns="http://www.w3.org/2000/svg" viewBox="0 0 171.9 188.2"><defs><style>.cls-1{fill:#eff4fa;}.cls-2{fill:#a4aec0;}.cls-3{fill:#081f3b;}.cls-4{fill:#e34;}</style></defs><g id="Layer_2" data-name="Layer 2"><g id="Layer_1-2" data-name="Layer 1"><path class="cls-1" d="M127.05,3.46C89.44,11.14,59.63-3.07,41.5.63s-54.06,21.89-37,105.28S75.19,191.08,95.13,187C188.49,168,193.68-10.14,127.05,3.46Z"/><path class="cls-2" d="M141.17,41.77a8.33,8.33,0,1,1-6.24-10,8.34,8.34,0,0,1,6.24,10Zm-10.82-2.5a2.78,2.78,0,1,0,3.33-2.08,2.79,2.79,0,0,0-3.33,2.08Z"/><path class="cls-3" d="M122.55,83c0-.43,0-.86,0-1.29A24.11,24.11,0,0,0,88.18,59.94,26.16,26.16,0,0,0,41.91,82.55a22,22,0,0,0,12.62,40h3.34a39.84,39.84,0,0,0,27.07,33.76,3.12,3.12,0,0,0,1,.16,3.06,3.06,0,0,0,1-.16A39.84,39.84,0,0,0,114,122.55h5.44A19.9,19.9,0,0,0,122.55,83Zm-14.62,35.47a33.57,33.57,0,0,1-22,31.53,33.55,33.55,0,0,1-22-31.53V108.18a38.16,38.16,0,0,0,22-9.19,38.11,38.11,0,0,0,22,9.19Zm11.51-2.2h-5.23v-11.1a3.15,3.15,0,0,0-3.14-3.15,32,32,0,0,1-22.81-9.44l-.1-.11a3.15,3.15,0,0,0-4.44,0l-.11.11A32,32,0,0,1,60.81,102a3.14,3.14,0,0,0-3.14,3.15v11.1H54.53a15.71,15.71,0,0,1-10.1-27.74,25.73,25.73,0,0,0,4.15,5.41A3.14,3.14,0,0,0,53,89.5a20.63,20.63,0,0,1-4.41-6.74A19.87,19.87,0,0,1,82.89,63.37c-.48.42-1,.85-1.42,1.31a3.15,3.15,0,1,0,4.45,4.45,17,17,0,0,1,2.94-2.36,17.8,17.8,0,0,1,27.08,18.52A3.18,3.18,0,0,0,119.48,89a13.62,13.62,0,0,1,0,27.23Z"/><path class="cls-4" d="M72.55,113a3.15,3.15,0,0,0-2.32,3v2.39a27.3,27.3,0,0,0,14.2,24,3.22,3.22,0,0,0,1.51.38,3.18,3.18,0,0,0,1.5-.38,27.31,27.31,0,0,0,14.2-24v-2.4a3.14,3.14,0,0,0-2.32-3A43.88,43.88,0,0,1,87.6,108a3.16,3.16,0,0,0-3.3,0A43.93,43.93,0,0,1,72.55,113ZM86,114.28a49.91,49.91,0,0,0,9.41,4.14v0A21,21,0,0,1,85.94,136a21,21,0,0,1-9.43-17.55v0A50.18,50.18,0,0,0,86,114.28Z"/></g></g></svg>