<svg xmlns="http://www.w3.org/2000/svg" width="85.322" height="94.724" viewBox="0 0 85.322 94.724">
    <defs>
        <style>
            .cls-3{fill:#081f3b}.cls-4{fill:#e34}
        </style>
    </defs>
    <g id="Group_4135" transform="translate(-896.929 -278.847)">
        <g id="Group_739" transform="translate(-5452.07 -4538.932)">
            <g id="Group_735">
                <path id="Path_1263" fill="#eff4fa" d="M6367.839 4906.2c18.908-1.637 32.74 7.036 41.852 6.249s27.795-7.684 24.17-49.6-29.9-45.841-39.925-44.972c-46.931 4.057-59.586 91.222-26.1 88.323zm0 0"/>
            </g>
            <path id="Path_1264" fill="#a4aec0" d="M6385.631 4832.976a4.116 4.116 0 1 1 2.5 5.259 4.122 4.122 0 0 1-2.5-5.259zm5.169 1.842a1.372 1.372 0 1 0-1.752.833 1.372 1.372 0 0 0 1.752-.833zm0 0"/>
            <g id="Group_738">
                <g id="Group_737">
                    <g id="Group_736">
                        <path id="Path_1265" d="M6395.778 4866.737l-5.221 5.222a2.892 2.892 0 0 0-.905 2.109v12.654l9.441-9.44h11.247l9.439 9.44v-12.654a2.734 2.734 0 0 0-.9-2.109l-5.221-5.222.4-2.109a28.694 28.694 0 0 0-6.326-24.5l-3.013-3.615-3.013 3.615a28.851 28.851 0 0 0-6.327 24.5zm-4.117 7.331a.912.912 0 0 1 .3-.7l4.318-4.318 1.406 6.829-6.025 6.025zm25.809-.7a.912.912 0 0 1 .3.7v7.833l-5.925-5.925 1.406-6.829zm-14.261-31.935l1.507-1.807 1.506 1.807a29.314 29.314 0 0 1 3.716 5.725h-10.444a29.354 29.354 0 0 1 3.715-5.725zm-4.618 7.733h12.15a26.924 26.924 0 0 1 1.306 15.164l-1 4.921h-3.314v2.008h3.012l-.8 4.018h-4.218v-6.026h-2.009v6.026h-4.217l-.8-4.018h3.013v-2.008h-3.414l-1-4.921a27.83 27.83 0 0 1 1.306-15.164zm0 0" class="cls-3"/>
                        <path id="Path_1266" d="M6404.716 4865.231a6.025 6.025 0 1 0-6.026-6.025 6.043 6.043 0 0 0 6.026 6.025zm0-10.042a4.017 4.017 0 1 1-4.017 4.017 4.029 4.029 0 0 1 4.017-4.017zm0 0" class="cls-3"/>
                        <path id="Path_1267" d="M6419.779 4897.366v-3.012a5.96 5.96 0 0 0-5.121-5.925 6.05 6.05 0 0 0-4.419-4.821 8.656 8.656 0 0 0-1.808-4.92l-1.606 1.205a6.057 6.057 0 0 1-.5 8.234l-1.606 1.808-1.808-1.808a6.269 6.269 0 0 1-.5-8.234l-1.607-1.205a8.676 8.676 0 0 0-1.807 4.92 6.049 6.049 0 0 0-4.419 4.821 5.968 5.968 0 0 0-4.921 5.925v3.012h2.009v-3.012a4.029 4.029 0 0 1 4.017-4.017h1v-1a3.93 3.93 0 0 1 2.611-3.716 7.975 7.975 0 0 0 2.21 4.017l3.213 3.213 3.213-3.213a7.975 7.975 0 0 0 2.21-4.017 3.989 3.989 0 0 1 2.611 3.716v1h1a4.029 4.029 0 0 1 4.017 4.017v3.012zm0 0" class="cls-4"/>
                        <path id="Path_1268" d="M6395.678 4896.363v1h2.008v-1a2.959 2.959 0 0 1 3.013-3.013v-2.009a4.972 4.972 0 0 0-5.021 5.022zm0 0" class="cls-4"/>
                        <path id="Path_1269" d="M6413.754 4897.366v-1a4.972 4.972 0 0 0-5.021-5.022v2.009a2.958 2.958 0 0 1 3.012 3.013v1zm0 0" class="cls-4"/>
                        <path id="Path_1270" d="M6380.212 4884.311l7.432 7.432v-8.637a2.737 2.737 0 0 0-.9-2.109l-3.916-3.916.4-1.807a25.232 25.232 0 0 0-5.824-21.592l-1.808-2.008-1.807 2.109a25.149 25.149 0 0 0-5.825 21.591l.4 1.807-3.917 3.917a2.526 2.526 0 0 0-.9 2.008v8.637l7.432-7.432zm5.122-1.907a.908.908 0 0 1 .3.7v3.817l-3.916-3.917.7-3.515zm-10.042-27.316l.3-.4.3.4a21.743 21.743 0 0 1 3.414 5.122h-7.532a25.715 25.715 0 0 1 3.515-5.122zm-4.318 7.13h9.238a23.914 23.914 0 0 1 1.106 12.754l-.3 1.306h-2.41v2.008h2.008l-.8 4.017h-3.216v-6.025h-2.008v6.025h-3.214l-.8-4.017h2.008v-2.008h-2.41l-.3-1.306a23.9 23.9 0 0 1 1.1-12.754zm-5.423 20.888a.909.909 0 0 1 .3-.7l2.912-2.913.7 3.515-3.917 3.917zm0 0" class="cls-3"/>
                        <path id="Path_1271" d="M6365.551 4897.366h2.008a6.027 6.027 0 0 1 5.021-5.924 4.71 4.71 0 0 0 .9 1.2l2.21 2.21 2.209-2.21a6.24 6.24 0 0 0 .9-1.2 6.027 6.027 0 0 1 5.021 5.924h2.008a7.961 7.961 0 0 0-6.326-7.833 5.379 5.379 0 0 0-.8-3.715l-1.707 1.1a3.5 3.5 0 0 1-.4 4.318l-1 .7-.7-.7a3.471 3.471 0 0 1-.4-4.318l-1.708-1.1a5.376 5.376 0 0 0-.8 3.715 7.951 7.951 0 0 0-6.427 7.833zm0 0" class="cls-4"/>
                        <path id="Path_1272" d="M6375.593 4873.265a4.017 4.017 0 1 0-4.017-4.017 4.029 4.029 0 0 0 4.017 4.017zm0-6.025a2.008 2.008 0 1 1-2.008 2.008 2.013 2.013 0 0 1 2.008-2.008zm0 0" class="cls-3"/>
                    </g>
                </g>
            </g>
        </g>
    </g>
</svg>
