<svg xmlns="http://www.w3.org/2000/svg" width="76.097" height="68.19" viewBox="0 0 76.097 68.19">
    <defs>
        <style>
            .cls-3{fill:#081f3b}.cls-4{fill:#e34}
        </style>
    </defs>
    <g id="Group_38" transform="translate(-3467.979 -2896.92)">
        <g id="Group_36">
            <path id="Path_26" fill="#eff4fa" d="M3542.8 2940.4c-6.425-13.507-3.838-26.11-6.932-32.619s-13.34-18.4-43.283-4.16-25.593 34.718-22.186 41.878c15.941 33.526 83.779 18.824 72.4-5.1zm0 0"/>
        </g>
        <path id="Path_27" fill="#a4aec0" d="M3512.645 2910.455a3.244 3.244 0 1 1-2.43-3.891 3.248 3.248 0 0 1 2.43 3.891zm-4.214-.975a1.081 1.081 0 1 0 1.3-.81 1.083 1.083 0 0 0-1.3.81zm0 0"/>
        <g id="Group_37">
            <path id="Path_28" d="M3492.82 2935.859h-9.687v-22.891h9.687zm-7.7-1.985h5.718v-18.922h-5.718z" class="cls-3"/>
            <path id="Path_29" d="M3500.523 2935.859h-9.688v-18.49h9.688zm-7.7-1.985h5.718v-14.52h-5.718z" class="cls-3"/>
            <path id="Path_30" d="M3508.225 2935.859h-9.687v-9.687h9.687zm-7.7-1.985h5.717v-5.718h-5.717z" class="cls-3"/>
            <path id="Path_31" d="M3531.333 2956.766h-9.687v-22.892h9.687zm-7.7-1.984h5.718v-18.923h-5.718z" class="cls-3"/>
            <path id="Path_32" d="M3523.63 2952.365h-9.687v-18.491h9.687zm-7.7-1.985h5.718v-14.521h-5.718z" class="cls-3"/>
            <path id="Path_33" d="M3515.928 2943.562h-9.688v-9.688h9.688zm-7.7-1.984h5.718v-5.719h-5.718z" class="cls-3"/>
            <path id="Rectangle_46" d="M0 0H52.818V1.985H0z" class="cls-3" transform="translate(3480.824 2933.875)"/>
            <path id="Rectangle_47" d="M0 0H1.985V11.004H0z" class="cls-4" transform="translate(3520.545 2913.96)"/>
            <path id="Rectangle_48" d="M0 0H11.004V1.985H0z" class="cls-4" transform="translate(3516.036 2918.469)"/>
            <path id="Rectangle_49" d="M0 0H11.004V1.985H0z" class="cls-4" transform="translate(3487.426 2947.079)"/>
        </g>
    </g>
</svg>
