<svg xmlns="http://www.w3.org/2000/svg" width="62.519" height="68.45" viewBox="0 0 62.519 68.45">
    <g>
        <g>
            <path fill="#eff4fa" d="M1047.19 1446.817c-13.681 2.794-24.523-2.376-31.115-1.031s-19.665 7.964-13.474 38.292 25.725 30.976 32.978 29.494c33.956-6.93 35.841-71.7 11.611-66.755zm0 0" transform="translate(-1000.98 -1445.558)"/>
        </g>
        <path fill="#a4aec0" d="M1052.322 1460.749a3.028 3.028 0 1 1-2.267-3.632 3.03 3.03 0 0 1 2.267 3.632zm-3.933-.909a1.009 1.009 0 1 0 1.211-.757 1.01 1.01 0 0 0-1.211.757zm0 0" transform="translate(-1000.98 -1445.558)"/>
        <g>
            <g>
                <g>
                    <path fill="#081f3b" d="M1045.552 1475.746c.008-.156.012-.313.012-.469a8.767 8.767 0 0 0-12.514-7.918 9.516 9.516 0 0 0-17.19 5.633 9.425 9.425 0 0 0 .363 2.591 8 8 0 0 0 4.588 14.546h1.218a14.488 14.488 0 0 0 9.845 12.28 1.138 1.138 0 0 0 .723 0 14.491 14.491 0 0 0 9.845-12.28h1.98a7.236 7.236 0 0 0 1.13-14.383zm-5.32 12.9a8.523 8.523 0 1 1-15.994 0v-3.746a13.887 13.887 0 0 0 8-3.343 13.89 13.89 0 0 0 8 3.343zm4.19-.8h-1.905v-4.037a1.142 1.142 0 0 0-1.142-1.142 11.655 11.655 0 0 1-8.294-3.435l-.038-.038a1.14 1.14 0 0 0-1.615 0l-.039.038a11.652 11.652 0 0 1-8.294 3.435 1.142 1.142 0 0 0-1.142 1.142v4.037h-1.142a5.711 5.711 0 0 1-3.673-10.086 9.458 9.458 0 0 0 1.511 1.966 1.142 1.142 0 1 0 1.615-1.615 7.494 7.494 0 0 1-1.6-2.452 7.23 7.23 0 0 1 12.47-7.051c-.178.151-.35.311-.517.477a1.142 1.142 0 0 0 1.615 1.616 6.474 6.474 0 0 1 11.052 4.578 6.527 6.527 0 0 1-.131 1.3 1.156 1.156 0 0 0 1.285 1.363 4.951 4.951 0 0 1-.011 9.9zm0 0" transform="translate(-1000.98 -1445.558)"/>
                    <path fill="#e34" d="M1027.368 1486.673a1.141 1.141 0 0 0-.845 1.1v.869a9.929 9.929 0 0 0 5.164 8.718 1.142 1.142 0 0 0 1.1 0 9.93 9.93 0 0 0 5.165-8.718v-.87a1.143 1.143 0 0 0-.845-1.1 16.108 16.108 0 0 1-4.263-1.848 1.144 1.144 0 0 0-1.2 0 16.087 16.087 0 0 1-4.271 1.849zm4.871.45a18.409 18.409 0 0 0 3.424 1.505v.017a4.112 4.112 0 1 1-6.855 0v-.016a18.324 18.324 0 0 0 3.431-1.506zm0 0" transform="translate(-1000.98 -1445.558)"/>
                </g>
            </g>
        </g>
    </g>
</svg>
