<svg xmlns="http://www.w3.org/2000/svg" width="76.357" height="68.45" viewBox="0 0 76.357 68.45">
    <defs>
        <style>
            .cls-3{fill:#081f3b}
        </style>
    </defs>
    <g id="Group_3" transform="translate(-1008.766 -1053.535)">
        <g id="Group_1">
            <path id="Path_1" fill="#eff4fa" d="M1083.917 1097.66c-6.254-13.681-3.459-26.316-6.472-32.909s-13.133-18.707-43.463-4.847-26.269 34.523-22.952 41.776c15.517 33.959 83.963 20.212 72.887-4.02zm0 0"/>
        </g>
        <g id="Group_2">
            <path id="Path_2" fill="#e34" d="M1050.967 1074.42a15.355 15.355 0 1 0 15.352 15.358 15.374 15.374 0 0 0-15.352-15.358zm0 28.727a13.371 13.371 0 1 1 13.374-13.369 13.381 13.381 0 0 1-13.374 13.369z"/>
            <path id="Path_3" d="M1060.378 1088.785h-7.7a1.981 1.981 0 0 0-1.716-.991 2 2 0 0 0-.511.069l-1.82-1.82a.991.991 0 0 0-1.4 1.4l1.82 1.82a1.962 1.962 0 0 0-.07.512 1.982 1.982 0 0 0 3.7.991h7.7a.991.991 0 0 0 0-1.983zm0 0" class="cls-3"/>
            <path id="Path_4" d="M1050.967 1070.153a19.6 19.6 0 0 0-15.748 7.929h-9.028a.991.991 0 1 0 0 1.982h7.73a19.467 19.467 0 0 0-1.525 3.373h-11.561a.991.991 0 0 0 0 1.982h10.994a19.563 19.563 0 0 0-.464 3.369h-3.791a.991.991 0 0 0 0 1.983h3.791a19.485 19.485 0 0 0 2.552 8.721h-13.082a.991.991 0 1 0 0 1.982h14.38a19.62 19.62 0 1 0 15.748-31.318zm0 37.265a17.641 17.641 0 1 1 17.642-17.641 17.661 17.661 0 0 1-17.642 17.641zm0 0" class="cls-3"/>
            <path id="Path_5" d="M1050.968 1098.2a.992.992 0 1 0 .7.29 1 1 0 0 0-.7-.29zm0 0" class="cls-3"/>
            <path id="Path_6" d="M1050.968 1081.357a.99.99 0 1 0-.7-.29 1 1 0 0 0 .7.29zm0 0" class="cls-3"/>
            <path id="Path_7" d="M1041.558 1088.785a.993.993 0 1 0 .7.291 1 1 0 0 0-.7-.291zm0 0" class="cls-3"/>
            <path id="Path_8" fill="#2f3943" d="M1020.839 1096.119h5.352a.991.991 0 0 0 0-1.982h-5.352a.991.991 0 0 0 0 1.982zm0 0"/>
        </g>
        <path id="Path_9" fill="#a4aec0" d="M1073.854 1102.058a3.262 3.262 0 1 1-3.263 3.262 3.266 3.266 0 0 1 3.263-3.262zm0 4.349a1.087 1.087 0 1 0-1.088-1.087 1.089 1.089 0 0 0 1.088 1.087zm0 0"/>
    </g>
</svg>
