<svg xmlns="http://www.w3.org/2000/svg" width="62.49" height="69.375" viewBox="0 0 62.49 69.375">
    <defs>
        <style>
            .cls-3{fill:#081f3b}.cls-4{fill:#e34}
        </style>
    </defs>
    <g id="Group_14" transform="translate(-1306.71 -1053.535)">
        <g id="Group_10">
            <path id="Path_14" fill="#eff4fa" d="M1320.508 1118.3c13.848-1.2 23.979 5.153 30.652 4.576s20.357-5.627 17.7-36.327-21.9-33.574-29.241-32.937c-34.372 2.971-43.641 66.811-19.113 64.688zm0 0"/>
        </g>
        <path id="Path_15" fill="#a4aec0" d="M1333.539 1064.666a3.014 3.014 0 1 1 1.827 3.851 3.018 3.018 0 0 1-1.827-3.851zm3.786 1.349a1.005 1.005 0 1 0-1.284.61 1.006 1.006 0 0 0 1.284-.61zm0 0"/>
        <g id="Group_13">
            <g id="Group_12">
                <g id="Group_11">
                    <path id="Path_16" d="M1340.97 1089.393l-3.824 3.824a2.119 2.119 0 0 0-.662 1.545v9.267l6.914-6.913h8.237l6.914 6.913v-9.267a2 2 0 0 0-.662-1.545l-3.825-3.824.294-1.545a21.013 21.013 0 0 0-4.633-17.946l-2.207-2.648-2.206 2.648a21.126 21.126 0 0 0-4.634 17.946zm-3.015 5.369a.665.665 0 0 1 .221-.515l3.162-3.163 1.03 5-4.413 4.413zm18.9-.515a.668.668 0 0 1 .221.515v5.737l-4.34-4.34 1.03-5zm-10.444-23.389l1.1-1.323 1.1 1.323a21.5 21.5 0 0 1 2.722 4.193h-7.649a21.5 21.5 0 0 1 2.721-4.193zm-3.383 5.663h8.9a19.712 19.712 0 0 1 .956 11.106l-.735 3.605h-2.427v1.471h2.206l-.588 2.942h-3.089v-4.413h-1.471v4.413h-3.089l-.589-2.942h2.207v-1.471h-2.5l-.735-3.605a20.386 20.386 0 0 1 .956-11.106zm0 0" class="cls-3"/>
                    <path id="Path_17" d="M1347.516 1088.289a4.412 4.412 0 1 0-4.413-4.412 4.425 4.425 0 0 0 4.413 4.412zm0-7.354a2.941 2.941 0 1 1-2.942 2.942 2.95 2.95 0 0 1 2.942-2.942zm0 0" class="cls-3"/>
                    <path id="Path_18" d="M1358.549 1111.825v-2.206a4.365 4.365 0 0 0-3.751-4.339 4.429 4.429 0 0 0-3.237-3.531 6.344 6.344 0 0 0-1.324-3.6l-1.176.883a4.437 4.437 0 0 1-.368 6.031l-1.177 1.324-1.324-1.324a4.591 4.591 0 0 1-.367-6.031l-1.177-.883a6.358 6.358 0 0 0-1.324 3.6 4.428 4.428 0 0 0-3.236 3.53 4.372 4.372 0 0 0-3.6 4.34v2.206h1.471v-2.206a2.951 2.951 0 0 1 2.942-2.942h.735v-.736a2.879 2.879 0 0 1 1.913-2.721 5.836 5.836 0 0 0 1.618 2.942l2.353 2.354 2.354-2.354a5.844 5.844 0 0 0 1.618-2.942 2.92 2.92 0 0 1 1.912 2.721v.736h.735a2.951 2.951 0 0 1 2.943 2.942v2.206zm0 0" class="cls-4"/>
                    <path id="Path_19" d="M1340.9 1111.09v.735h1.471v-.735a2.166 2.166 0 0 1 2.206-2.206v-1.472a3.642 3.642 0 0 0-3.677 3.678zm0 0" class="cls-4"/>
                    <path id="Path_20" d="M1354.135 1111.825v-.735a3.641 3.641 0 0 0-3.677-3.678v1.472a2.166 2.166 0 0 1 2.207 2.206v.735zm0 0" class="cls-4"/>
                    <path id="Path_21" d="M1329.57 1102.264l5.443 5.443v-6.326a2.007 2.007 0 0 0-.662-1.545l-2.868-2.868.294-1.323a18.485 18.485 0 0 0-4.266-15.814l-1.324-1.471-1.324 1.545a18.418 18.418 0 0 0-4.266 15.813l.294 1.324-2.868 2.868a1.851 1.851 0 0 0-.662 1.471v6.326l5.443-5.443zm3.751-1.4a.668.668 0 0 1 .221.514v2.8l-2.869-2.868.515-2.575zm-7.355-20.006l.221-.294.221.294a15.9 15.9 0 0 1 2.5 3.751h-5.516a18.843 18.843 0 0 1 2.574-3.751zm-3.162 5.222h6.766a17.517 17.517 0 0 1 .809 9.341l-.22.956h-1.766v1.471h1.471l-.588 2.942h-2.354v-4.413h-1.471v4.413h-2.351l-.589-2.942h1.471v-1.471h-1.765l-.22-.956a17.509 17.509 0 0 1 .809-9.341zm-3.972 15.3a.664.664 0 0 1 .221-.514l2.133-2.134.515 2.575-2.869 2.868zm0 0" class="cls-3"/>
                    <path id="Path_22" d="M1318.832 1111.825h1.471a4.415 4.415 0 0 1 3.677-4.339 3.441 3.441 0 0 0 .663.882l1.618 1.619 1.618-1.619a4.557 4.557 0 0 0 .661-.882 4.416 4.416 0 0 1 3.678 4.339h1.471a5.829 5.829 0 0 0-4.633-5.736 3.944 3.944 0 0 0-.589-2.722l-1.25.809a2.562 2.562 0 0 1-.3 3.163l-.735.515-.515-.515a2.542 2.542 0 0 1-.294-3.163l-1.251-.809a3.944 3.944 0 0 0-.588 2.722 5.822 5.822 0 0 0-4.707 5.736zm0 0" class="cls-4"/>
                    <path id="Path_23" d="M1326.187 1094.173a2.942 2.942 0 1 0-2.942-2.941 2.951 2.951 0 0 0 2.942 2.941zm0-4.412a1.471 1.471 0 1 1-1.471 1.471 1.475 1.475 0 0 1 1.471-1.471zm0 0" class="cls-3"/>
                </g>
            </g>
        </g>
    </g>
</svg>
