<svg xmlns="http://www.w3.org/2000/svg" width="60.837" height="67.191" viewBox="0 0 60.837 67.191">
    <g>
        <g>
            <path fill="#eff4fa" d="M1317.689 1511.219c13.434-1.975 23.681 3.63 30.154 2.679s19.522-6.671 15.148-36.45-23.306-31.463-30.427-30.416c-33.342 4.9-38.667 67.683-14.875 64.187zm0 0" transform="translate(-1303.032 -1446.817)"/>
        </g>
        <path fill="#a4aec0" d="M1333.451 1459.6a2.945 2.945 0 1 1 2.945-2.945 2.948 2.948 0 0 1-2.945 2.945zm0-3.926a.982.982 0 1 0 .982.981.983.983 0 0 0-.982-.981zm0 0" transform="translate(-1303.032 -1446.817)"/>
        <g>
            <path fill="#e34" d="M1331.682 1484.6l-.454 4.149-1.954 1.7 6.239.121-.394-.994-1.272-1.868-.061-2.756-.227-.818z" transform="translate(-1303.032 -1446.817)"/>
        </g>
        <g>
            <g>
                <g>
                    <path fill="#081f3b" d="M1317.562 1486.576h-.3l-1.5-2v-.926a.672.672 0 0 1 1.147-.475l.651.651zm1.2 0v-4.793h5.992v4.793a3 3 0 1 1-5.992 0zm6.657 13.782h-7.687l1.5-5.992h5.056l1.25 5zm16.351-33.135a2.1 2.1 0 0 1 3.356 1.677v3.048l-5.641 5.641h-.95v-1.2h.6a.6.6 0 0 0 .424-.175l4.194-4.195a.6.6 0 0 0 .176-.423v-2.547a1.049 1.049 0 0 0-1.678-.839l-1.318.989a2.386 2.386 0 0 0-.286-1.134zm-1.437 4.374a.6.6 0 0 0 .6-.6v-.3l1.8-1.348v2l-3.843 3.843h-.351v-1.3a3.463 3.463 0 0 1 .86-2.294zm-14.98-2.4a1.2 1.2 0 0 1 1.2-1.2h11.984a1.2 1.2 0 0 1 1.2 1.2v1.2h-14.38zm1.2 8.389h-.95l-5.641-5.641v-3.045a2.1 2.1 0 0 1 3.356-1.677l1.125.843a2.375 2.375 0 0 0-.287 1.134l-1.318-.989a1.048 1.048 0 0 0-1.677.839v2.547a.6.6 0 0 0 .175.423l4.194 4.195a.6.6 0 0 0 .424.175h.6zm0-2.4h-.351l-3.843-3.843v-2l1.8 1.348v.3a.6.6 0 0 0 .6.6h.937a3.462 3.462 0 0 1 .86 2.294zm1.2 3.595v-4.194h2.4v-1.2h-2.423a4.623 4.623 0 0 0-.572-1.8h10.784a4.642 4.642 0 0 0-.572 1.8h-6.018v1.2h5.992v4.194a4.793 4.793 0 1 1-9.587 0zm3.969 10.055a.6.6 0 0 0 .225-.468v-3.625c.2.019.4.03.6.03s.4-.011.6-.03v3.625a.6.6 0 0 0 .225.468l1.662 1.33h-4.972zm-5.093 11.516l1.057-8.988h9.72l1.057 8.988zm19.231-5.992l1.5 5.992h-7.688l-.117-.992 1.25-5zm.467-7.79a3 3 0 1 1-5.991 0v-4.793h5.991zm3-2l-1.5 2h-.3v-2.747l.65-.651a.671.671 0 0 1 1.147.475zm-.671-2.8a1.852 1.852 0 0 0-1.126.377v-.976a.6.6 0 0 0-.6-.6h-7.191a.6.6 0 0 0-.6.6v5.392a4.2 4.2 0 0 0 3.6 4.151v2.44h-2.4a.6.6 0 0 0-.582.454l-.6 2.385-.624-5.3a.6.6 0 0 0-.6-.529h-.988l-2.607-2.086v-3.578a6 6 0 0 0 4.194-5.716h1.2a.6.6 0 0 0 .424-.176l5.992-5.991a.6.6 0 0 0 .175-.424v-3.3a3.3 3.3 0 0 0-5.273-2.636l-1.224.919a2.388 2.388 0 0 0-1.292-.38h-11.984a2.384 2.384 0 0 0-1.291.38l-1.225-.919a3.3 3.3 0 0 0-5.273 2.636v3.3a.6.6 0 0 0 .175.424l5.992 5.991a.6.6 0 0 0 .424.176h1.2a6 6 0 0 0 4.2 5.716v3.583l-2.607 2.086h-.989a.6.6 0 0 0-.594.529l-.625 5.3-.6-2.385a.6.6 0 0 0-.581-.454h-2.4v-2.44a4.2 4.2 0 0 0 3.595-4.151v-5.392a.6.6 0 0 0-.6-.6h-7.19a.6.6 0 0 0-.6.6v.976a1.87 1.87 0 0 0-3 1.493v1.126a.6.6 0 0 0 .119.359l1.8 2.4a.6.6 0 0 0 .479.24h.775a4.2 4.2 0 0 0 3.42 2.952v2.44h-2.4a.6.6 0 0 0-.581.454l-1.8 7.19a.6.6 0 0 0 .581.745h31.158a.6.6 0 0 0 .581-.745l-1.8-7.19a.6.6 0 0 0-.582-.454h-2.4v-2.44a4.2 4.2 0 0 0 3.419-2.952h.775a.6.6 0 0 0 .479-.24l1.8-2.4a.6.6 0 0 0 .12-.359v-1.126a1.872 1.872 0 0 0-1.857-1.862z" transform="translate(-1303.032 -1446.817)"/>
                </g>
            </g>
        </g>
    </g>
</svg>
