<svg xmlns="http://www.w3.org/2000/svg" width="83.495" height="92.215" viewBox="0 0 83.495 92.215">
    <defs>
        <style>
            .cls-3{fill:#081f3b}.cls-4{fill:#e34}
        </style>
    </defs>
    <g id="Group_10" transform="translate(-1307.659 -2134.825)">
        <g id="Group_8">
            <path id="Path_20" fill="#eff4fa" d="M1327.775 2223.212c18.436-2.71 32.5 4.982 41.384 3.678s26.793-9.156 20.789-50.026-31.985-43.181-41.759-41.743c-45.76 6.72-53.067 92.89-20.414 88.091zm0 0"/>
        </g>
        <path id="Path_21" fill="#a4aec0" d="M1349.407 2152.373a4.041 4.041 0 1 1 4.041-4.041 4.045 4.045 0 0 1-4.041 4.041zm0-5.387a1.347 1.347 0 1 0 1.347 1.346 1.349 1.349 0 0 0-1.347-1.346zm0 0"/>
        <g id="Group_9">
            <path id="Path_22" d="M1344.011 2187.355a.982.982 0 0 0-.979-.979h-5.48a.982.982 0 0 0-.979.979v9a.982.982 0 0 0 .979.978h5.48a.982.982 0 0 0 .979-.978zm-1.958 8.122h-3.522v-7.144h3.522z" class="cls-3"/>
            <path id="Path_23" d="M1332.659 2185.4a.981.981 0 0 0-.979-.979h-5.48a.981.981 0 0 0-.978.979v11.058a.981.981 0 0 0 .978.978h5.48a.981.981 0 0 0 .979-.978zm-1.859 10.079h-3.621v-9.1h3.621z" class="cls-3"/>
            <path id="Path_24" d="M1348.806 2174.858a4.089 4.089 0 0 0 6.664-4.208l4.394-3.112a4.092 4.092 0 1 0-.959-1.722l-4.443 3.141a4.087 4.087 0 0 0-6.752 4.267l-4.091 3.445a4.088 4.088 0 0 0-7.212.978l-3.4-1.38a4.07 4.07 0 1 0-.166 2.056l3.4 1.379a4.09 4.09 0 0 0 8.122-.685c0-.127-.01-.264-.02-.391zm14.042-12.252a2.134 2.134 0 1 1-2.133 2.134 2.139 2.139 0 0 1 2.133-2.134zm-11.292 7.085a2.134 2.134 0 1 1-2.134 2.134 2.138 2.138 0 0 1 2.134-2.134zm-22.576 9.405a2.133 2.133 0 1 1 2.133-2.134 2.139 2.139 0 0 1-2.133 2.138zm11.283 2.055a2.133 2.133 0 1 1 2.133-2.134 2.132 2.132 0 0 1-2.133 2.134z" class="cls-3"/>
            <path id="Path_25" d="M1366.616 2185.349v-12.262a1.026 1.026 0 0 0-1.018-1h-5.509a1.024 1.024 0 0 0-1.008 1v11.107a12.713 12.713 0 0 0-3.817 1.174v-5.216a.991.991 0 0 0-.949-1.017h-5.509a1.007 1.007 0 0 0-.969 1.017v16.274a1.1 1.1 0 0 0 .2.578 12.947 12.947 0 1 0 18.583-11.655zm-1.957-11.3v10.549a13.363 13.363 0 0 0-3.621-.528v-10.021zm-14.875 7.046h3.523v5.46a13.476 13.476 0 0 0-3.523 3.934zm11.176 26.9a10.99 10.99 0 1 1 10.989-10.995 10.992 10.992 0 0 1-10.989 10.993z" class="cls-3"/>
            <path id="Path_26" d="M1368.182 2195.869h-1.723a2.892 2.892 0 0 0-5.44 0h-6.674a.979.979 0 1 0 0 1.957h6.674a2.893 2.893 0 0 0 5.44 0h1.723a.979.979 0 0 0 0-1.957zm-4.443 1.879a.93.93 0 1 1 .93-.93.93.93 0 0 1-.93.93z" class="cls-4"/>
            <path id="Path_27" d="M1368.182 2200.762h-6.674a2.893 2.893 0 0 0-5.441 0h-1.722a.979.979 0 1 0 0 1.957h1.722a2.894 2.894 0 0 0 5.441 0h6.674a.979.979 0 0 0 0-1.957zm-9.4 1.957a.93.93 0 1 1 .93-.93.936.936 0 0 1-.925.93z" class="cls-4"/>
            <path id="Path_28" d="M1361.508 2191.074a2.893 2.893 0 0 0-5.441 0h-1.722a.979.979 0 1 0 0 1.957h1.722a2.894 2.894 0 0 0 5.441 0h6.674a.979.979 0 0 0 0-1.957zm-2.721 1.869a.93.93 0 1 1 .93-.93.93.93 0 0 1-.93.93z" class="cls-4"/>
        </g>
    </g>
</svg>
