<svg xmlns="http://www.w3.org/2000/svg" width="93.34" height="93.711" viewBox="0 0 93.34 93.711">
    <defs>
        <style>
            .cls-4{fill:#e34}
        </style>
    </defs>
    <g id="Group_19" transform="translate(-904.429 -2321.051)">
        <g id="Group_15">
            <path id="Path_41" fill="#eff4fa" d="M912.817 2385.782c16.706 8.255 23.9 22.579 31.951 26.558s27.245 7.7 45.547-29.329-1.757-53.709-10.614-58.084c-41.462-20.492-96.473 46.235-66.884 60.855zm0 0"/>
        </g>
        <path id="Path_42" fill="#a4aec0" d="M975.749 2341.4a4.041 4.041 0 1 1 2.449 5.164 4.045 4.045 0 0 1-2.449-5.164zm5.075 1.809a1.347 1.347 0 1 0-1.721.818 1.349 1.349 0 0 0 1.721-.818zm0 0"/>
        <g id="Group_18">
            <path id="Path_43" fill="#081f3b" d="M977.523 2387.41l-.985-2.125-.115-6.933c0-.961-6.466-13.169-8.507-15.719a14.074 14.074 0 0 0-4.825-3.608c-.75-.4-2.092-1.243-2.132-1.265v-11.595a3.413 3.413 0 0 0-3.412-3.41H941.9a3.416 3.416 0 0 0-3.413 3.41v31.551a3.418 3.418 0 0 0 3.413 3.413h13.886c.009.061 3.3 8.16 7.507 10.263a7.2 7.2 0 0 1 1.9 2.792 1.04 1.04 0 0 0 1.331.537.933.933 0 0 0 .536-1.329c-.215-.506-1.359-3.065-2.857-3.815-3.248-1.624-5.606-6.631-6.295-8.468a3.418 3.418 0 0 0 2.763-2.011l.671.671c-.226.814.137 1.963 1.125 3.61 2.03 3.384 4.1 4.189 4.34 4.231a1.015 1.015 0 1 0 .643-1.925c-.016 0-1.613-.634-3.243-3.351a5.6 5.6 0 0 1-.9-2 1.442 1.442 0 0 0-.262-1.727l-7.449-7.447a.666.666 0 0 1-.042-.88.862.862 0 0 1 1.129-.225l12.457 7.36a1.014 1.014 0 0 0 1.031-1.747l-9.209-5.441v-4.132l3.239 4.3c.2.264.541.682 1.421.2a.969.969 0 0 0 .2-1.419s-4.732-6.222-4.86-6.288v-2.7c.381.22.777.429 1.184.645a12.263 12.263 0 0 1 4.189 3.08c2.272 2.838 7.438 13.251 8.065 14.652l.117 6.981a1.022 1.022 0 0 0 .094.41l1.074 2.321a1.1 1.1 0 0 0 1.348.493.977.977 0 0 0 .49-1.36zm-18.593-18.386l-1.218-.719a2.894 2.894 0 0 0-3.8.778 2.7 2.7 0 0 0 .249 3.507s4.786 4.608 4.786 4.713c0 .764-.635 1.8-1.4 1.8H941.9a1.384 1.384 0 0 1-1.382-1.384v-31.551a1.383 1.383 0 0 1 1.382-1.381h15.649a1.384 1.384 0 0 1 1.383 1.381z"/>
            <g id="Group_17">
                <path id="Path_44" d="M951.892 2367.257a1.013 1.013 0 0 1-.8-.386l-2.93-3.718a1.014 1.014 0 1 1 1.593-1.256l2.93 3.718a1.013 1.013 0 0 1-.8 1.642z" class="cls-4"/>
                <g id="Group_16">
                    <path id="Path_45" d="M949.761 2369.675l-5.224-.619a1.014 1.014 0 1 1 .239-2.014l5.224.618a1.015 1.015 0 0 1-.239 2.015z" class="cls-4"/>
                    <path id="Path_46" d="M954.618 2365.79a.955.955 0 0 1-.819-1.124l.557-4.7a1.014 1.014 0 1 1 2.014.239l-.557 4.7a.968.968 0 0 1-1.195.885z" class="cls-4"/>
                </g>
            </g>
        </g>
    </g>
</svg>
