<svg xmlns="http://www.w3.org/2000/svg" width="91.601" height="94.326" viewBox="0 0 91.601 94.326">
    <defs>
        <style>
            .cls-3{fill:#081f3b}
        </style>
    </defs>
    <g id="Group_22" transform="translate(-522.293 -2321.195)">
        <g id="Group_20">
            <path id="Path_47" fill="#eff4fa" d="M532.057 2390.628c17.423 6.61 25.962 20.176 34.357 23.363s27.86 5.048 42.516-33.573-6.912-53.291-16.149-56.794c-43.241-16.411-91.581 55.3-60.724 67zm0 0"/>
        </g>
        <path id="Path_48" fill="#a4aec0" d="M587.822 2337.217a4.041 4.041 0 1 1 4.041-4.041 4.045 4.045 0 0 1-4.041 4.041zm0-5.387a1.347 1.347 0 1 0 1.348 1.346 1.349 1.349 0 0 0-1.348-1.346zm0 0"/>
        <g id="Group_21">
            <path id="Path_49" d="M555.5 2377.014h-7.713a.871.871 0 0 0-.872.871v14.69a.872.872 0 0 0 .872.872h7.713a.872.872 0 0 0 .872-.872v-14.69a.871.871 0 0 0-.872-.871zm-.871 1.743v2.5h-5.97v-2.5zm0 6.684h-5.97V2383h5.97zm-5.97 6.262v-4.518h5.97v4.518z" class="cls-3"/>
            <path id="Path_50" d="M569.1 2363.778h-7.714a.872.872 0 0 0-.872.871v14.559a.872.872 0 1 0 1.744 0v-5.259h5.97v17.751h-5.97v-9a.872.872 0 1 0-1.744 0v9.88a.873.873 0 0 0 .872.872h7.714a.873.873 0 0 0 .872-.872v-27.926a.872.872 0 0 0-.872-.876zm-6.842 1.743h5.97v2.5h-5.97zm0 6.684v-2.441h5.97v2.441z" class="cls-3"/>
            <path id="Path_51" d="M582.7 2377.014h-7.713a.871.871 0 0 0-.872.871v14.69a.872.872 0 0 0 .872.872h7.713a.872.872 0 0 0 .872-.872v-14.69a.871.871 0 0 0-.872-.871zm-.872 1.743v2.5h-5.97v-2.5zm0 6.684h-5.97V2383h5.97zm-5.97 6.262v-4.518h5.97v4.518z" class="cls-3"/>
            <path id="Path_52" d="M596.295 2357.944h-7.714a.871.871 0 0 0-.872.872v24.671a.872.872 0 0 0 1.744 0v-15.372h5.97v23.585h-5.97v-4.729a.872.872 0 1 0-1.744 0v5.6a.872.872 0 0 0 .872.872h7.714a.872.872 0 0 0 .871-.872v-33.759a.871.871 0 0 0-.871-.868zm-.872 1.743v2.5h-5.97v-2.5zm-5.97 6.685v-2.442h5.97v2.442z" class="cls-3"/>
            <path id="Path_53" fill="#e34" d="M550.942 2368.886a3.734 3.734 0 0 0 3.3-5.494l8.792-7.965a3.73 3.73 0 0 0 4.986-.514l7.185 4.267a3.736 3.736 0 1 0 7.01-.758l8.173-7.478a3.748 3.748 0 1 0-1.192-1.273l-8.082 7.4a3.727 3.727 0 0 0-5.123.553l-7.138-4.239a3.737 3.737 0 1 0-6.946.715l-8.823 7.994a3.735 3.735 0 1 0-2.138 6.8zm41.5-23.054a1.993 1.993 0 1 1-1.993 1.993 2 2 0 0 1 1.989-1.993zm-13.6 12.205a1.992 1.992 0 1 1-1.992 1.992 1.995 1.995 0 0 1 1.988-1.992zm-13.6-7.614a1.993 1.993 0 1 1-1.993 1.993 2 2 0 0 1 1.99-1.993zm-14.3 12.734a1.989 1.989 0 0 1 1.426.6.811.811 0 0 0 .068.088.767.767 0 0 0 .065.064 1.991 1.991 0 1 1-1.559-.755z"/>
        </g>
    </g>
</svg>
