<svg xmlns="http://www.w3.org/2000/svg" width="91.183" height="83.522" viewBox="0 0 91.183 83.522">
    <defs>
        <style>
            .cls-3{fill:#081f3b}
        </style>
    </defs>
    <g id="Group_14" transform="translate(-915.504 -2145.343)">
        <g id="Group_11">
            <path id="Path_29" fill="#eff4fa" d="M916.045 2168.658c4.6 18.057-1.594 32.841.622 41.543s11.877 25.7 51.907 15.5 39.642-36.28 37.2-45.853c-11.417-44.819-97.881-43.176-89.73-11.194zm0 0"/>
        </g>
        <path id="Path_30" fill="#a4aec0" d="M991.812 2181.706a4.041 4.041 0 1 1 2.45 5.163 4.045 4.045 0 0 1-2.45-5.163zm5.075 1.808a1.347 1.347 0 1 0-1.721.818 1.348 1.348 0 0 0 1.721-.818zm0 0"/>
        <g id="Group_13">
            <path id="Rectangle_6" d="M0 0H1.725V1.725H0z" class="cls-3" transform="translate(957.998 2206.128)"/>
            <path id="Path_31" d="M972.876 2200.676l1.219-1.218 1.219 1.218-1.219 1.22zm0 0" class="cls-3"/>
            <g id="Group_12">
                <path id="Rectangle_7" d="M0 0H1.725V1.725H0z" class="cls-3" transform="translate(979.555 2184.571)"/>
                <path id="Path_32" d="M983.866 2179.4h-6.113a19.509 19.509 0 0 0-1.263-3.055l4.32-4.321a.862.862 0 0 0 0-1.22l-3.658-3.658a25.869 25.869 0 1 0-36.583 36.581l3.658 3.658a.861.861 0 0 0 1.219 0l4.322-4.32a19.482 19.482 0 0 0 3.057 1.262v6.114a.863.863 0 0 0 .862.863h10.347a.863.863 0 0 0 .862-.863v-6.113a19.412 19.412 0 0 0 3.055-1.263l4.321 4.321a.863.863 0 0 0 1.22 0l7.316-7.316a.863.863 0 0 0 0-1.219l-4.321-4.322a19.469 19.469 0 0 0 1.265-3.058h6.114a.863.863 0 0 0 .863-.862v-10.349a.863.863 0 0 0-.863-.862zm-42.079-11.038a24.137 24.137 0 0 1 33.521-.6l-1.218 1.218a22.419 22.419 0 0 0-31.68 31.68l-1.218 1.218a24.137 24.137 0 0 1 .595-33.521zm24.39 9.757a10.347 10.347 0 0 1-14.633 14.633.861.861 0 0 0-1.219 0l-6.7 6.694a20.694 20.694 0 0 1 29.241-29.241l-6.694 6.694a.862.862 0 0 0 0 1.22zM983 2189.745h-5.89a.863.863 0 0 0-.832.631 17.632 17.632 0 0 1-1.6 3.88.863.863 0 0 0 .143 1.035l4.164 4.164-6.1 6.1-4.165-4.164a.862.862 0 0 0-1.035-.143 17.721 17.721 0 0 1-3.88 1.6.862.862 0 0 0-.631.831v5.9h-8.625v-5.894a.863.863 0 0 0-.631-.832 17.637 17.637 0 0 1-3.88-1.6.863.863 0 0 0-1.035.143l-4.164 4.164-2.439-2.439 8.558-8.557a12.072 12.072 0 0 0 17.027-17.029l8.557-8.558 2.439 2.438-4.164 4.165a.863.863 0 0 0-.143 1.035 17.651 17.651 0 0 1 1.6 3.88.863.863 0 0 0 .832.631H983zm0 0" class="cls-3"/>
            </g>
            <path id="Path_33" fill="#e34" d="M959.723 2182.107v-9.607a.863.863 0 0 0-1.725 0v9.608a3.449 3.449 0 0 0-2.464 2.464h-6.158a.862.862 0 1 0 0 1.725h6.158a3.442 3.442 0 1 0 4.189-4.189zm-.862 5.051a1.725 1.725 0 1 1 1.724-1.725 1.725 1.725 0 0 1-1.724 1.725zm0 0"/>
            <path id="Path_34" d="M958.861 2169.05a.863.863 0 0 1-.863-.862v-1.725a.863.863 0 0 1 1.725 0v1.725a.862.862 0 0 1-.862.862zm0 0" class="cls-3"/>
            <path id="Path_35" d="M967.483 2171.361a.862.862 0 0 1-.746-1.293l.863-1.494a.862.862 0 0 1 1.493.862l-.862 1.494a.863.863 0 0 1-.748.431zm0 0" class="cls-3"/>
            <path id="Path_36" d="M950.238 2171.361a.864.864 0 0 1-.748-.431l-.862-1.494a.862.862 0 0 1 1.494-.862l.862 1.494a.862.862 0 0 1-.746 1.293zm0 0" class="cls-3"/>
            <path id="Path_37" d="M943.925 2177.673a.839.839 0 0 1-.431-.116L942 2176.7a.862.862 0 0 1 .862-1.493l1.494.862a.862.862 0 0 1-.431 1.609zm0 0" class="cls-3"/>
            <path id="Path_38" d="M941.615 2186.3h-1.724a.862.862 0 1 1 0-1.725h1.724a.862.862 0 0 1 0 1.725zm0 0" class="cls-3"/>
            <path id="Path_39" d="M942.433 2195.781a.862.862 0 0 1-.432-1.609l1.495-.862a.856.856 0 0 1 .656-.09.862.862 0 0 1 .206 1.583l-1.494.862a.851.851 0 0 1-.431.116zm0 0" class="cls-3"/>
            <path id="Path_40" d="M958.861 2194.056a8.55 8.55 0 0 1-6.1-2.53.862.862 0 1 1 1.221-1.217 6.894 6.894 0 1 0 9.749-9.749.862.862 0 1 1 1.217-1.221 8.622 8.622 0 0 1-6.092 14.717zm0 0" class="cls-3"/>
        </g>
    </g>
</svg>
