<svg xmlns="http://www.w3.org/2000/svg" width="83.435" height="91.375" viewBox="0 0 83.435 91.375">
    <defs>
        <style>
            .cls-3{fill:#081f3b}.cls-4{fill:#e34}
        </style>
    </defs>
    <g id="Group_3" transform="translate(-1301.766 -1930.115)">
        <g id="Group_1">
            <path id="Path_1" fill="#eff4fa" d="M1323.486 2019.752c18.263-3.7 32.721 3.22 41.522 1.438s26.259-10.589 18.058-51.076-34.271-41.39-43.953-39.427c-45.33 9.181-47.974 95.62-15.627 89.065zm0 0"/>
        </g>
        <path id="Path_2" fill="#a4aec0" d="M1372.277 1953.527a4.041 4.041 0 1 1-3.026-4.848 4.046 4.046 0 0 1 3.026 4.848zm-5.249-1.214a1.347 1.347 0 1 0 1.616-1.01 1.35 1.35 0 0 0-1.616 1.01zm0 0"/>
        <g id="Group_2">
            <path id="Path_3" d="M1354.08 2000.891h-32.157a4.471 4.471 0 0 1-4.466-4.466v-2.68h33.943v1.786h-32.157v.894a2.682 2.682 0 0 0 2.68 2.679h32.157z" class="cls-3"/>
            <path id="Path_4" d="M1321.03 1994.638h-1.787v-26.8a4.472 4.472 0 0 1 4.466-4.467h34.837a4.471 4.471 0 0 1 4.466 4.467v11.612h-1.786v-11.612a2.683 2.683 0 0 0-2.68-2.68h-34.837a2.683 2.683 0 0 0-2.679 2.68z" class="cls-3"/>
            <path id="Rectangle_1" d="M0 0H1.786V1.786H0z" class="cls-3" transform="translate(1358.546 2002.677)"/>
            <path id="Rectangle_2" d="M0 0H19.651V1.786H0z" class="cls-3" transform="translate(1337.108 2002.677)"/>
            <path id="Path_5" d="M1369.265 2000.891h-11.612a1.789 1.789 0 0 1-1.787-1.787v-1.786a1.789 1.789 0 0 1 1.787-1.787v3.573h11.612v-1.786h-2.68v-1.787h2.68a1.789 1.789 0 0 1 1.787 1.787v1.786a1.789 1.789 0 0 1-1.787 1.787z" class="cls-4"/>
            <path id="Path_6" d="M1366.585 1997.318h-11.612a1.789 1.789 0 0 1-1.786-1.787v-1.786a1.789 1.789 0 0 1 1.786-1.787h11.612a1.789 1.789 0 0 1 1.787 1.787v1.786a1.789 1.789 0 0 1-1.787 1.787zm-11.612-3.573v1.786h11.612v-1.786z" class="cls-4"/>
            <path id="Path_7" d="M1369.265 1993.745h-2.68v-1.787h2.68v-1.786h-3.573v-1.787h3.573a1.789 1.789 0 0 1 1.787 1.787v1.786a1.789 1.789 0 0 1-1.787 1.787z" class="cls-4"/>
            <path id="Path_8" d="M1357.653 1993.745a1.789 1.789 0 0 1-1.787-1.787v-1.786a1.789 1.789 0 0 1 1.787-1.787z" class="cls-4"/>
            <path id="Path_9" d="M1365.692 1990.172h-11.612a1.789 1.789 0 0 1-1.787-1.787v-1.785a1.789 1.789 0 0 1 1.787-1.787h11.612a1.789 1.789 0 0 1 1.787 1.787v1.786a1.789 1.789 0 0 1-1.787 1.786zm-11.612-3.573v1.786h11.612v-1.785z" class="cls-4"/>
            <path id="Path_10" d="M1368.372 1986.6h-2.68v-1.787h2.68v-1.786h-11.612v3.573a1.789 1.789 0 0 1-1.787-1.787v-1.786a1.789 1.789 0 0 1 1.787-1.787h11.612a1.789 1.789 0 0 1 1.786 1.787v1.786a1.789 1.789 0 0 1-1.786 1.787z" class="cls-4"/>
            <path id="Path_11" d="M1325.5 1991.065h-1.786v-10.719h5.359v7.146h-1.786v-5.359h-1.787z" class="cls-3"/>
            <path id="Path_12" d="M1332.642 1989.279h-1.786v-13.4h5.359v9.826h-1.786v-8.039h-1.786z" class="cls-3"/>
            <path id="Path_13" d="M1339.788 1987.492H1338v-16.078h5.359v12.505h-1.786V1973.2h-1.786z" class="cls-3"/>
            <path id="Rectangle_3" d="M0 0H1.786V1.786H0z" class="cls-3" transform="translate(1327.282 1989.279)"/>
            <path id="Rectangle_4" d="M0 0H1.786V1.786H0z" class="cls-3" transform="translate(1334.428 1987.492)"/>
            <path id="Rectangle_5" d="M0 0H1.786V1.786H0z" class="cls-3" transform="translate(1341.574 1985.706)"/>
            <path id="Path_14" d="M1359.439 1974.093h-1.786v-4.466h-4.466v-1.786h6.253z" class="cls-4"/>
            <path id="Path_15" d="M1352.663 1975.88h-7.516v-1.786h6.776l5.991-5.991 1.263 1.263z" class="cls-4"/>
        </g>
    </g>
</svg>
