<svg xmlns="http://www.w3.org/2000/svg" width="94.586" height="84.792" viewBox="0 0 94.586 84.792">
    <g>
        <g>
            <path fill="#eff4fa" d="M613.053 1993.922c-7.747-16.948-4.285-32.6-8.017-40.767s-16.268-23.173-53.84-6-32.539 42.765-28.431 51.749c19.222 42.066 104.008 25.038 90.288-4.979zm0 0" transform="translate(-519.961 -1939.262)"/>
        </g>
        <path fill="#a4aec0" d="M590.69 1959.57a4.041 4.041 0 1 1 4.042-4.041 4.046 4.046 0 0 1-4.042 4.041zm0-5.388a1.347 1.347 0 1 0 1.348 1.347 1.349 1.349 0 0 0-1.348-1.347zm0 0" transform="translate(-519.961 -1939.262)"/>
        <g>
            <g>
                <path fill="#081f3b" d="M583.712 1996.094l1.249-3.279a25.5 25.5 0 0 0-6.384-1.579 24.869 24.869 0 0 0 5.586-15.769 15.613 15.613 0 1 0-31.225 0 24.6 24.6 0 0 0 6.089 16.376 25.813 25.813 0 0 0-14.364 9.125l2.723 2.151a22.415 22.415 0 0 1 15.249-8.448 11.83 11.83 0 0 0 12.143-.139h.712a22.423 22.423 0 0 1 8.222 1.562zm-27.53-20.627a12.378 12.378 0 0 1 24.755 0c0 7.408-4.3 17.677-12.369 17.677s-12.386-10.321-12.386-17.677z" transform="translate(-519.961 -1939.262)"/>
                <path fill="#e34" d="M598.041 2001.489H591.1v-6.939h-3.469v6.939h-6.939v3.469h6.939v6.939h3.469v-6.939h6.939z" transform="translate(-519.961 -1939.262)"/>
            </g>
        </g>
    </g>
</svg>
