<svg xmlns="http://www.w3.org/2000/svg" width="96.79" height="89.283" viewBox="0 0 96.79 89.283">
    <defs>
        <style>
            .cls-4{fill:#e34}
        </style>
    </defs>
    <g id="Group_32" transform="translate(-519.58 -2135.223)">
        <g id="Group_27">
            <path id="Path_69" fill="#eff4fa" d="M612.221 2178.709c-12.716-13.622-14.389-29.564-20.515-36.129s-22.77-16.829-52.97 11.356-17.322 50.869-10.58 58.09c31.555 33.813 106.585-9.19 84.065-33.317zm0 0"/>
        </g>
        <path id="Path_70" fill="#a4aec0" d="M536.032 2204.074a4.042 4.042 0 1 1-3.027-4.848 4.046 4.046 0 0 1 3.027 4.848zm-5.25-1.214a1.347 1.347 0 1 0 1.616-1.01 1.348 1.348 0 0 0-1.616 1.01zm0 0"/>
        <g id="Group_31">
            <g id="Group_28">
                <path id="Path_71" fill="#081f3b" d="M590.141 2159.756h-42.9a4.081 4.081 0 0 0-4.069 4.08v18.29a4.081 4.081 0 0 0 4.069 4.08h17.38v4.75l-6.32 6.32 6.71 13.53h10.411l6.79-13.68-9.451-6.29v-4.63h17.38a4.083 4.083 0 0 0 4.071-4.08v-18.29a4.083 4.083 0 0 0-4.071-4.08zm-42.9 24.4a2.029 2.029 0 0 1-2.02-2.03v-18.29a2.029 2.029 0 0 1 2.02-2.03h20.431v19.3h-3.051v3.05zm32.33 13.68l-5.419 10.92h-7.87l-5.491-11.07 3.83-3.83v4.65h2.051v-15.35h4.04v8.77zm12.591-15.71a2.03 2.03 0 0 1-2.021 2.03h-17.38v-3.05h-3.049v-19.3h20.429a2.03 2.03 0 0 1 2.021 2.03z"/>
            </g>
            <g id="Group_29">
                <path id="Path_72" d="M583.621 2172.986l.3-.34a4.072 4.072 0 0 0-3.031-6.79h-4.08v14.25h4.08a4.072 4.072 0 0 0 3.031-6.79zm-2.73 5.07h-2.03v-4.05h2.03a2.025 2.025 0 0 1 0 4.05zm0-6.1h-2.03v-4.05h2.03a2.025 2.025 0 0 1 0 4.05z" class="cls-4"/>
            </g>
            <g id="Group_30">
                <path id="Path_73" d="M556.491 2171.956a2.025 2.025 0 1 1 1.961-2.52h2.089a4.075 4.075 0 1 0-4.05 4.57 2.025 2.025 0 1 1-1.959 2.52h-2.08a4.075 4.075 0 1 0 4.039-4.57z" class="cls-4"/>
            </g>
        </g>
    </g>
</svg>
