<svg xmlns="http://www.w3.org/2000/svg" width="86.943" height="96.382" viewBox="0 0 86.943 96.382">
    <defs>
        <style>
            .cls-3{fill:#081f3b}.cls-4{fill:#e34}
        </style>
    </defs>
    <g id="Group_26" transform="translate(-917.888 -1935.4)">
        <g id="Group_23">
            <path id="Path_54" fill="#eff4fa" d="M955.731 2029.05c15.424-10.457 31.433-9.645 38.866-14.683s20.147-19.894-3.03-54.088-47.58-24.978-55.756-19.434c-38.286 25.949-7.4 106.724 19.92 88.205zm0 0"/>
        </g>
        <path id="Path_55" fill="#a4aec0" d="M949.178 1948.784a4.041 4.041 0 1 1 2.45 5.164 4.047 4.047 0 0 1-2.45-5.164zm5.075 1.809a1.347 1.347 0 1 0-1.721.818 1.349 1.349 0 0 0 1.721-.818zm0 0"/>
        <g id="Group_25">
            <g id="Group_24">
                <path id="Path_56" d="M988.716 2002.9h-56.344a1.057 1.057 0 0 1-1.056-1.057V1961.9a1.057 1.057 0 1 1 2.113 0v38.882h55.287a1.057 1.057 0 0 1 0 2.114z" class="cls-3"/>
                <path id="Path_57" d="M956.429 1983.7a1.049 1.049 0 0 1-.573-.17l-8.944-5.8-8.932 5.121a1.056 1.056 0 0 1-1.051-1.833l9.492-5.441a1.059 1.059 0 0 1 1.1.03l8.653 5.607 8.883-11.948a1.055 1.055 0 0 1 .8-.424 1.035 1.035 0 0 1 .835.35l8.911 9.952 8.692-5.257a1.057 1.057 0 0 1 1.094 1.808l-9.442 5.71a1.054 1.054 0 0 1-1.334-.2l-8.633-9.641-8.7 11.705a1.054 1.054 0 0 1-.851.431z" class="cls-3"/>
                <path id="Path_58" d="M937.458 1998.533a1.057 1.057 0 0 1-.8-1.741l9.475-11.144a1.058 1.058 0 0 1 1.126-.322 1.507 1.507 0 0 1 .268.115l8.822 5.286 8.909-6.978a1.057 1.057 0 0 1 1.061-.143 1.4 1.4 0 0 1 .241.131l9.054 6.508 8.978-2.011a1.056 1.056 0 1 1 .462 2.061l-9.441 2.115a1.06 1.06 0 0 1-.848-.172l-8.822-6.342-8.862 6.942a1.055 1.055 0 0 1-1.194.075l-8.717-5.222-8.9 10.47a1.055 1.055 0 0 1-.812.372z" class="cls-3"/>
                <path id="Path_59" d="M942.585 1998.533a1.057 1.057 0 0 1-1.057-1.057v-.7a1.056 1.056 0 0 1 2.113 0v.7a1.056 1.056 0 0 1-1.056 1.057z" class="cls-4"/>
                <path id="Path_60" d="M947.045 1998.533a1.056 1.056 0 0 1-1.056-1.057v-6.338a1.056 1.056 0 1 1 2.113 0v6.338a1.057 1.057 0 0 1-1.057 1.057z" class="cls-4"/>
                <path id="Path_61" d="M951.506 1998.533a1.057 1.057 0 0 1-1.057-1.057v-4.225a1.057 1.057 0 1 1 2.113 0v4.225a1.056 1.056 0 0 1-1.056 1.057z" class="cls-4"/>
                <path id="Path_62" d="M955.966 1998.533a1.057 1.057 0 0 1-1.057-1.057v-2.112a1.057 1.057 0 0 1 2.114 0v2.112a1.057 1.057 0 0 1-1.057 1.057z" class="cls-4"/>
                <path id="Path_63" d="M960.427 1998.533a1.057 1.057 0 0 1-1.057-1.057v-3.521a1.056 1.056 0 1 1 2.113 0v3.521a1.056 1.056 0 0 1-1.056 1.057z" class="cls-4"/>
                <path id="Path_64" d="M964.887 1998.533a1.057 1.057 0 0 1-1.057-1.057v-7.747a1.057 1.057 0 0 1 2.114 0v7.747a1.057 1.057 0 0 1-1.057 1.057z" class="cls-4"/>
                <path id="Path_65" d="M969.347 1998.533a1.056 1.056 0 0 1-1.056-1.057v-5.634a1.056 1.056 0 1 1 2.113 0v5.634a1.057 1.057 0 0 1-1.057 1.057z" class="cls-4"/>
                <path id="Path_66" d="M973.808 1998.533a1.057 1.057 0 0 1-1.057-1.057v-2.817a1.057 1.057 0 0 1 2.114 0v2.817a1.057 1.057 0 0 1-1.057 1.057z" class="cls-4"/>
                <path id="Path_67" d="M978.268 1998.533a1.056 1.056 0 0 1-1.056-1.057v-2.817a1.057 1.057 0 0 1 2.113 0v2.817a1.057 1.057 0 0 1-1.057 1.057z" class="cls-4"/>
                <path id="Path_68" d="M982.729 1998.533a1.057 1.057 0 0 1-1.057-1.057v-4.225a1.056 1.056 0 1 1 2.113 0v4.225a1.056 1.056 0 0 1-1.056 1.057z" class="cls-4"/>
            </g>
        </g>
    </g>
</svg>
