<svg xmlns="http://www.w3.org/2000/svg" width="92.215" height="83.495" viewBox="0 0 92.215 83.495">
    <defs>
        <style>
            .cls-4{fill:#081f3b}
        </style>
    </defs>
    <g id="Group_36" transform="translate(-1305.448 -2321.963)">
        <g id="Group_34">
            <path id="Path_74" fill="#eff4fa" d="M1309.276 2342.078c2.71 18.436-4.982 32.5-3.678 41.384s9.156 26.793 50.026 20.79 43.181-31.986 41.743-41.76c-6.72-45.759-92.89-53.067-88.091-20.414zm0 0"/>
        </g>
        <path id="Path_75" fill="#a4aec0" d="M1380.115 2363.71a4.041 4.041 0 1 1 4.041 4.041 4.045 4.045 0 0 1-4.041-4.041zm5.387 0a1.347 1.347 0 1 0-1.346 1.348 1.349 1.349 0 0 0 1.346-1.348zm0 0"/>
        <g id="Group_35">
            <path id="Path_76" fill="#e34" d="M1353.813 2348.879a19.021 19.021 0 1 0 19.017 19.025 19.045 19.045 0 0 0-19.017-19.025zm0 35.585a16.564 16.564 0 1 1 16.567-16.56 16.575 16.575 0 0 1-16.567 16.56z"/>
            <path id="Path_77" d="M1365.471 2366.674h-9.532a2.455 2.455 0 0 0-2.125-1.228 2.5 2.5 0 0 0-.634.085l-2.254-2.254a1.228 1.228 0 1 0-1.736 1.737l2.254 2.254a2.453 2.453 0 0 0 4.495 1.861h9.532a1.227 1.227 0 0 0 0-2.455zm0 0" class="cls-4"/>
            <path id="Path_78" d="M1353.814 2343.593a24.289 24.289 0 0 0-19.508 9.822h-11.184a1.228 1.228 0 1 0 0 2.455h9.575a24.163 24.163 0 0 0-1.889 4.178H1316.492a1.228 1.228 0 0 0 0 2.456h13.619a24.3 24.3 0 0 0-.575 4.174h-4.7a1.227 1.227 0 1 0 0 2.455h4.7a24.163 24.163 0 0 0 3.161 10.8h-16.205a1.228 1.228 0 0 0 0 2.456h17.814a24.3 24.3 0 1 0 19.508-38.8zm0 46.162a21.853 21.853 0 1 1 21.853-21.853 21.877 21.877 0 0 1-21.853 21.853zm0 0" class="cls-4"/>
            <path id="Path_79" d="M1353.814 2378.331a1.229 1.229 0 1 0 .868.36 1.242 1.242 0 0 0-.868-.36zm0 0" class="cls-4"/>
            <path id="Path_80" d="M1353.814 2357.473a1.229 1.229 0 1 0-.867-.36 1.238 1.238 0 0 0 .867.36zm0 0" class="cls-4"/>
            <path id="Path_81" d="M1342.158 2366.674a1.229 1.229 0 1 0 .867.36 1.238 1.238 0 0 0-.867-.36zm0 0" class="cls-4"/>
            <path id="Path_82" d="M1316.492 2375.759h6.63a1.228 1.228 0 1 0 0-2.455h-6.63a1.228 1.228 0 0 0 0 2.455zm0 0" class="cls-4"/>
        </g>
    </g>
</svg>
